<?xml version="1.0" encoding="UTF-8"?>
<!DOCTYPE svg PUBLIC "-//W3C//DTD SVG 1.1//EN" "http://www.w3.org/Graphics/SVG/1.1/DTD/svg11.dtd">
<svg xmlns="http://www.w3.org/2000/svg" xmlns:xlink="http://www.w3.org/1999/xlink" version="1.1" width="311px"
     height="311px" viewBox="-0.5 -0.5 311 311" style="background-color: rgb(255, 255, 255);">
    <defs/>
    <g>
        <ellipse cx="153" cy="153" rx="150" ry="150" fill="#ffffff" stroke="#000000" pointer-events="all"/>
        <image x="105" y="105" width="95" height="95"
               xlink:href=""
               preserveAspectRatio="none" transform="rotate(15,153,153)"/>
        <image x="122.5" y="22.5" width="60" height="60"
               xlink:href=""
               preserveAspectRatio="none" transform="rotate(115,153,53)"/>
        <image x="222.5" y="140" width="60" height="60"
               xlink:href=""
               preserveAspectRatio="none" transform="rotate(120,253,170.5)"/>
        <image x="182.5" y="200" width="60" height="60"
               xlink:href=""
               preserveAspectRatio="none" transform="rotate(90,213,230.5)"/>
        <image x="92.5" y="212.5" width="70" height="70"
               xlink:href=""
               preserveAspectRatio="none" transform="rotate(-75,128,248)"/>
        <image x="45" y="73.62" width="60" height="60"
               xlink:href=""
               preserveAspectRatio="none" transform="rotate(195,75.5,104.12)"/>
        <image x="32.5" y="152.5" width="60" height="60"
               xlink:href=""
               preserveAspectRatio="none" transform="rotate(165,63,183)"/>
        <image x="197.5" y="62.5" width="60" height="60"
               xlink:href=""
               preserveAspectRatio="none" transform="rotate(45,228,93)"/>
    </g>
</svg>