<svg id="Filled_stroke_cut_Ex" height="512" viewBox="0 0 512 512" width="512" xmlns="http://www.w3.org/2000/svg" data-name="Filled stroke cut Ex"><g><path d="m40 280a56.017 56.017 0 0 1 34.206-51.6q.2-.346.4-.692a75.457 75.457 0 0 1 4.594-47.686c6.715-15.069 28.895-16.267 37.3-1.981 14.238 24.2 41.519 40.565 72.835 40.565a86.042 86.042 0 0 0 49.617-15.515c.253 2.508-27.762 210.825-70.412 212.811-47.94 2.232-87.54-33.932-87.54-78.86q0-1.536.062-3.06a56.023 56.023 0 0 1 -41.062-53.982z" fill="#fdc069"/><path d="m472 280a56.017 56.017 0 0 0 -34.206-51.6q-.2-.346-.4-.692a75.457 75.457 0 0 0 -4.594-47.682c-6.715-15.069-28.895-16.267-37.3-1.981-14.238 24.2-41.519 40.565-72.835 40.565a86.042 86.042 0 0 1 -49.617-15.515c-.248 2.505 27.764 210.821 70.414 212.805 47.938 2.234 87.538-33.93 87.538-78.858q0-1.536-.062-3.06a56.023 56.023 0 0 0 41.062-53.982z" fill="#fdc069"/><path d="m373.087 440.736-39.108-85.329a242.2 242.2 0 0 0 2.021-31.407c0-77.32-35.817-140-80-140s-80 62.68-80 140a242.061 242.061 0 0 0 2.086 31.9l-38.916 84.84a20 20 0 0 0 14.479 27.994l102.351 19.266 102.6-19.275a20 20 0 0 0 14.487-27.989z" fill="#fff7ed"/><path d="m283.679 216.774 16.642-9.343c-12.688-14.803-27.929-23.431-44.321-23.431s-31.633 8.628-44.321 23.431l16.642 9.343a56.625 56.625 0 0 0 55.358 0z" fill="#ffe8cc"/><path d="m319.194 184h-126.388a30 30 0 0 1 -28.635-38.948l14.672-46.952a60 60 0 0 1 57.268-42.1h39.778a60 60 0 0 1 57.268 42.1l14.672 46.948a30 30 0 0 1 -28.635 38.952z" fill="#f15a57"/><rect fill="#fdc069" height="32" rx="16" width="160" x="176" y="24"/><path d="m297.494 102.4-5.78-1.623a132.238 132.238 0 0 0 -71.428 0l-5.78 1.623a19.7 19.7 0 0 0 -14.506 18.891v49.83a19.594 19.594 0 0 0 10.077 17.061l26.077 14.64a40.616 40.616 0 0 0 39.692 0l26.077-14.64a19.594 19.594 0 0 0 10.077-17.061v-49.83a19.7 19.7 0 0 0 -14.506-18.891z" fill="#ffd4cf"/><path d="m176 293.142c13.968-1.454 29.968-6.583 48-17.4v32s-21.416 32.244-48 44.258z" fill="#fffaf4"/><path d="m336 293.142c-13.968-1.454-29.968-6.583-48-17.4v32s21.416 32.244 48 44.258z" fill="#fffaf4"/><path d="m265.933 253.694 6.441 12.227a11.207 11.207 0 0 0 8.424 5.84l13.583 1.849a10.908 10.908 0 0 1 6.108 18.882l-9.2 8.4a10.824 10.824 0 0 0 -3.386 9.951l2.256 12.321c1.629 8.9-7.83 15.8-16.085 11.731l-13.067-6.436a11.44 11.44 0 0 0 -10.089 0l-13.067 6.441c-8.255 4.066-17.714-2.832-16.084-11.731l2.255-12.321a10.824 10.824 0 0 0 -3.386-9.951l-9.2-8.4a10.908 10.908 0 0 1 6.108-18.882l13.583-1.849a11.207 11.207 0 0 0 8.424-5.84l6.441-12.227a11.333 11.333 0 0 1 19.941-.005z" fill="#fdc069"/><g><path d="m428.809 326.271a7.982 7.982 0 0 0 -2.889 1.48 99.046 99.046 0 0 1 -52.127-19.189l-9.493 12.881a114.9 114.9 0 0 0 58.38 22.1 68.9 68.9 0 0 1 -17.728 39.574 76.277 76.277 0 0 1 -39.03 22.783l-23.722-51.754a251.639 251.639 0 0 0 1.8-30.146c0-36.47-7.934-70.93-21.54-97.4h.207c33.026 0 63.577-17.054 79.73-44.507a12.717 12.717 0 0 1 12.006-6.085 12.542 12.542 0 0 1 11.095 7.264 67.463 67.463 0 0 1 4.102 42.628c-.019.082-.036.164-.052.246-16.238 13.185-37.946 21.039-60.768 21.793l.528 15.992c26.4-.873 51.622-10.093 70.585-25.579a47.926 47.926 0 0 1 24.107 41.648h16a63.892 63.892 0 0 0 -33.669-56.373 83.483 83.483 0 0 0 -6.219-46.859 29.327 29.327 0 0 0 -51.5-2.781c-13.291 22.589-38.558 36.622-65.94 36.622a80.927 80.927 0 0 1 -10.277-.655 105.55 105.55 0 0 0 -10.467-12.595l3.916-2.2a27.842 27.842 0 0 0 4.508-3.159h8.842a38 38 0 0 0 36.27-49.334l-14.671-46.949a67.952 67.952 0 0 0 -20.979-31.717h.186a24 24 0 0 0 0-48h-128a24 24 0 0 0 0 48h.186a67.952 67.952 0 0 0 -20.979 31.717l15.272 4.773a51.774 51.774 0 0 1 49.632-36.49h39.778a51.774 51.774 0 0 1 49.632 36.49l14.672 46.948a22 22 0 0 1 -20.635 28.562 27.161 27.161 0 0 0 .442-4.876v-49.83a27.813 27.813 0 0 0 -20.343-26.6l-5.781-1.623a140.1 140.1 0 0 0 -75.752 0l-5.781 1.629a27.813 27.813 0 0 0 -20.343 26.591v49.83a27.161 27.161 0 0 0 .442 4.876 22 22 0 0 1 -20.635-28.559l10.329-33.052-15.272-4.772-10.328 33.052a38 38 0 0 0 36.27 49.334h8.842a27.842 27.842 0 0 0 4.513 3.157l3.915 2.2a105.677 105.677 0 0 0 -10.471 12.6 81.021 81.021 0 0 1 -10.272.654c-27.381 0-52.648-14.033-65.94-36.622a29.327 29.327 0 0 0 -51.5 2.781 83.472 83.472 0 0 0 -6.22 46.858 64.027 64.027 0 0 0 7.375 116.132 84.647 84.647 0 0 0 22.152 54.113 92.18 92.18 0 0 0 44.339 26.878l-7.639 16.654a28 28 0 0 0 20.269 39.195l38.351 7.219 2.96-15.724-38.351-7.219a12 12 0 0 1 -8.688-16.8l38.917-84.841a8.007 8.007 0 0 0 .728-3.446c11.2-6.473 21.131-15.634 28.766-23.894a18.953 18.953 0 0 0 6.27 8.264 19.3 19.3 0 0 0 20.264 1.914l13.067-6.435a3.433 3.433 0 0 1 3.02 0l13.066 6.435a19.3 19.3 0 0 0 20.264-1.914 18.943 18.943 0 0 0 6.292-8.322c7.659 8.3 17.64 17.506 28.895 24a8 8 0 0 0 .716 2.907l39.108 85.329a12 12 0 0 1 -8.692 16.794l-101.122 18.993-46.52-8.76-2.96 15.724 48 9.035a7.989 7.989 0 0 0 2.957 0l102.6-19.275a28 28 0 0 0 20.282-39.184l-7.659-16.712a92.171 92.171 0 0 0 44.1-26.815 84.639 84.639 0 0 0 22.154-54.124 64.522 64.522 0 0 0 38.392-41.466l-15.335-4.566a48.327 48.327 0 0 1 -33.202 32.554zm-236.809-278.271a8 8 0 0 1 0-16h128a8 8 0 0 1 0 16zm16 73.291a11.76 11.76 0 0 1 8.667-11.192l5.781-1.622a124.091 124.091 0 0 1 67.1 0l5.781 1.622a11.76 11.76 0 0 1 8.671 11.192v49.83a11.624 11.624 0 0 1 -5.994 10.085l-26.077 14.641a32.735 32.735 0 0 1 -31.858 0l-26.077-14.641a11.624 11.624 0 0 1 -5.994-10.085zm24.238 88.509a48.827 48.827 0 0 0 47.524 0l7.609-4.272c17.824 16.077 31 44.16 37.012 77.383a104.979 104.979 0 0 1 -13.325-4.451 18.967 18.967 0 0 0 -15.6-12.774l-13.583-1.85a3.208 3.208 0 0 1 -2.425-1.642l-6.441-12.227a19.186 19.186 0 0 0 -17.048-10.216 19.185 19.185 0 0 0 -17.047 10.216l-6.442 12.228a3.209 3.209 0 0 1 -2.425 1.641l-13.583 1.85a18.966 18.966 0 0 0 -15.61 12.81 104.8 104.8 0 0 1 -13.244 4.416c6.009-33.238 19.184-61.307 37.017-77.385zm-85.915 196.16a76.282 76.282 0 0 1 -39.277-22.838 68.9 68.9 0 0 1 -17.728-39.574 114.9 114.9 0 0 0 58.38-22.1l-9.491-12.881a99.046 99.046 0 0 1 -52.127 19.184 7.982 7.982 0 0 0 -2.889-1.48 48.024 48.024 0 0 1 -11.091-87.92c18.963 15.486 44.188 24.706 70.585 25.579l.528-15.992c-22.822-.754-44.53-8.608-60.768-21.793-.016-.082-.033-.164-.052-.245a67.459 67.459 0 0 1 4.107-42.622 12.54 12.54 0 0 1 11.1-7.264 12.713 12.713 0 0 1 12 6.086c16.154 27.453 46.705 44.507 79.73 44.507h.2c-13.602 26.451-21.53 60.893-21.53 97.393a251.3 251.3 0 0 0 1.86 30.646zm38.079-68.1c-.267-4.594-.4-9.222-.4-13.859a237.348 237.348 0 0 1 1.224-24.154 113.655 113.655 0 0 0 17.751-5.015 19.319 19.319 0 0 0 3.067 3.568l8.965 8.188c-4.764 6.465-16.364 21.112-30.609 31.271zm96.755-10.465a3.308 3.308 0 0 1 -3.549.326l-13.066-6.436a19.542 19.542 0 0 0 -17.159 0l-13.066 6.436a3.308 3.308 0 0 1 -3.549-.326 2.73 2.73 0 0 1 -1.132-2.787l2.256-12.322a18.74 18.74 0 0 0 -5.861-17.3l-9.2-8.4a2.669 2.669 0 0 1 -.832-2.925 3 3 0 0 1 2.624-2.122l13.583-1.849a19.234 19.234 0 0 0 14.422-10.039l6.442-12.226a3.336 3.336 0 0 1 5.784 0l6.446 12.225a19.24 19.24 0 0 0 14.423 10.038l13.583 1.849a3 3 0 0 1 2.625 2.122 2.67 2.67 0 0 1 -.832 2.925l-9.2 8.4a18.738 18.738 0 0 0 -5.86 17.3l2.256 12.32a2.733 2.733 0 0 1 -1.138 2.79zm15.806-20.848 8.921-8.146a19.323 19.323 0 0 0 3.081-3.592 113.5 113.5 0 0 0 17.808 5.037 236.845 236.845 0 0 1 1.227 24.154c0 4.635-.135 9.264-.4 13.859-14.275-10.184-25.894-24.868-30.637-31.313z"/><path d="m224 136h16v16h-16z"/><path d="m272 136h16v16h-16z"/><path d="m192 424h16v16h-16z"/><path d="m304 424h16v16h-16z"/><path d="m248 384h16v16h-16z"/></g></g></svg>