<?xml version="1.0" encoding="UTF-8"?>
<svg xmlns="http://www.w3.org/2000/svg" id="Filled" viewBox="0 0 512 512" width="512" height="512"><path d="M464,312c0-114.875-93.125-224-208-224S48,197.125,48,312v48H464Z" style="fill:#f0dfce"/><path d="M366.19,124.12a112.014,112.014,0,0,1-220.38,0C177.76,101.54,215.53,88,256,88S334.24,101.54,366.19,124.12Z" style="fill:#eb423f"/><rect x="24" y="352" width="464" height="136" rx="32" ry="32" style="fill:#eb423f"/><path d="M464,312v2.03l-8,.68-51.07-13.27a74.524,74.524,0,0,0-41.62,1.16l-43.36,13.83a74.641,74.641,0,0,1-47.73-.71l-32.44-11.38a74.708,74.708,0,0,0-47.73-.7l-38.72,12.35a74.733,74.733,0,0,1-50.23-1.63L56,296H48.6a223.841,223.841,0,0,1,6.7-40H56l47.1,18.36a74.733,74.733,0,0,0,50.23,1.63l38.72-12.35a74.708,74.708,0,0,1,47.73.7l32.44,11.38a74.641,74.641,0,0,0,47.73.71l43.36-13.83a74.524,74.524,0,0,1,41.62-1.16L456,274.71h4.76A218.086,218.086,0,0,1,464,312Z" style="fill:#f7b030"/><path d="M320,88a23.992,23.992,0,0,0-12.786-21.219,23.988,23.988,0,0,0-30-30,24,24,0,0,0-42.438,0,23.988,23.988,0,0,0-30,30,24,24,0,0,0,0,42.438,23.988,23.988,0,0,0,30,30,24,24,0,0,0,42.438,0,23.988,23.988,0,0,0,30-30A23.992,23.992,0,0,0,320,88Z" style="fill:#f0dfce"/><path d="M472,347.35V312c0-47.862-15.834-96.667-44.585-137.425-25.981-36.831-61.107-65.071-99.974-80.654A31.945,31.945,0,0,0,316.1,63.1a31.992,31.992,0,0,0-35.2-35.2,32,32,0,0,0-49.8,0,31.993,31.993,0,0,0-35.2,35.2,31.945,31.945,0,0,0-11.339,30.822c-38.867,15.583-73.993,43.823-99.974,80.654C55.834,215.333,40,264.138,40,312v35.35A40.052,40.052,0,0,0,16,384v72a40.045,40.045,0,0,0,40,40H456a40.045,40.045,0,0,0,40-40V384A40.052,40.052,0,0,0,472,347.35ZM104,360V480H72V360Zm16,0h32V480H120Zm48,0h32V480H168Zm48,0h32V480H216Zm48,0h32V480H264Zm48,0h32V480H312Zm48,0h32V480H360Zm48,0h32V480H408ZM61.023,266.544l39.167,15.268a82.441,82.441,0,0,0,55.567,1.8l38.724-12.35a66.662,66.662,0,0,1,42.648.631l32.445,11.382a82.545,82.545,0,0,0,52.806.776l43.362-13.829a66.858,66.858,0,0,1,37.18-1.037l50.942,13.238a209.611,209.611,0,0,1,2.05,24L406.945,293.7a82.829,82.829,0,0,0-46.064,1.28l-43.362,13.829a66.669,66.669,0,0,1-42.648-.631l-32.445-11.382a82.545,82.545,0,0,0-52.806-.776L150.9,308.367A66.613,66.613,0,0,1,106,306.9l-47.1-18.358a8.065,8.065,0,0,0-1.5-.421A217.168,217.168,0,0,1,61.023,266.544ZM208.529,73.851a8,8,0,0,0,3.9-9.418,15.989,15.989,0,0,1,20-20,8,8,0,0,0,9.419-3.9,16,16,0,0,1,28.3,0,8,8,0,0,0,9.419,3.9,15.988,15.988,0,0,1,20,20,8,8,0,0,0,3.9,9.418,16,16,0,0,1,0,28.3,8,8,0,0,0-3.9,9.418,15.988,15.988,0,0,1-20,20,8,8,0,0,0-9.418,3.9,16,16,0,0,1-28.3,0,7.992,7.992,0,0,0-9.418-3.9,15.989,15.989,0,0,1-20-20,8,8,0,0,0-3.9-9.418,16,16,0,0,1,0-28.3ZM195.9,112.9a31.991,31.991,0,0,0,35.2,35.2,32,32,0,0,0,49.8,0,31.99,31.99,0,0,0,35.2-35.2,31.978,31.978,0,0,0,4.526-4.476,194.462,194.462,0,0,1,36.64,19.3,103.683,103.683,0,0,1-4.922,15.5l-12.768-6.384,0,.006a7.993,7.993,0,1,0-7.15,14.3l0,.006,12.79,6.4a103.782,103.782,0,0,1-22.259,26.089l-13.3-13.3h0a8,8,0,0,0-11.314,11.314h0l11.4,11.4A103.74,103.74,0,0,1,264,207.675V192a8,8,0,0,0-16,0v15.675a103.74,103.74,0,0,1-45.746-14.615l11.4-11.4h0a8,8,0,0,0-11.314-11.314h0l-13.3,13.3a103.764,103.764,0,0,1-22.259-26.089l12.79-6.4,0-.006a7.993,7.993,0,1,0-7.15-14.3l0-.006-12.769,6.384a103.683,103.683,0,0,1-4.922-15.5,194.44,194.44,0,0,1,36.641-19.3A31.978,31.978,0,0,0,195.9,112.9ZM97.659,183.8a222.837,222.837,0,0,1,43.193-45.923,120.038,120.038,0,0,0,230.3,0A222.79,222.79,0,0,1,414.341,183.8a230.081,230.081,0,0,1,36.3,81.254L406.945,253.7a82.829,82.829,0,0,0-46.064,1.28l-43.362,13.829a66.669,66.669,0,0,1-42.648-.631l-32.445-11.382a82.539,82.539,0,0,0-52.806-.776L150.9,268.367A66.613,66.613,0,0,1,106,266.9L65.059,250.945A230.91,230.91,0,0,1,97.659,183.8ZM56,312c0-2.45.053-4.9.141-7.359l44.049,17.171a82.441,82.441,0,0,0,55.567,1.8l38.724-12.35a66.662,66.662,0,0,1,42.648.631l32.445,11.382a82.545,82.545,0,0,0,52.806.776l43.362-13.829a66.858,66.858,0,0,1,37.18-1.037l51.066,13.27a8.012,8.012,0,0,0,2.012.25V344H56ZM32,456V384a24.028,24.028,0,0,1,24-24V480A24.028,24.028,0,0,1,32,456Zm448,0a24.028,24.028,0,0,1-24,24V360a24.028,24.028,0,0,1,24,24Z"/></svg>
