<svg id="Capa_1" enable-background="new 0 0 512 512" height="512" viewBox="0 0 512 512" width="512" xmlns="http://www.w3.org/2000/svg"><g><g><path d="m353.76 501.958h-215.752c-35.257 0-63.839-28.581-63.839-63.839v-279.591h343.43v279.591c0 35.257-28.582 63.839-63.839 63.839z" fill="#fff"/><path d="m369.514 158.528v240.444c0 30.321-24.58 54.9-54.9 54.9h-185.545c-30.321 0-54.9-24.58-54.9-54.9v39.147c0 35.257 28.581 63.839 63.839 63.839h215.752c35.257 0 63.839-28.581 63.839-63.839v-279.591z" fill="#e1bdfc"/><path d="m405.833 240.683h-320.399c-13.25 0-23.991-10.741-23.991-23.99v-54.441c0-13.249 10.741-23.99 23.991-23.99h320.399c13.25 0 23.991 10.741 23.991 23.99v54.441c-.001 13.249-10.742 23.99-23.991 23.99z" fill="#96b4eb"/><path d="m408.32 138.262h-25.36c11.876 0 21.503 9.627 21.503 21.502v32.274c0 11.876-9.627 21.503-21.503 21.503h-300.013c-11.876 0-21.503-9.627-21.503-21.503v27.143c0 11.875 9.627 21.503 21.503 21.503h325.373c11.876 0 21.503-9.628 21.503-21.503v-59.416c0-11.876-9.627-21.503-21.503-21.503z" fill="#8286ea"/><g fill="#f6e06e"><path d="m121.399 182.827h-.285c-12.922 0-23.398-10.475-23.398-23.398v-52.142c0-12.922 10.476-23.398 23.398-23.398h.285c12.922 0 23.398 10.476 23.398 23.398v52.142c0 12.923-10.475 23.398-23.398 23.398z"/><path d="m204.342 182.827c-13.001 0-23.54-10.539-23.54-23.54v-51.857c0-13.001 10.539-23.54 23.54-23.54 13.001 0 23.54 10.539 23.54 23.54v51.857c0 13.001-10.539 23.54-23.54 23.54z"/><path d="m287.569 182.827h-.285c-12.922 0-23.398-10.475-23.398-23.398v-52.142c0-12.922 10.476-23.398 23.398-23.398h.285c12.922 0 23.398 10.476 23.398 23.398v52.142c0 12.923-10.476 23.398-23.398 23.398z"/><path d="m370.653 182.827h-.285c-12.922 0-23.398-10.475-23.398-23.398v-52.142c0-12.922 10.476-23.398 23.398-23.398h.285c12.922 0 23.398 10.476 23.398 23.398v52.142c0 12.923-10.475 23.398-23.398 23.398z"/></g><path d="m444.681 2.643 8.871 24.944c.38 1.068 1.132 1.914 2.081 2.342l22.162 9.985c3.131 1.411 3.131 6.399 0 7.81l-22.162 9.985c-.949.428-1.701 1.274-2.081 2.342l-8.871 24.944c-1.253 3.524-5.685 3.524-6.939 0l-8.871-24.944c-.38-1.068-1.132-1.914-2.081-2.342l-22.162-9.985c-3.131-1.411-3.131-6.399 0-7.81l22.162-9.985c.949-.428 1.701-1.274 2.081-2.342l8.871-24.944c1.254-3.524 5.686-3.524 6.939 0z" fill="#c1e5ef"/><ellipse cx="103.756" cy="27.657" fill="#96b4eb" rx="14.343" ry="14.343" transform="matrix(.123 -.993 .993 .123 63.587 127.239)"/><circle cx="40.213" cy="76.95" fill="#96b4eb" r="8.356"/></g><g fill="#3c122c"><path d="m405.833 128.219h-1.739v-20.931c0-18.439-15.001-33.44-33.44-33.44h-.284c-18.439 0-33.441 15.002-33.441 33.441v20.931h-15.92v-20.931c0-18.439-15.001-33.441-33.44-33.441h-.284c-18.439 0-33.44 15.002-33.44 33.441v20.931h-15.92v-20.79c0-18.517-15.065-33.583-33.583-33.583-18.517 0-33.582 15.065-33.582 33.583v20.789h-15.92v-20.931c0-18.439-15.001-33.441-33.44-33.441h-.285c-18.439 0-33.44 15.002-33.44 33.441v20.931h-2.24c-18.766 0-34.033 15.267-34.033 34.033v54.441c0 10.705 4.973 20.267 12.726 26.51v194.917c0 40.738 33.142 73.881 73.881 73.881h215.751c40.738 0 73.881-33.143 73.881-73.881v-195.326c7.465-6.248 12.224-15.628 12.224-26.102v-54.441c.001-18.765-15.266-34.032-34.032-34.032zm-48.82-20.931c0-7.365 5.992-13.356 13.356-13.356h.284c7.365 0 13.356 5.991 13.356 13.355v52.142c0 7.365-5.991 13.356-13.356 13.356h-.285c-7.365 0-13.356-5.991-13.356-13.356v-52.141zm-83.084 0c0-7.365 5.991-13.356 13.355-13.356h.284c7.365 0 13.356 5.992 13.356 13.356v52.142c0 7.365-5.991 13.356-13.356 13.356h-.284c-7.365 0-13.355-5.991-13.355-13.356zm-83.085.142c0-7.443 6.055-13.498 13.498-13.498s13.498 6.055 13.498 13.498v51.857c0 7.442-6.055 13.498-13.498 13.498-7.442 0-13.498-6.055-13.498-13.498zm-83.085-.142c0-7.365 5.991-13.356 13.356-13.356h.285c7.365 0 13.356 5.992 13.356 13.356v52.142c0 7.365-5.991 13.356-13.356 13.356h-.285c-7.365 0-13.356-5.991-13.356-13.356zm-36.273 54.964c0-7.691 6.257-13.948 13.948-13.948h2.24v11.126c0 18.439 15.001 33.44 33.44 33.44h.285c18.439 0 33.44-15.001 33.44-33.44v-11.126h15.92v10.984c0 18.517 15.065 33.582 33.582 33.582 18.518 0 33.583-15.065 33.583-33.582v-10.984h15.92v11.126c0 18.439 15.001 33.44 33.44 33.44h.284c18.439 0 33.44-15.001 33.44-33.44v-11.126h15.92v11.126c0 18.439 15.001 33.44 33.44 33.44h.285c18.439 0 33.44-15.001 33.44-33.44v-11.126h1.739c7.691 0 13.948 6.257 13.948 13.948v54.441c0 7.691-6.257 13.948-13.948 13.948h-320.398c-7.691 0-13.948-6.257-13.948-13.948zm336.071 275.867c0 29.664-24.133 53.796-53.796 53.796h-215.753c-29.663 0-53.796-24.133-53.796-53.796v-187.425c.407.014.812.031 1.222.031h320.399c.578 0 1.153-.015 1.724-.044z"/><path d="m296.795 290.671h-26.194c-5.546 0-10.042 4.496-10.042 10.042s4.496 10.042 10.042 10.042h16.152v112.505c0 5.546 4.496 10.042 10.042 10.042s10.042-4.496 10.042-10.042v-122.546c0-5.547-4.496-10.043-10.042-10.043z"/><path d="m247.16 331.051c0-22.632-18.412-41.045-41.045-41.045-19.569 0-36.507 13.92-40.275 33.1-1.069 5.442 2.476 10.721 7.919 11.789 5.442 1.068 10.72-2.477 11.789-7.919 1.922-9.785 10.571-16.887 20.567-16.887 11.558 0 20.96 9.403 20.96 20.96s-9.403 20.96-20.96 20.96c-5.546 0-10.042 4.496-10.042 10.042s4.496 10.042 10.042 10.042c11.558 0 20.96 9.403 20.96 20.96s-9.403 20.96-20.96 20.96c-10.4 0-19.323-7.748-20.757-18.027-.134-.96-.202-1.947-.202-2.933 0-5.546-4.496-10.042-10.042-10.042s-10.042 4.496-10.042 10.042c0 1.913.133 3.836.396 5.711 2.811 20.143 20.286 35.333 40.649 35.333 22.633 0 41.045-18.412 41.045-41.044 0-12.371-5.508-23.471-14.192-31.003 8.681-7.528 14.19-18.629 14.19-30.999z"/></g></g></svg>