<svg id="Capa_1" enable-background="new 0 0 511.963 511.963" height="512" viewBox="0 0 511.963 511.963" width="512" xmlns="http://www.w3.org/2000/svg"><g><path d="m431.442 220.829-210.613 210.613c-19.605 19.605-51.39 19.605-70.994 0l-66.307-66.307c-19.605-19.605-19.605-51.39 0-70.994l210.612-210.614c19.605-19.605 51.39-19.605 70.994 0l66.307 66.307c19.605 19.605 19.605 51.39.001 70.995z" fill="#dd636e"/><path d="m294.14 83.527-20.188 20.188c19.605-19.605 51.39-19.605 70.994 0l66.307 66.307c19.605 19.605 19.605 51.39 0 70.994l20.188-20.188c19.605-19.605 19.605-51.39 0-70.994l-66.307-66.307c-19.604-19.604-51.389-19.605-70.994 0z" fill="#da4a54"/><g fill="#78c2a4"><path d="m426.379 144.771c26.421-6.532 50.121-15.649 69.761-28.624 4.19-2.768 7.075-7.119 8.004-12.053 2.047-10.876-5.825-21.112-16.862-21.924l-19.615-1.444c-3.719-.274-5.962-4.243-4.277-7.57l6.656-13.142c5.688-11.231 2.588-24.87-7.301-32.661-10.205-8.04-21.404-14.156-33.564-18.412-12.815-4.485-26.983 1.592-32.574 13.966-9.929 21.974-16.007 46.488-19.17 72.923z"/><path d="m144.772 426.379c-6.532 26.421-15.649 50.121-28.624 69.761-2.768 4.19-7.119 7.075-12.053 8.004-10.876 2.047-21.112-5.825-21.924-16.862l-1.444-19.615c-.274-3.719-4.243-5.962-7.57-4.277l-13.142 6.656c-11.231 5.688-24.87 2.588-32.661-7.301-8.04-10.205-14.156-21.404-18.412-33.564-4.485-12.815 1.592-26.983 13.966-32.574 21.974-9.929 46.488-16.007 72.923-19.17z"/><g><path d="m107.879 269.789-24.352 24.351c-5.761 5.761-9.815 12.578-12.191 19.825 28.057 19.255 102.091 61.716 207.055 59.915l48.253-48.253c-107.832 6.63-185.727-34.269-218.765-55.838z"/><path d="m220.639 157.028-41.388 41.388c33.138 21.608 111.058 62.433 218.863 55.741l33.328-33.329c4.531-4.531 8.001-9.716 10.437-15.247-104.354 9.838-182.336-25.308-221.24-48.553z"/></g></g><path d="m506.564 84.785c-4.517-5.872-11.344-9.551-18.731-10.095l-16.209-1.193 5.112-10.095c7.253-14.32 3.32-31.959-9.351-41.941-10.754-8.472-22.775-15.066-35.728-19.6-16.349-5.722-34.75 2.165-41.887 17.957-8.109 17.948-13.918 37.727-17.639 60.099l-1.694-1.694c-10.898-10.897-25.389-16.899-40.801-16.899s-29.902 6.002-40.801 16.899l-73.497 73.497c-.001.001-.003.002-.004.004l-41.389 41.389c-.003.003-.006.007-.009.01l-71.359 71.359c-.001.001-.003.002-.005.004l-24.35 24.351c-10.805 10.805-16.901 25.319-16.901 40.801 0 15.412 6.002 29.902 16.9 40.801l1.694 1.694c-22.376 3.721-42.154 9.53-60.1 17.639-15.792 7.136-23.679 25.534-17.956 41.886 4.534 12.956 11.129 24.977 19.6 35.729 9.982 12.671 27.622 16.603 41.941 9.351l10.095-5.112 1.193 16.207c.543 7.389 4.223 14.216 10.095 18.733 4.584 3.525 10.187 5.398 15.887 5.398 1.603 0 3.212-.148 4.809-.449 6.895-1.297 13.062-5.394 16.925-11.24 10.868-16.451 19.526-36.086 26.332-59.718 10.598 8.707 23.593 13.063 36.594 13.063 14.774 0 29.554-5.625 40.802-16.872l210.612-210.613c20.9-20.908 22.603-54.518 3.808-77.396 23.635-6.807 43.27-15.464 59.718-26.332 5.846-3.86 9.943-10.028 11.242-16.924 1.373-7.282-.432-14.826-4.948-20.698zm-207.12 4.046c8.324-8.325 19.259-12.487 30.193-12.487s21.869 4.162 30.193 12.487c7.085 7.085 58.496 58.496 66.308 66.308 11.718 11.717 15.177 28.603 10.4 43.384-93.52 7.656-165.003-21.602-203.678-43.108zm126.694 126.694-31.31 31.311c-45.106 2.465-89.442-3.277-131.825-17.068-30.908-10.056-55.182-22.6-71.802-32.693l30.649-30.649c38.014 21.78 110.262 53.02 205.565 47.757-.416.452-.838.903-1.277 1.342zm-102.754 102.755c-45.121 2.437-89.462-3.308-131.844-17.128-30.881-10.07-55.118-22.612-71.714-32.703l60.472-60.472c17.406 10.85 43.87 24.928 78.064 36.054 37.521 12.208 76.495 18.358 116.181 18.358 1.588 0 3.178-.017 4.768-.037zm-214.461-38.928c17.38 10.846 43.806 24.922 77.966 36.061 39.021 12.725 79.617 18.914 120.956 18.406l-32.602 32.602c-72.502.642-141.829-20.827-194.696-55.317 4.982-10.393 11.468-14.063 28.376-31.752zm.967 212.654c-1.638 2.479-4.256 4.216-7.184 4.768-3.137.591-6.25-.156-8.775-2.1-2.527-1.943-4.047-4.764-4.281-7.943l-1.444-19.614c-.312-4.254-2.716-8.046-6.43-10.145-1.943-1.098-4.099-1.649-6.258-1.649-1.967 0-3.937.458-5.75 1.376l-13.143 6.656c-7.972 4.035-17.803 1.828-23.382-5.252-7.443-9.447-13.238-20.012-17.224-31.4-3.178-9.08 1.203-19.298 9.974-23.261 19.538-8.829 41.528-14.764 67.126-18.107l12.923 12.923c-.299.299-.593.604-.884.915-.532.49-1.102.974-1.716 1.429-4.522 3.353-8.779 3.607-13.803.827-3.625-2.008-8.188-.694-10.194 2.929-2.006 3.624-.694 8.188 2.929 10.194 4.745 2.627 9.321 3.727 13.605 3.727.247 0 .486-.026.731-.033-.134 4.498.929 9.33 3.708 14.351 1.369 2.473 3.929 3.869 6.568 3.868 1.229 0 2.475-.302 3.626-.939 3.623-2.006 4.935-6.57 2.929-10.194-2.725-4.921-2.533-9.09.618-13.517.519-.728 1.079-1.403 1.649-2.02.306-.286.613-.571.906-.865l19.739 19.74c-6.688 25.678-15.395 46.432-26.563 63.336zm105.637-65.868c-16.65 16.65-43.74 16.65-60.389 0-7.92-7.92-57.476-57.476-66.308-66.308-8.065-8.064-12.507-18.788-12.507-30.193 0-1.122.055-2.234.141-3.341 31.236 19.634 95.953 52.281 183.948 54.957zm281.247-323.432c-.552 2.928-2.29 5.546-4.769 7.184-16.903 11.167-37.656 19.874-63.338 26.563l-19.74-19.74c.298-.298.593-.603.883-.914.532-.49 1.103-.975 1.717-1.43 4.522-3.353 8.779-3.608 13.803-.827 3.625 2.008 8.188.694 10.194-2.929 2.006-3.624.694-8.188-2.929-10.194-5.016-2.777-9.843-3.841-14.336-3.709.131-4.494-.932-9.32-3.708-14.335-2.006-3.623-6.569-4.937-10.194-2.929-3.623 2.006-4.935 6.57-2.929 10.194 2.725 4.921 2.534 9.09-.618 13.517-.505.709-1.05 1.366-1.604 1.97-.324.302-.64.607-.95.917l-12.922-12.922c3.344-25.595 9.278-47.584 18.106-67.124 3.964-8.771 14.181-13.154 23.263-9.976 11.386 3.984 21.95 9.78 31.4 17.225 7.079 5.577 9.288 15.41 5.252 23.381l-6.657 13.144c-1.926 3.805-1.824 8.293.273 12.006 2.098 3.714 5.89 6.118 10.145 6.432l19.615 1.443c3.179.234 6 1.755 7.943 4.281s2.689 5.64 2.1 8.772z"/></g></svg>