<svg id="Capa_1" enable-background="new 0 0 512 512" height="512" viewBox="0 0 512 512" width="512" xmlns="http://www.w3.org/2000/svg"><g><g><path clip-rule="evenodd" d="m197.448 59.265c-13.117 31.662-5.63 69.306 35.322 69.306 40.923 0 48.411-37.643 35.293-69.306-7.658-18.424-20.147-36.396-35.293-49.265-15.175 12.869-27.663 30.841-35.322 49.265z" fill="#ffcd69" fill-rule="evenodd"/></g><g><path clip-rule="evenodd" d="m160.726 160.602 144.06 42.717v-55.926c0-10.346-8.545-18.822-18.976-18.822h-53.04-53.069c-10.431 0-18.976 8.475-18.976 18.822v13.209z" fill="#ff7b79" fill-rule="evenodd"/></g><g><path clip-rule="evenodd" d="m160.726 212.73 144.06 42.717v-52.128l-144.06-42.717z" fill="#a0e5a5" fill-rule="evenodd"/></g><g><path clip-rule="evenodd" d="m160.726 267.098 144.06 42.689v-54.34l-144.06-42.717z" fill="#ff7b79" fill-rule="evenodd"/></g><g><path clip-rule="evenodd" d="m160.726 319.226 144.06 42.717v-52.156l-144.06-42.689z" fill="#a0e5a5" fill-rule="evenodd"/></g><g><path clip-rule="evenodd" d="m160.726 319.226v74.748h144.06v-32.031z" fill="#ff7b79" fill-rule="evenodd"/></g><g><path clip-rule="evenodd" d="m115.287 419.429v25.455h234.937v-25.455c0-14.003-11.545-25.455-25.663-25.455h-19.776-144.06-19.775c-14.117 0-25.663 11.452-25.663 25.455z" fill="#fff" fill-rule="evenodd"/></g><g><path clip-rule="evenodd" d="m100.141 502h265.23c50.84 0 60.156-29.083 71.216-57.117h-37.265-49.096-234.939-86.362c11.06 28.034 20.376 57.117 71.216 57.117z" fill="#ffe6b4" fill-rule="evenodd"/></g><g><path d="m472.416 358.315c-15.537-8.742-41.471-8.985-63.424 19.094-12.659 16.176-15.605 35.367-18.464 57.475h-30.304v-15.455c0-19.55-15.998-35.455-35.662-35.455h-9.776v-236.581c0-15.893-12.998-28.822-28.976-28.822h-10.654c.084-.123.171-.247.253-.369 10.621-15.896 11.347-39.946 1.89-62.775-8.586-20.654-22.101-39.493-38.054-53.047-3.729-3.17-9.208-3.174-12.942-.006-15.97 13.543-29.496 32.384-38.093 53.064-9.452 22.814-8.727 46.86 1.894 62.755.084.125.173.252.259.377h-10.66c-15.978 0-28.976 12.929-28.976 28.822v236.581h-9.776c-19.664 0-35.662 15.905-35.662 35.455v15.455h-76.364c-3.31 0-6.405 1.638-8.268 4.374s-2.249 6.217-1.035 9.296l1.269 3.23c10.505 26.829 23.579 60.217 79.25 60.217h87.333c5.522 0 10-4.477 10-10s-4.478-10-10-10h-87.333c-36.36 0-47.405-15.693-56.455-37.117h378.14c-9.05 21.424-20.095 37.117-56.455 37.117h-87.333c-5.522 0-10 4.477-10 10s4.478 10 10 10h87.333c54.049 0 67.947-31.471 78.324-57.855 21.754-4.444 40.155-28.168 46.427-44.731 7.547-19.975.267-40.988-17.706-51.099zm-265.734-295.211c6.091-14.653 15.377-28.635 26.082-39.466 10.698 10.838 19.978 24.819 26.062 39.455 6.824 16.472 6.806 33.743-.047 43.999-5.09 7.618-13.84 11.48-26.009 11.48-12.184 0-20.943-3.865-26.037-11.489-6.851-10.255-6.869-27.521-.051-43.979zm-35.956 84.289c0-4.864 4.026-8.822 8.976-8.822h106.108c4.949 0 8.976 3.958 8.976 8.822v42.531l-124.06-36.787zm0 26.605 124.06 36.787v31.267l-124.06-36.787zm0 52.128 124.06 36.787v33.481l-124.06-36.762zm0 54.365 124.06 36.762v31.294l-124.06-36.787zm0 52.13 124.06 36.787v14.566h-124.06zm169.498 102.262h-214.936v-15.455c0-8.521 7.026-15.455 15.662-15.455h183.612c8.636 0 15.662 6.933 15.662 15.455zm131.191-32.545c-5.699 15.05-22.155 32.545-34.829 32.545h-25.89c2.533-19.283 5.04-33.641 14.049-45.152 14.128-18.069 28.823-19.071 37.864-13.985 7.489 4.212 13.438 14.333 8.806 26.592z"/><path d="m232.77 492c-5.522 0-10 4.477-10 10s4.478 10 10 10h.028c5.522 0 9.986-4.477 9.986-10s-4.492-10-10.014-10z"/></g></g></svg>