<svg height="512" viewBox="0 0 512 512" width="512" xmlns="http://www.w3.org/2000/svg"><g id="Flat"><path d="m248 320-40 120 32-16 16 24 24-120z" fill="#8da662"/><path d="m248 320-120 40 16-32-24-16 120-24z" fill="#8da662"/><path d="m320 24a115.882 115.882 0 0 0 -81.941 33.941l-30.059 30.059a28.286 28.286 0 0 0 -8.284 20 28.284 28.284 0 0 0 28.284 28.284 28.286 28.286 0 0 0 20-8.284l34-34a53.74 53.74 0 0 1 76 0 53.74 53.74 0 0 1 0 76l-269.716 269.716a28.284 28.284 0 0 0 -8.284 20 28.284 28.284 0 0 0 28.284 28.284 28.284 28.284 0 0 0 20-8.284l273.657-273.657a102.626 102.626 0 0 0 30.059-72.569v-2.98a102.626 102.626 0 0 0 -30.059-72.569 115.882 115.882 0 0 0 -81.941-33.941z" fill="#dfdfdd"/><g fill="#d64a34"><path d="m176 352v80l-47.72 47.72c-.09.09-.19.18-.28.27v-79.99z"/><path d="m272 256v80l-48 48v-80z"/><path d="m368 156.18v83.82l-48 48v-80l38-38a53.466 53.466 0 0 0 10-13.82z"/><path d="m432 130.51v2.98a102.405 102.405 0 0 1 -6.62 36.25l-54.02-21.9a53.783 53.783 0 0 0 -12.16-52.6l71.27 17.64a102.438 102.438 0 0 1 1.53 17.63z"/><path d="m398.92 55.04-44.05 36.07a53.753 53.753 0 0 0 -59.76-6.75l52.32-57.06a115.665 115.665 0 0 1 51.49 27.74z"/><path d="m280 31.13v64.87l-32 32a28.213 28.213 0 0 1 -16 7.99v-71.99l6.06-6.06a115.858 115.858 0 0 1 41.94-26.81z"/></g><path d="m237.373 279.716h45.255v56.569h-45.255z" fill="#96b268" transform="matrix(.707 -.707 .707 .707 -141.637 274.059)"/><path d="m256 272h-36.686a27.314 27.314 0 0 1 -27.314-27.314v-1.372a27.315 27.315 0 0 1 8-19.314l-31.716 31.716a28.284 28.284 0 0 0 -8.284 20 28.284 28.284 0 0 0 28.284 28.284h35.716z" fill="#7f9954"/><path d="m224 304v-36.686a27.314 27.314 0 0 0 -27.314-27.314h-1.372a27.315 27.315 0 0 0 -19.314 8l31.716-31.716a28.284 28.284 0 0 1 20-8.284 28.284 28.284 0 0 1 28.284 28.284v35.716z" fill="#8da662"/><path d="m296 312v36.686a27.314 27.314 0 0 0 27.314 27.314h1.372a27.315 27.315 0 0 0 19.314-8l-31.716 31.716a28.284 28.284 0 0 1 -20 8.284 28.284 28.284 0 0 1 -28.284-28.284v-35.716z" fill="#7f9954"/><path d="m264 344h36.686a27.314 27.314 0 0 1 27.314 27.314v1.372a27.315 27.315 0 0 1 -8 19.314l31.716-31.716a28.284 28.284 0 0 0 8.284-20 28.284 28.284 0 0 0 -28.284-28.284h-35.716z" fill="#8da662"/></g></svg>