<?xml version="1.0" encoding="iso-8859-1"?>
<!-- Generator: Adobe Illustrator 19.0.0, SVG Export Plug-In . SVG Version: 6.00 Build 0)  -->
<svg version="1.1" id="Capa_1" xmlns="http://www.w3.org/2000/svg" xmlns:xlink="http://www.w3.org/1999/xlink" x="0px" y="0px"
	 viewBox="0 0 512 512" style="enable-background:new 0 0 512 512;" xml:space="preserve">
<path style="fill:#A86B5A;" d="M258.724,8.171l16.34,98.042h32.681V57.192C307.745,30.118,285.798,8.171,258.724,8.171z"/>
<path style="fill:#BE9083;" d="M258.724,8.171c-17.974,0-33.68,9.679-42.213,24.103c-8.533-14.424-24.238-24.103-42.213-24.103
	s-33.68,9.679-42.213,24.103C123.553,17.85,107.848,8.171,89.873,8.171c-27.074,0-49.021,21.947-49.021,49.021v49.021h234.212
	V57.192C275.064,30.118,267.748,8.171,258.724,8.171z"/>
<path style="fill:#992A2A;" d="M356.766,122.553h-16.34V68.086h-32.681l-32.681,435.744h32.681
	c17.974,0,32.681-14.706,32.681-32.681v-54.468h16.34c81.222,0,147.064-65.842,147.064-147.064S437.988,122.553,356.766,122.553z
	 M356.766,373.106h-16.34V166.128h16.34c57.155,0,103.489,46.334,103.489,103.489S413.922,373.106,356.766,373.106z"/>
<path style="fill:#DF3333;" d="M307.745,471.148V68.086H8.171v403.063c0,17.974,14.706,32.681,32.681,32.681h234.212
	C293.039,503.829,307.745,489.123,307.745,471.148z"/>
<g>
	<path style="fill:#FFFFFF;" d="M8.179,206.98c-2.796,0-5.52-1.436-7.044-4.019c-2.293-3.886-1.002-8.896,2.884-11.189L59.4,159.092
		c2.562-1.513,5.742-1.513,8.304,0l51.228,30.23l51.222-30.23c2.562-1.513,5.743-1.513,8.305,0l51.223,30.23l51.218-30.23
		c2.564-1.513,5.742-1.513,8.306,0l55.372,32.681c3.885,2.293,5.177,7.303,2.882,11.189c-2.293,3.887-7.301,5.176-11.189,2.882
		l-51.219-30.23l-51.22,30.23c-2.562,1.513-5.743,1.513-8.305,0l-51.223-30.23l-51.221,30.23c-2.562,1.513-5.743,1.513-8.305,0
		l-51.226-30.229l-51.229,30.23C11.02,206.614,9.591,206.98,8.179,206.98z"/>
	<path style="fill:#FFFFFF;" d="M8.179,272.341c-2.796,0-5.52-1.436-7.044-4.019c-2.293-3.886-1.002-8.896,2.884-11.189
		L59.4,224.453c2.562-1.513,5.742-1.513,8.304,0l51.228,30.23l51.222-30.23c2.562-1.513,5.743-1.513,8.305,0l51.223,30.23
		l51.222-30.23c2.56-1.513,5.742-1.513,8.305,0l55.371,32.681c3.885,2.293,5.177,7.303,2.882,11.189s-7.301,5.177-11.189,2.882
		l-51.218-30.23l-51.221,30.23c-2.562,1.513-5.743,1.513-8.305,0l-51.223-30.23l-51.221,30.23c-2.562,1.513-5.743,1.513-8.305,0
		l-51.229-30.23l-51.228,30.23C11.02,271.975,9.591,272.341,8.179,272.341z"/>
</g>
<path d="M356.766,114.383h-8.17V68.086c0-4.513-3.657-8.17-8.17-8.17h-24.511v-2.723c0-31.535-25.657-57.191-57.191-57.191
	c-16.142,0-31.48,6.936-42.213,18.637C205.78,6.936,190.442,0.001,174.299,0.001c-16.142,0-31.48,6.936-42.213,18.637
	C121.355,6.936,106.016,0.001,89.873,0.001c-31.536,0-57.191,25.657-57.191,57.191v2.723H8.171c-4.512,0-8.17,3.657-8.17,8.17
	v403.063c0,22.526,18.325,40.851,40.851,40.851h266.893c22.526,0,40.851-18.325,40.851-40.851v-46.298h8.17
	c85.596,0,155.234-69.637,155.234-155.234S442.363,114.383,356.766,114.383z M49.022,57.192c0-22.526,18.325-40.851,40.851-40.851
	c14.369,0,27.848,7.699,35.181,20.092c1.471,2.486,4.144,4.011,7.032,4.011s5.561-1.524,7.032-4.011
	c7.331-12.394,20.812-20.092,35.181-20.092s27.848,7.699,35.181,20.092c1.471,2.486,4.144,4.011,7.032,4.011
	s5.561-1.524,7.032-4.011c7.331-12.394,20.812-20.092,35.181-20.092c22.526,0,40.851,18.325,40.851,40.851v2.723H49.022
	C49.022,59.915,49.022,57.192,49.022,57.192z M356.766,408.51h-16.34c-4.513,0-8.17,3.657-8.17,8.17v54.468
	c0,13.515-10.996,24.511-24.511,24.511H40.852c-13.516,0-24.511-10.996-24.511-24.511V76.256h315.914v46.298
	c0,4.513,3.657,8.17,8.17,8.17h16.34c76.586,0,138.893,62.307,138.893,138.893S433.353,408.51,356.766,408.51z"/>
<path d="M356.766,157.958h-16.34c-4.513,0-8.17,3.657-8.17,8.17v141.617c0,4.513,3.657,8.17,8.17,8.17c4.513,0,8.17-3.657,8.17-8.17
	V174.298h8.17c52.559,0,95.319,42.76,95.319,95.319s-42.76,95.319-95.319,95.319h-8.17v-24.511c0-4.513-3.657-8.17-8.17-8.17
	c-4.513,0-8.17,3.657-8.17,8.17v32.681c0,4.513,3.657,8.17,8.17,8.17h16.34c61.57,0,111.659-50.09,111.659-111.659
	S418.336,157.958,356.766,157.958z"/>
<g>
</g>
<g>
</g>
<g>
</g>
<g>
</g>
<g>
</g>
<g>
</g>
<g>
</g>
<g>
</g>
<g>
</g>
<g>
</g>
<g>
</g>
<g>
</g>
<g>
</g>
<g>
</g>
<g>
</g>
</svg>
