<svg height="512" viewBox="0 0 512 512" width="512" xmlns="http://www.w3.org/2000/svg"><g id="filled_outline" data-name="filled outline"><path d="m307.628 106.72a23.937 23.937 0 0 1 -10.142-2.268l-14.5-6.772a8 8 0 0 1 -3.862-10.634l6.771-14.5a23.983 23.983 0 1 1 21.73 34.17zm-10.619-20.151 7.249 3.387a8 8 0 1 0 -3.858-10.634z" fill="#cb2527"/><path d="m286.37 98.434a7.978 7.978 0 0 1 -3.381-.753l-14.5-6.771a24 24 0 1 1 31.9-11.588l-6.772 14.5a8 8 0 0 1 -7.247 4.612zm-7.708-37.269a8 8 0 0 0 -3.4 15.248l7.248 3.385 3.39-7.248a8 8 0 0 0 -7.236-11.385z" fill="#cb2527"/><path d="m224 152h-32a8 8 0 0 1 -8-8v-104a24 24 0 0 1 48 0v104a8 8 0 0 1 -8 8zm-24-16h16v-96a8 8 0 0 0 -16 0z" fill="#b22122"/><path d="m278.974 333.119 46.982-100.583-144.966-67.713-84.64 181.207a56 56 0 0 0 27.038 74.437l134.093 62.633a52 52 0 0 0 69.119-25.106l1.438-3.08a52 52 0 0 0 -14.338-62.376l-25.9-21.033a32 32 0 0 1 -8.826-38.386z" fill="#cb2527"/><path d="m328.04 454.91-1.44 3.08a52 52 0 0 1 -69.12 25.11l-32.62-15.23 14.12-30.22a82.406 82.406 0 0 1 66.14-47.08l5.81-.28 2.77 2.25a51.984 51.984 0 0 1 14.34 62.37z" fill="#cb2527"/><path d="m165.95 391.26a61.634 61.634 0 0 1 -5.79 26.09l-7.78 16.66h-.01l-28.98-13.54a56.005 56.005 0 0 1 -27.04-74.44l10.15-21.73.01-.01 23.9 11.16a61.581 61.581 0 0 1 35.54 55.81z" fill="#cb2527"/><path d="m274.206 285.766-11.2-9.41 9.409-11.2a8 8 0 1 0 -12.25-10.292l-12.335 14.681-.338-3.888a8 8 0 0 0 -4.584-6.556l-3.535-1.651 18.027-6.55a8 8 0 1 0 -5.462-15.039l-13.749 4.994-4.994-13.748a8 8 0 0 0 -15.039 5.462l6.544 18.031-3.534-1.651a8 8 0 0 0 -7.97.692l-3.2 2.236 3.342-18.882a8 8 0 0 0 -15.756-2.788l-2.549 14.4-14.4-2.548a8 8 0 1 0 -2.789 15.754l18.882 3.342-3.2 2.236a8 8 0 0 0 -3.385 7.248l.337 3.887-14.678-12.335a8 8 0 1 0 -10.293 12.25l11.2 9.409-9.41 11.2a8 8 0 1 0 12.25 10.293l12.335-14.68.338 3.886a8 8 0 0 0 4.584 6.557l3.535 1.651-18.026 6.543a8 8 0 1 0 5.463 15.038l13.748-4.994 5 13.749a8 8 0 0 0 15.039-5.463l-6.547-18.022 3.535 1.651a8 8 0 0 0 7.97-.693l3.2-2.235-3.342 18.881a8 8 0 1 0 15.748 2.788l2.549-14.4 14.4 2.549a8 8 0 1 0 2.789-15.755l-18.881-3.342 3.2-2.236a8 8 0 0 0 3.385-7.248l-.337-3.887 14.68 12.335a8 8 0 1 0 10.293-12.25zm-53.073 9.044-13.376-6.247-1.278-14.707 12.1-8.46 13.375 6.248 1.277 14.707z" fill="#cdccc8"/><g fill="#e6e5e0"><path d="m427.478 147.511-10.157 21.745-28.993-13.543 10.157-21.745a16 16 0 0 0 -7.725-21.268 16 16 0 0 0 -21.268 7.725l-23.7 50.738-28.992-13.542 23.7-50.738a48 48 0 0 1 63.8-23.176 48 48 0 0 1 23.178 63.804z"/><path d="m352.62 156.53-6.83 14.63-4.13-1.93-17.22-27.95v-.01l7.71-16.52a7.82 7.82 0 0 1 2.43 2.49z"/><path d="m369.82 119.76c-.11.22-.22.44-.33.67l-7.71 16.5-20.34-31.95a47.97 47.97 0 0 1 10.4-13.45z"/><path d="m427.49 147.49c0 .01-.01.01-.01.02l-8.02 17.16-20.42-32.07a16 16 0 0 0 -13.59-21.34l-15.29-24.01a7.927 7.927 0 0 1 -1.14-5.66 48.162 48.162 0 0 1 14.97-2.4z"/></g><path d="m352.62 156.53-6.83 14.63-4.13-1.93-17.22-27.95v-.01l7.71-16.52a7.82 7.82 0 0 1 2.43 2.49z" fill="#ec9da8"/><path d="m369.82 119.76c-.11.22-.22.44-.33.67l-7.71 16.5-20.34-31.95a47.97 47.97 0 0 1 10.4-13.45z" fill="#ec9da8"/><path d="m427.49 147.49c0 .01-.01.01-.01.02l-8.02 17.16-20.42-32.07a16 16 0 0 0 -13.59-21.34l-15.29-24.01a7.927 7.927 0 0 1 -1.14-5.66 48.162 48.162 0 0 1 14.97-2.4z" fill="#ec9da8"/><path d="m227.843 89.87h104v48h-104z" fill="#eeb436" transform="matrix(-.906 -.423 .423 -.906 485.199 335.47)"/><path d="m266.057 141.924a8 8 0 0 1 -7.244-11.388l20.314-43.49a8 8 0 0 1 14.5 6.772l-20.313 43.49a8 8 0 0 1 -7.257 4.616z" fill="#cb2527"/><path d="m165.95 391.26a61.634 61.634 0 0 1 -5.79 26.09l-7.78 16.66h-.01l-28.98-13.54a56.005 56.005 0 0 1 -27.04-74.44l10.15-21.73.01-.01 23.9 11.16a61.581 61.581 0 0 1 35.54 55.81z" fill="#b22122"/><path d="m185.016 137.686h164a6 6 0 0 1 6 6v54a4 4 0 0 1 -4 4h-168a4 4 0 0 1 -4-4v-54a6 6 0 0 1 6-6z" fill="#eae9e4" transform="matrix(.906 .423 -.423 .906 96.902 -97.057)"/><path d="m328.04 454.91-1.44 3.08a52 52 0 0 1 -69.12 25.11l-32.62-15.23 14.12-30.22a82.406 82.406 0 0 1 66.14-47.08l5.81-.28 2.77 2.25a51.984 51.984 0 0 1 14.34 62.37z" fill="#b22122"/><path d="m165.505 274.441 11.2 9.409-9.41 11.2a8 8 0 1 0 12.25 10.293l12.335-14.68.338 3.886a8 8 0 0 0 4.584 6.557l3.535 1.651-18.024 6.543a8 8 0 1 0 5.463 15.038l13.748-4.994 5 13.749a8 8 0 0 0 15.039-5.463l-6.547-18.022 3.535 1.651a8 8 0 0 0 7.97-.693l3.2-2.235-3.342 18.881a8 8 0 1 0 15.748 2.788l2.549-14.4 14.4 2.549a8 8 0 1 0 2.789-15.755l-18.881-3.342 3.2-2.236a8 8 0 0 0 3.385-7.248l-.337-3.887 14.68 12.335a8 8 0 1 0 10.293-12.25l-11.2-9.41 9.409-11.2a8 8 0 1 0 -12.25-10.292l-12.335 14.681-.338-3.888a8 8 0 0 0 -4.584-6.556l-3.535-1.651 18.028-6.55a8 8 0 1 0 -5.462-15.039l-13.749 4.994-4.994-13.748a8 8 0 0 0 -15.039 5.462l6.544 18.031-3.534-1.651a8 8 0 0 0 -7.97.692l-3.2 2.236 3.342-18.882a8 8 0 0 0 -15.756-2.788l-2.549 14.4-14.4-2.548a8 8 0 1 0 -2.789 15.754l18.882 3.342-3.2 2.236a8 8 0 0 0 -3.385 7.248l.337 3.887-14.678-12.335a8 8 0 1 0 -10.293 12.25zm53.073-9.045 13.375 6.248 1.277 14.707-12.1 8.459-13.376-6.247-1.278-14.707z"/><path d="m120 427.715 134.1 62.635a60.011 60.011 0 0 0 79.754-28.971l1.438-3.079a59.912 59.912 0 0 0 -16.543-71.973l-25.909-21.034a23.965 23.965 0 0 1 -6.618-28.789l43.887-93.958c.385.038.77.064 1.157.064a12.034 12.034 0 0 0 10.879-6.928l22.855-48.926a14 14 0 0 0 -6.76-18.608l-1.812-.846 20.314-43.491a8 8 0 0 1 14.5 6.772l-10.162 21.745a8 8 0 0 0 3.862 10.634l28.994 13.538a8 8 0 0 0 10.633-3.862l10.158-21.738a56 56 0 1 0 -101.476-47.4l-8.507-3.974a23.978 23.978 0 0 0 -24.044-39.776 23.98 23.98 0 0 0 -45.929 7.088l-8.5-3.968a8 8 0 0 0 -10.633 3.862l-3.638 7.788v-34.52a24 24 0 0 0 -48 0v80.573l-15.814 33.856a12.01 12.01 0 0 0 2.467 13.622l-81.553 174.593a64.071 64.071 0 0 0 30.9 85.071zm293.459-269.093-14.5-6.771 5.221-11.177 10.187 16zm-12.542-67.666a40.053 40.053 0 0 1 21.245 48.163l-32.849-51.579a40.081 40.081 0 0 1 11.604 3.416zm-94.973 307.567a7.927 7.927 0 0 0 1.894-.442l.822.668a43.934 43.934 0 0 1 12.132 52.78l-1.438 3.079a44.051 44.051 0 0 1 -58.487 21.246l-25.367-11.854 10.729-22.971a74.767 74.767 0 0 1 59.715-42.506zm64.388-308.923c.362-.132.727-.246 1.091-.367l9.053 14.216a24.21 24.21 0 0 0 -4.681 1.189 23.831 23.831 0 0 0 -10.669 7.744l-8.908-13.982a39.877 39.877 0 0 1 14.114-8.8zm-23.832 23.33 10.188 16-8.9 19.058-10.187-16zm-16.928 36.241 5.065 7.954-7.207-3.367zm-29.172-69.849a8 8 0 1 1 3.869 10.636l-7.255-3.389zm-10.157 21.744 36.241 16.928-13.542 28.993-36.242-16.928zm-18.843-35.287a8 8 0 1 1 14.5 6.771l-3.387 7.25-4.832-2.257-2.416-1.128a8.01 8.01 0 0 1 -3.865-10.636zm-24.652 14.973 28.993 13.548-13.541 28.988-28.993-13.543zm-46.748-40.752a8 8 0 0 1 16 0v61.708l-6.352-2.966a13.928 13.928 0 0 0 -9.648-.794zm4.69 74.085 144.965 67.715-20.314 43.489-144.965-67.714zm-19.837 61.372 130.469 60.943-43.6 93.335a39.939 39.939 0 0 0 11.029 47.981l8.826 7.166a90.923 90.923 0 0 0 -59.851 49.381l-10.726 22.97-57.987-27.086 4.4-9.411a69.612 69.612 0 0 0 -33.613-92.536l-16.66-7.782zm-81.253 173.959 6.771-14.5 16.659 7.781a53.616 53.616 0 0 1 25.887 71.264l-4.4 9.412-21.746-10.157a48.053 48.053 0 0 1 -23.171-63.8z"/></g></svg>