<svg id="Capa_1" enable-background="new 0 0 512 512" height="512" viewBox="0 0 512 512" width="512" xmlns="http://www.w3.org/2000/svg"><g><g><path d="m447.651 87.415h-41.84c-14.223 0-25.752 11.529-25.752 25.752v.706c0 13.057 9.72 23.837 22.318 25.517v71.024c-33.304-44.975-86.748-74.136-147.009-74.136-60.251 0-113.688 29.152-146.993 74.115v-71.105c12.43-2.001 21.925-12.773 21.925-25.768 0-14.417-11.687-26.105-26.105-26.105h-39.494c-14.417 0-26.105 11.688-26.105 26.105 0 12.994 9.496 23.767 21.925 25.768v362.624h47.853v-74.114c33.305 44.962 86.742 74.114 146.993 74.114 60.26 0 113.705-29.161 147.009-74.136v74.136h48.709v-362.522c12.598-1.68 22.318-12.46 22.318-25.517v-.706c0-14.222-11.529-25.752-25.752-25.752z" fill="#f6e06e"/><path d="m217.154 135.16h73.83c10.194 0 18.458-8.264 18.458-18.457 0-10.194-8.264-18.458-18.458-18.458h-9.791c.183-1.279.283-2.585.283-3.915 0-15.136-12.271-27.407-27.407-27.407s-27.407 12.271-27.407 27.407c0 1.33.1 2.636.283 3.915h-9.791c-10.194 0-18.458 8.264-18.458 18.458 0 10.193 8.264 18.457 18.458 18.457z" fill="#f6e06e"/><path d="m255.368 136.279c-5.59 0-11.118.265-16.58.756 76.299 7.613 135.879 71.998 135.879 150.302 0 83.427-67.631 151.058-151.058 151.058-78.304 0-142.688-59.58-150.302-135.879-.491 5.462-.756 10.99-.756 16.58 0 100.967 81.85 182.816 182.816 182.816s182.816-81.85 182.816-182.816-81.848-182.817-182.815-182.817z" fill="#dda86a"/><ellipse cx="255.368" cy="319.095" fill="#faf1a9" rx="145.239" ry="145.239" transform="matrix(.707 -.707 .707 .707 -150.839 274.033)"/><path d="m355.78 214.162c12.028 21.68 18.887 46.624 18.887 73.174 0 83.427-67.631 151.058-151.058 151.058-26.55 0-51.495-6.858-73.174-18.887 26.44 27.623 63.677 44.827 104.933 44.827 80.213 0 145.239-65.026 145.239-145.239 0-41.256-17.204-78.493-44.827-104.933z" fill="#dfb5a7"/><path d="m263.436 305.675v-63.795c3.528-2.522 5.836-6.642 5.836-11.309 0-7.679-6.225-25.311-13.903-25.311-7.679 0-13.904 17.632-13.904 25.311 0 4.667 2.308 8.787 5.836 11.309v63.796c-3.528 2.522-5.836 6.642-5.836 11.309 0 7.679 6.225 13.903 13.904 13.903s13.903-6.225 13.903-13.903c-.001-4.668-2.308-8.788-5.836-11.31z" fill="#9781dd"/><path d="m167.3 24.231 6.147 17.285c.263.74.784 1.326 1.442 1.623l15.357 6.919c2.17.978 2.17 4.434 0 5.412l-15.357 6.919c-.658.296-1.178.883-1.442 1.623l-6.147 17.283c-.868 2.442-3.94 2.442-4.808 0l-6.147-17.285c-.263-.74-.784-1.326-1.442-1.623l-15.357-6.919c-2.169-.978-2.169-4.434 0-5.412l15.357-6.919c.658-.296 1.178-.883 1.442-1.623l6.147-17.285c.868-2.44 3.939-2.44 4.808.002z" fill="#faf1a9"/><path d="m349.694 1.832 6.147 17.285c.263.74.784 1.326 1.442 1.623l15.357 6.919c2.17.978 2.17 4.434 0 5.412l-15.357 6.919c-.657.296-1.178.883-1.442 1.623l-6.147 17.285c-.868 2.442-3.94 2.442-4.808 0l-6.147-17.285c-.263-.74-.784-1.326-1.442-1.623l-15.357-6.919c-2.169-.978-2.169-4.434 0-5.412l15.357-6.919c.658-.296 1.178-.883 1.442-1.623l6.147-17.285c.868-2.442 3.939-2.442 4.808 0z" fill="#faf1a9"/><ellipse cx="105.659" cy="22.103" fill="#f6e06e" rx="7.806" ry="7.806" transform="matrix(.924 -.383 .383 .924 -.416 42.117)"/></g><g><g fill="#3c122c"><path d="m447.652 77.327h-41.841c-19.762 0-35.84 16.078-35.84 35.841v.706c0 14.979 9.241 27.834 22.318 33.183v36.293c-21.874-22.062-49.022-38.886-79.377-48.392 4.129-4.952 6.619-11.317 6.619-18.254 0-15.719-12.771-28.51-28.482-28.544-2.953-17.748-18.406-31.324-36.979-31.324-18.572 0-34.026 13.576-36.979 31.324-15.711.035-28.482 12.825-28.482 28.544 0 7.25 2.721 13.873 7.19 18.913-29.528 9.61-55.953 26.156-77.335 47.717v-36.555c12.882-5.548 21.925-18.365 21.925-33.257 0-19.957-16.236-36.193-36.193-36.193h-39.495c-19.957 0-36.193 16.236-36.193 36.193 0 14.893 9.043 27.709 21.925 33.257v355.135c0 5.572 4.517 10.088 10.088 10.088h47.853c5.571 0 10.088-4.517 10.088-10.088v-47.054c34.976 35.264 83.432 57.14 136.905 57.14 53.482 0 101.945-21.883 136.921-57.159v47.07c0 5.572 4.517 10.088 10.088 10.088h48.71c5.571 0 10.088-4.517 10.088-10.088v-354.855c13.077-5.349 22.318-18.204 22.318-33.183v-.706c0-19.762-16.078-35.84-35.84-35.84zm-6.654 98.778h-28.533v-26.392h28.533zm-28.533 12.107h28.533v78.34c-6.099-21.519-15.849-41.518-28.533-59.285zm-158.396-111.201c7.373 0 13.667 4.639 16.162 11.145h-32.323c2.494-6.506 8.788-11.145 16.161-11.145zm-36.915 31.322h73.83c4.615 0 8.369 3.755 8.369 8.369 0 4.615-3.755 8.37-8.369 8.37h-73.83c-4.615 0-8.369-3.755-8.369-8.37 0-4.614 3.754-8.369 8.369-8.369zm-146.544 155.272v-75.393h27.676v19.033c-12.11 16.957-21.536 35.954-27.676 56.36zm27.676-113.892v26.392h-27.676v-26.392zm-33.585-52.21h39.494c8.831 0 16.016 7.185 16.016 16.017s-7.185 16.017-16.016 16.017h-39.494c-8.831 0-16.016-7.185-16.016-16.017s7.185-16.017 16.016-16.017zm5.909 394.32v-26.196h27.676v26.196zm27.676-38.301h-27.676v-78.936c6.14 20.406 15.566 39.402 27.676 56.361zm157.081 38.301c-95.243 0-172.728-77.486-172.728-172.728 0-95.243 77.485-172.729 172.728-172.729s172.728 77.486 172.728 172.729c.001 95.243-77.484 172.728-172.728 172.728zm185.631-120.184v81.883h-28.533v-22.597c12.684-17.768 22.433-37.767 28.533-59.286zm-28.533 120.184v-26.196h28.533v26.196zm50.85-377.95c0 8.637-7.026 15.664-15.663 15.664h-41.841c-8.637 0-15.664-7.027-15.664-15.664v-.706c0-8.637 7.026-15.664 15.664-15.664h41.841c8.637 0 15.663 7.027 15.663 15.664z"/><path d="m255.367 163.768c-85.648 0-155.328 69.68-155.328 155.328s69.679 155.327 155.328 155.327 155.328-69.679 155.328-155.327-69.679-155.328-155.328-155.328zm0 290.478c-74.523 0-135.151-60.628-135.151-135.151s60.628-135.151 135.151-135.151 135.151 60.628 135.151 135.151c.001 74.522-60.628 135.151-135.151 135.151z"/><path d="m269.488 302.901v-58.248c3.699-3.713 5.836-8.778 5.836-14.083 0-9.103-6.994-31.364-19.957-31.364s-19.956 22.262-19.956 31.364c0 5.305 2.136 10.37 5.835 14.082v58.249c-3.698 3.713-5.835 8.778-5.835 14.083 0 11.004 8.952 19.956 19.956 19.956 11.005 0 19.957-8.952 19.957-19.956 0-5.305-2.136-10.37-5.836-14.083zm-9.572 7.699c2.098 1.5 3.302 3.827 3.302 6.384 0 4.329-3.522 7.85-7.851 7.85s-7.85-3.522-7.85-7.85c0-2.558 1.204-4.885 3.302-6.384l2.533-1.811v-70.023l-2.533-1.81c-2.098-1.501-3.302-3.828-3.302-6.385 0-6.474 5.02-17.732 7.85-19.19 2.829 1.458 7.851 12.716 7.851 19.19 0 2.557-1.204 4.884-3.302 6.385l-2.534 1.81v70.024z"/><path d="m276.145 380.874c-3.343 0-6.053 2.71-6.053 6.053v36.891c0 3.343 2.71 6.053 6.053 6.053s6.053-2.71 6.053-6.053v-36.891c0-3.343-2.71-6.053-6.053-6.053z"/><path d="m263.017 381.251c-3.174-1.054-6.598.663-7.653 3.836l-7.198 21.667-7.571-21.811c-1.097-3.158-4.544-4.828-7.703-3.734-3.158 1.096-4.829 4.545-3.733 7.704l12.627 36.378c.974 2.745 3.578 4.582 6.488 4.582h.045c2.929-.019 5.53-1.896 6.487-4.709l12.046-36.259c1.054-3.174-.663-6.601-3.835-7.654z"/><path d="m353.844 290.928c-3.343 0-6.053 2.71-6.053 6.053v36.891c0 3.343 2.71 6.053 6.053 6.053s6.053-2.71 6.053-6.053v-36.891c0-3.343-2.71-6.053-6.053-6.053z"/><path d="m370.69 290.928c-3.343 0-6.053 2.71-6.053 6.053v36.891c0 3.343 2.71 6.053 6.053 6.053s6.053-2.71 6.053-6.053v-36.891c0-3.343-2.711-6.053-6.053-6.053z"/><path d="m336.997 290.928c-3.343 0-6.053 2.71-6.053 6.053v36.891c0 3.343 2.71 6.053 6.053 6.053s6.053-2.71 6.053-6.053v-36.891c0-3.343-2.71-6.053-6.053-6.053z"/><path d="m149.6 290.928c-3.343 0-6.053 2.71-6.053 6.053v36.891c0 3.343 2.71 6.053 6.053 6.053s6.053-2.71 6.053-6.053v-36.891c0-3.343-2.711-6.053-6.053-6.053z"/><path d="m184.801 314.228 10.111-13.41c2.013-2.669 1.48-6.464-1.189-8.477-2.67-2.014-6.465-1.48-8.477 1.189l-8.051 10.676-8.114-10.692c-2.02-2.662-5.817-3.183-8.48-1.162s-3.183 5.818-1.162 8.481l10.183 13.418-11.564 15.336c-2.013 2.669-1.48 6.464 1.189 8.477 1.092.823 2.37 1.221 3.639 1.221 1.835 0 3.648-.831 4.838-2.409l9.503-12.603 10.062 13.259c1.19 1.569 2.998 2.394 4.826 2.394 1.275 0 2.561-.401 3.654-1.232 2.663-2.021 3.183-5.818 1.163-8.481z"/></g><path d="m168.533 265.129c-2.127 0-4.271-.67-6.095-2.056-4.436-3.371-5.3-9.7-1.929-14.136 10.239-13.476 24.097-25.026 41.188-34.33 4.894-2.663 11.019-.856 13.684 4.037 2.664 4.894.856 11.02-4.037 13.684-14.57 7.931-26.268 17.626-34.77 28.815-1.985 2.612-4.996 3.986-8.041 3.986z" fill="#fff"/></g></g></svg>