<svg id="Filled" height="512" viewBox="0 0 512 512" width="512" xmlns="http://www.w3.org/2000/svg"><rect fill="#dadcde" height="464" rx="32" width="144" x="184" y="24"/><path d="m272 396.292v-308.292a16 16 0 0 0 -16-16 16 16 0 0 0 -16 16v308.292a32 32 0 1 0 32 0z" fill="#9aa3a8"/><path d="m288 424a32 32 0 1 1 -48-27.71v-52.29h32v52.29a32 32 0 0 1 16 27.71z" fill="#2d85cc"/><path d="m296 16h-80a40.045 40.045 0 0 0 -40 40v400a40.045 40.045 0 0 0 40 40h80a40.045 40.045 0 0 0 40-40v-400a40.045 40.045 0 0 0 -40-40zm0 464h-80a24.028 24.028 0 0 1 -24-24v-88h16a8 8 0 0 0 0-16h-16v-32h16a8 8 0 0 0 0-16h-16v-32h16a8 8 0 0 0 0-16h-16v-32h16a8 8 0 0 0 0-16h-16v-32h16a8 8 0 0 0 0-16h-16v-32h16a8 8 0 0 0 0-16h-16v-32h16a8 8 0 0 0 0-16h-16v-8a24.028 24.028 0 0 1 24-24h80a24.028 24.028 0 0 1 24 24v8h-16a8 8 0 0 0 0 16h16v32h-16a8 8 0 0 0 0 16h16v32h-16a8 8 0 0 0 0 16h16v32h-16a8 8 0 0 0 0 16h16v32h-16a8 8 0 0 0 0 16h16v32h-16a8 8 0 0 0 0 16h16v32h-16a8 8 0 0 0 0 16h16v88a24.028 24.028 0 0 1 -24 24z"/><path d="m280 392.012v-304.012a24 24 0 0 0 -48 0v304.012a40 40 0 1 0 48 0zm-24-312.012a8.009 8.009 0 0 1 8 8v248h-16v-248a8.009 8.009 0 0 1 8-8zm0 368a24 24 0 0 1 -11.993-44.784 8 8 0 0 0 3.993-6.924v-44.292h16v44.292a8 8 0 0 0 3.993 6.924 24 24 0 0 1 -11.993 44.784z"/></svg>