<svg height="512" viewBox="0 0 512 512" width="512" xmlns="http://www.w3.org/2000/svg"><g id="filled_outline" data-name="filled outline"><path d="m116 380.393a19.9 19.9 0 0 0 -12.018 4.024 19.963 19.963 0 0 0 -31.982 15.976 36.732 36.732 0 0 0 10.828 26.142l15.515 15.515a7.944 7.944 0 0 0 11.309-.023v.023l15.515-15.515a36.732 36.732 0 0 0 10.833-26.142 20.022 20.022 0 0 0 -20-20zm-20 36.686-1.857-1.858a20.833 20.833 0 0 1 -6.143-14.828 4 4 0 0 1 8 0zm17.857-1.858-1.857 1.858v-16.686a4 4 0 0 1 8 0 20.833 20.833 0 0 1 -6.143 14.828z" fill="#cb2527"/><path d="m384 440.915 28.548-.381a20 20 0 0 0 19.452-19.993v-56.659a48 48 0 0 1 14.059-33.941l41.941-41.941v50.185a269.963 269.963 0 0 1 -10.389 74.175l-9.178 32.123a60 60 0 0 1 -57.691 43.517h-34.742z" fill="#cdccc8"/><path d="m240.179 235.15 6.225 2.871a11.91 11.91 0 0 1 9.596 11.679v.647a11.113 11.113 0 0 1 -4.429 8.993l-.349.261a67.844 67.844 0 0 0 -27.222 54.343v134.056l-16 8 7.14 32h161.777a20 20 0 0 0 19.989-19.333l1.728-51.752a146.286 146.286 0 0 0 -18.7-76.6l-35.549-63.2a100 100 0 0 1 -11.965-62.242l7.608-62.313a67.326 67.326 0 0 0 -19.228-55.76l-.8-.8h-64l-.393.491a171.331 171.331 0 0 1 -79.607 55.509l2.034 8.135a112.7 112.7 0 0 0 21.333 43.074 112.7 112.7 0 0 0 40.812 31.941z" fill="#dcdbd6"/><path d="m252.44 187.99a71.294 71.294 0 0 1 -39.67 12.01h-15.87a111.459 111.459 0 0 1 -9.91-16h25.78a55.312 55.312 0 0 0 30.79-9.32 8 8 0 1 1 8.88 13.31z" fill="#dcdbd6"/><path d="m208 137.53v6.47a33.3 33.3 0 0 1 -22.77 31.59l-1.23.41-1.04-.78a112.59 112.59 0 0 1 -4.93-15.08l-2.03-8.14a170.823 170.823 0 0 0 32-14.47z" fill="#dcdbd6"/><path d="m252.44 187.99a71.294 71.294 0 0 1 -39.67 12.01h-15.87a111.459 111.459 0 0 1 -9.91-16h25.78a55.312 55.312 0 0 0 30.79-9.32 8 8 0 1 1 8.88 13.31z" fill="#cdccc8"/><path d="m312 143.048v42.152a22.8 22.8 0 0 0 22.8 22.8 22.8 22.8 0 0 0 22.69-25.072l-3.937-45.107a31.979 31.979 0 0 0 -17.553-25.821l-2.135.712a31.977 31.977 0 0 0 -21.865 30.336z" fill="#915628"/><circle cx="264" cy="136" fill="#7a4922" r="14"/><g fill="#cdccc8"><path d="m288 480v-128a8 8 0 0 1 16 0v128z"/><path d="m247.754 488-7.515-30.06a8 8 0 0 1 2.1-7.6l5.661-5.653v-92.687a8 8 0 0 1 16 0v96a8 8 0 0 1 -2.343 5.657l-4.8 4.8 7.143 29.543z"/><path d="m288 488v-7.282a36.057 36.057 0 0 1 31.535-35.718l18.6-2.325a77.649 77.649 0 0 1 -20.7-85.273l3.079-8.208a8 8 0 1 1 14.98 5.62l-3.078 8.207a61.754 61.754 0 0 0 27.292 75.6l4.265 2.437a8 8 0 0 1 -2.977 14.884l-39.472 4.935a20.03 20.03 0 0 0 -17.524 19.841v7.282z"/></g><path d="m312 24h16l32 32-16 8-32-8z" fill="#b22122"/><path d="m232 256h112a16 16 0 0 1 16 16 16 16 0 0 1 -16 16h-128a0 0 0 0 1 0 0v-16a16 16 0 0 1 16-16z" fill="#768753"/><path d="m216 288h48v80h-48z" fill="#768753"/><path d="m216 288h48v16h-48z" fill="#667447"/><path d="m248 368v-32a8 8 0 0 0 -16 0v32z" fill="#667447"/><path d="m208 137.53v6.47a33.3 33.3 0 0 1 -22.77 31.59l-1.23.41-1.04-.78a112.59 112.59 0 0 1 -4.93-15.08l-2.03-8.14a170.823 170.823 0 0 0 32-14.47z" fill="#915628"/><path d="m248 96a134.723 134.723 0 0 1 36.844-68.844l3.156-3.156h24v4.223a151.554 151.554 0 0 0 16 67.777z" fill="#cb2527"/><circle cx="360" cy="64" fill="#eae9e4" r="16"/><path d="m179.607 436.393a21.8 21.8 0 1 0 -43.607 0h-21l-11 2-11-2h-25.393a21.8 21.8 0 1 0 -37.712 14.9 21.8 21.8 0 1 0 37.6 17.1h25.505l11-3 11 3h21.11a21.8 21.8 0 1 0 37.6-17.1 21.721 21.721 0 0 0 5.897-14.9z" fill="#eae9e4"/><path d="m491.062 280.609a8 8 0 0 0 -8.719 1.734l-41.943 41.941a55.637 55.637 0 0 0 -16.4 39.6v56.659a11.937 11.937 0 0 1 -11.62 11.994l-6.267.084.516-15.437a154.255 154.255 0 0 0 -19.729-80.784l-26.423-46.974a23.982 23.982 0 0 0 -16.477-41.426h-2.272a91.645 91.645 0 0 1 -1.371-32.151l.046-.375a30.778 30.778 0 0 0 25.056-33.289l-3.934-45.061a40.234 40.234 0 0 0 -21.947-32.279 8 8 0 0 0 -2.793-.8q-1.1-1.733-2.293-3.4c.1-.147.218-.287.314-.442a8 8 0 0 0 .349-7.784 143.247 143.247 0 0 1 -9.6-24.788l11.343 2.835a24.018 24.018 0 1 0 18.814-30.077l-22.05-22.049a8 8 0 0 0 -5.662-2.34h-40a8 8 0 0 0 -5.657 2.343l-3.155 3.157a142.276 142.276 0 0 0 -39.033 72.933 8 8 0 0 0 1.33 6.192 162.915 162.915 0 0 1 -68.014 43.787 8 8 0 0 0 -5.232 9.53l2.034 8.136a119.876 119.876 0 0 0 22.847 46.13 121.31 121.31 0 0 0 43.709 34.209l6.225 2.87a7.974 7.974 0 0 0 1.794.583 3.9 3.9 0 0 1 2.744 2.13h-15.592a24.028 24.028 0 0 0 -24 24v96a8 8 0 0 0 8 8v67.056l-11.578 5.789a8 8 0 0 0 -4.23 8.9l7.14 32a8 8 0 0 0 7.808 6.255h195.6a68.289 68.289 0 0 0 65.384-49.319l9.178-32.122a277.975 277.975 0 0 0 10.698-76.373v-50.186a8 8 0 0 0 -4.938-7.391zm-131.062-224.609a8 8 0 1 1 -8 8 8.009 8.009 0 0 1 8-8zm-25.587 65.079a8.085 8.085 0 0 0 .868-.226 24.146 24.146 0 0 1 10.305 17.663l3.937 45.107c0 .034.006.067.01.1a14.8 14.8 0 0 1 -14.733 16.277 14.82 14.82 0 0 1 -14.8-14.8v-42.152a23.931 23.931 0 0 1 14.413-21.969zm-9.726-89.079 16.774 16.776a24.069 24.069 0 0 0 -3.393 5.495l-16.35-4.087a143.4 143.4 0 0 1 -1.662-18.184zm-34.185.812.811-.812h12.733a160.624 160.624 0 0 0 11.583 56h-57.484a126.268 126.268 0 0 1 32.355-55.188zm-102.574 132.749q-1.191-3.629-2.133-7.366l-.274-1.1c4.549-1.727 9-3.653 13.372-5.731a25.251 25.251 0 0 1 -10.965 14.197zm55.6 62.325a105.279 105.279 0 0 1 -36.439-27.886h5.682a71.284 71.284 0 0 0 39.667-12.011 8 8 0 0 0 -8.876-13.312 55.336 55.336 0 0 1 -30.791 9.323h-16.744c-.659-1.173-1.288-2.36-1.9-3.557a41.236 41.236 0 0 0 21.873-36.443 7.98 7.98 0 0 0 -.21-1.795 179.044 179.044 0 0 0 44.019-38.205h56.823a59.4 59.4 0 0 1 4.872 5.977 39.924 39.924 0 0 0 -17.504 33.071v42.152a30.854 30.854 0 0 0 20.44 29 107.359 107.359 0 0 0 .948 33.8h-61.461a19.971 19.971 0 0 0 -14.927-17.591zm-19.528 44.114a8.009 8.009 0 0 1 8-8h112a8 8 0 0 1 0 16h-120zm24 172.687-5.657 5.656a8 8 0 0 0 -2.1 7.6l5.511 22.057h-24.2l-4.383-19.641 10.409-5.2a8 8 0 0 0 4.42-7.159v-72h16zm8-84.687h-8v-24a8 8 0 0 0 -16 0v24h-8v-64h32zm134.639 56.648-1.729 51.752a11.951 11.951 0 0 1 -11.993 11.6h-72.884a20.019 20.019 0 0 1 17.487-19.127l39.472-4.935a8 8 0 0 0 2.977-14.884l-4.265-2.437a61.754 61.754 0 0 1 -27.292-75.6l3.078-8.207a8 8 0 1 0 -14.98-5.62l-3.079 8.208a77.649 77.649 0 0 0 20.7 85.273l-18.596 2.329a35.8 35.8 0 0 0 -15.535 5.8v-98.8a8 8 0 0 0 -16 0v128h-25.754l-5.387-21.546 4.8-4.8a8 8 0 0 0 2.341-5.654v-72a8 8 0 0 0 8-8v-72h72c.6 0 1.192-.03 1.78-.073l27.177 48.314a138.272 138.272 0 0 1 17.682 72.407zm89.361-78.462a261.955 261.955 0 0 1 -10.081 71.977l-9.178 32.122a52.22 52.22 0 0 1 -50 37.715h-8.5a28.111 28.111 0 0 0 2.658-11.066l.679-20.307 7.077-.1h.113a27.854 27.854 0 0 0 27.232-27.986v-56.659a39.729 39.729 0 0 1 11.716-28.282l28.284-28.287z"/><circle cx="264" cy="136" r="14"/><path d="m45.8 496a29.694 29.694 0 0 0 28.03-19.607h55.947a29.814 29.814 0 1 0 53.839-25.1 29.805 29.805 0 1 0 -54.525-22.9h-5.777l1.858-1.858a36.732 36.732 0 0 0 10.828-26.142 19.963 19.963 0 0 0 -32-15.963 19.963 19.963 0 0 0 -32 15.963 36.732 36.732 0 0 0 10.828 26.142l1.858 1.858h-10.169a29.806 29.806 0 1 0 -54.526 22.9 29.806 29.806 0 0 0 25.809 44.707zm66.2-95.607a4 4 0 0 1 8 0 20.833 20.833 0 0 1 -6.143 14.828l-1.857 1.858zm0 44h24a8 8 0 0 0 8-8 13.8 13.8 0 1 1 23.875 9.432 8 8 0 0 0 0 10.941 13.8 13.8 0 1 1 -23.805 10.834 8 8 0 0 0 -7.96-7.2h-24.11zm-20-48a4 4 0 0 1 4 4v16.686l-1.857-1.858a20.833 20.833 0 0 1 -6.143-14.828 4 4 0 0 1 4-4zm-56.268 49.432a13.8 13.8 0 1 1 23.875-9.432 8 8 0 0 0 8 8h28.393v16h-28.5a8 8 0 0 0 -7.96 7.2 13.8 13.8 0 1 1 -23.8-10.831 8 8 0 0 0 -.008-10.937z"/></g></svg>