<svg id="Filled" height="512" viewBox="0 0 512 512" width="512" xmlns="http://www.w3.org/2000/svg"><path d="m256 24a128 128 0 0 1 128 128 0 0 0 0 1 0 0h-256a0 0 0 0 1 0 0 128 128 0 0 1 128-128z" fill="#95573a"/><path d="m128 152h32v272h-32z" fill="#ad6643"/><path d="m160 152a96 96 0 0 1 192 0z" fill="#eb423f"/><path d="m160 152h192v272h-192z" fill="#eb423f"/><path d="m112 424h288v32h-288z" fill="#b6b9ba"/><path d="m80 456h352v32h-352z" fill="#9aa3a8"/><g fill="#d13330"><path d="m192 184h48v32h-48z"/><path d="m272 184h48v32h-48z"/><path d="m192 360h48v32h-48z"/><path d="m272 360h48v32h-48z"/><path d="m192 248h48v80h-48z"/><path d="m272 248h48v80h-48z"/></g><circle cx="336" cy="288" fill="#dadcde" r="16"/><path d="m352 152h32v272h-32z" fill="#ad6643"/><path d="m432 448h-24v-24a8 8 0 0 0 -8-8h-8v-264c0-74.991-61.01-136-136-136s-136 61.009-136 136v264h-8a8 8 0 0 0 -8 8v24h-24a8 8 0 0 0 -8 8v32a8 8 0 0 0 8 8h352a8 8 0 0 0 8-8v-32a8 8 0 0 0 -8-8zm-72-32v-256h16v256zm-48-96h-32v-64h32zm-97.714-205.311a71.311 71.311 0 0 0 14.519 8.014 39.982 39.982 0 0 0 -12 21.3h-16.224a55.808 55.808 0 0 1 13.705-29.314zm12.862-10.665a55.881 55.881 0 0 1 57.666-.024 56.037 56.037 0 0 1 -57.666.022zm28.852 23.976a24.039 24.039 0 0 1 22.624 16h-45.248a24.039 24.039 0 0 1 22.624-16zm39.2 16a39.994 39.994 0 0 0 -12.037-21.333 72.339 72.339 0 0 0 14.54-8 55.814 55.814 0 0 1 13.716 29.333zm32.35 0a71.738 71.738 0 0 0 -17.914-39.974 71.768 71.768 0 0 0 9.454-13.312 87.741 87.741 0 0 1 24.543 53.286zm-29.843-50.635a71.757 71.757 0 0 0 -83.42.005 56.505 56.505 0 0 1 -8.87-13.338 87.814 87.814 0 0 1 101.169 0 55.785 55.785 0 0 1 -8.879 13.333zm-104.787-2.656a72.687 72.687 0 0 0 9.441 13.327 71.725 71.725 0 0 0 -17.906 39.964h-16.088a87.744 87.744 0 0 1 24.553-53.291zm151.08 69.291v105.376a23.944 23.944 0 0 0 -16 0v-17.376a8 8 0 0 0 -8-8h-48a8 8 0 0 0 -8 8v80a8 8 0 0 0 8 8h48a8 8 0 0 0 8-8v-17.376a23.944 23.944 0 0 0 16 0v105.376h-176v-256zm0 128a8 8 0 1 1 -8-8 8.009 8.009 0 0 1 8 8zm-88-256a120.16 120.16 0 0 1 119.736 112h-16.036a104 104 0 0 0 -207.39 0h-16.046a120.162 120.162 0 0 1 119.736-112zm-120 128h16v256h-16zm-16 272h272v16h-272zm304 48h-336v-16h336z"/><path d="m192 224h48a8 8 0 0 0 8-8v-32a8 8 0 0 0 -8-8h-48a8 8 0 0 0 -8 8v32a8 8 0 0 0 8 8zm8-32h32v16h-32z"/><path d="m272 224h48a8 8 0 0 0 8-8v-32a8 8 0 0 0 -8-8h-48a8 8 0 0 0 -8 8v32a8 8 0 0 0 8 8zm8-32h32v16h-32z"/><path d="m192 400h48a8 8 0 0 0 8-8v-32a8 8 0 0 0 -8-8h-48a8 8 0 0 0 -8 8v32a8 8 0 0 0 8 8zm8-32h32v16h-32z"/><path d="m272 400h48a8 8 0 0 0 8-8v-32a8 8 0 0 0 -8-8h-48a8 8 0 0 0 -8 8v32a8 8 0 0 0 8 8zm8-32h32v16h-32z"/><path d="m192 336h48a8 8 0 0 0 8-8v-80a8 8 0 0 0 -8-8h-48a8 8 0 0 0 -8 8v80a8 8 0 0 0 8 8zm8-80h32v64h-32z"/></svg>