<svg height="512" viewBox="0 0 60 60" width="512" xmlns="http://www.w3.org/2000/svg"><g id="Page-1" fill="none" fill-rule="evenodd"><g id="025---Dragon" transform="translate(0 -1)"><g id="Color" transform="translate(1 1)"><g fill-rule="nonzero"><path id="Shape" d="m40.89 24.76c.7044667.9348345 1.0932186 2.0695696 1.11 3.24-.1129268 2.0472879-1.1934085 3.9186376-2.91 5.04-.6513386.4909689-1.3517355.9132177-2.09 1.26v-2.3c0-3.3137085-2.6862915-6-6-6h-4c-3.3137085 0-6 2.6862915-6 6v2.3c-.7301026-.342372-1.4236433-.7578263-2.07-1.24-1.7259711-1.1245522-2.8138502-3.0032785-2.93-5.06.0167814-1.1704304.4055333-2.3051655 1.11-3.24.4518343-.5842366.5368822-1.3728626.22-2.04-.1219827-.2343248-.2321214-.4746275-.33-.72-.5439013-1.3118754-.8714855-2.7032642-.97-4.12-.0612553-.8468864-.0378057-1.6977728.07-2.54.1214356-.9890556.3632261-1.9595754.72-2.89.3014234-.8194321.6903386-1.603968 1.16-2.34 1.3541721-2.14859694 3.3030644-3.85778584 5.61-4.92 1.1603359-.54705952 2.3983019-.91136561 3.67-1.08l-.83 2.58c-.0992489.30438538-.046755.63788978.1411994.8970691.1879545.25917933.4886432.41269511.8088006.4129309h3.24c.3201574-.00023579.6208461-.15375157.8088006-.4129309.1879544-.25917932.2404483-.59268372.1411994-.8970691l-.83-2.57c1.2725307.16847604 2.5128319.52573671 3.68 1.06 3.1344877 1.42235264 5.5689821 4.04051446 6.76 7.27.5444259 1.4550974.8221973 2.9963902.82 4.55 0 .3-.01.59-.03.88-.0936863 1.4174629-.4214533 2.809628-.97 4.12-.1.24-.21.48-.33.72-.3168822.6671374-.2318343 1.4557634.22 2.04z" fill="#f44335"/><path id="Shape" d="m27.26 4.11c-1.1373719.15255772-2.2480066.46252576-3.3.921l-.53 1.659c-.0992489.30438538-.046755.63788978.1411994.8970691.1879545.25917933.4886432.41269511.8088006.4129309h3c-.3201574-.00023579-.6208461-.15375157-.8088006-.4129309-.1879544-.25917932-.2404483-.59268372-.1411994-.8970691z" fill="#c81e1e"/><path id="Shape" d="m40.67 22.72c.12-.24.23-.48.33-.72.5485467-1.310372.8763137-2.7025371.97-4.12.02-.29.03-.58.03-.88.0021973-1.5536098-.2755741-3.0949026-.82-4.55-1.1910179-3.22948554-3.6255123-5.84764736-6.76-7.27-1.1671681-.53426329-2.4074693-.89152396-3.68-1.06l.29.9c.13.054.263.1.39.161 3.1344877 1.42235264 5.5689821 4.04051446 6.76 7.27.5443077 1.4547828.8220772 2.9957262.82 4.549 0 .3-.01.59-.03.88-.0936863 1.4174629-.4214533 2.809628-.97 4.12-.1.24-.21.48-.33.72-.3168822.6671374-.2318343 1.4557634.22 2.04.7044667.9348345 1.0932186 2.0695696 1.11 3.24-.0577164 1.6304889-.7804341 3.1662638-2 4.25v2.05c.7382645-.3467823 1.4386614-.7690311 2.09-1.26 1.7165915-1.1213624 2.7970732-2.9927121 2.91-5.04-.0167814-1.1704304-.4055333-2.3051655-1.11-3.24-.4518343-.5842366-.5368822-1.3728626-.22-2.04z" fill="#c81e1e"/><path id="Shape" d="m18 32v.252c.2923355.2890159.6029782.5589077.93.808.6463567.4821737 1.3398974.897628 2.07 1.24v-2.3c0-3.3137085 2.6862915-6 6-6h-3c-3.3137085 0-6 2.6862915-6 6z" fill="#c81e1e"/><path id="Shape" d="m23.59 5.19c-2.3069356 1.06221416-4.2558279 2.77140306-5.61 4.92-1.79621-2.32141381-2.8364079-5.1383258-2.98-8.07-.0115457-.31207543.1233627-.61162726.3647109-.80980751s.561423-.27223245.8652891-.20019249c2.8078326.62254355 5.3666116 2.0672963 7.35 4.15z" fill="#f5f5f5"/><path id="Shape" d="m23.58 5.18c-1.9833884-2.0827037-4.5421674-3.52745645-7.35-4.15-.4684345-.1159105-.9516677.1257061-1.14.57 2.0991998.71829469 3.9861316 1.94875297 5.49 3.58l.01.01c-1.4751891.68062929-2.8106453 1.63016648-3.938 2.8.3875414.73973654.831523 1.44850232 1.328 2.12 1.3541721-2.14859694 3.3030644-3.85778584 5.61-4.92z" fill="#cfd8dc"/><path id="Shape" d="m43 2.04c-.144124 2.92683299-1.1805359 5.73945239-2.97 8.06-1.3541721-2.14859694-3.3030644-3.85778584-5.61-4.92 1.9833884-2.0827037 4.5421674-3.52745645 7.35-4.15.3038661-.07203996.6239409.00201224.8652891.20019249s.3762566.49773208.3647109.80980751z" fill="#f5f5f5"/><path id="Shape" d="m41.77 1.03c-.6299546.15585209-1.2508872.34613787-1.86.57.0610236.13857373.0917096.28859448.09.44-.0947014 2.0766029-.6570139 4.10502995-1.645 5.934.6298907.64923892 1.1911896 1.3616696 1.675 2.126 1.7894641-2.32054761 2.825876-5.13316701 2.97-8.06.0115457-.31207543-.1233627-.61162726-.3647109-.80980751s-.561423-.27223245-.8652891-.20019249z" fill="#cfd8dc"/><circle id="Oval" cx="22" cy="20" fill="#f5f5f5" r="2"/><circle id="Oval" cx="36" cy="20" fill="#f5f5f5" r="2"/><path id="Shape" d="m17 22c-10-2-9-9-9-9 2.9851264 1.054301 5.7193089 2.7159213 8.03 4.88.0985145 1.4167358.4260987 2.8081246.97 4.12z" fill="#ffe0b2"/><path id="Shape" d="m16.1 15.34c-.1078057.8422272-.1312553 1.6931136-.07 2.54-2.3106911-2.1640787-5.0448736-3.825699-8.03-4.88 2.6920081-1.5532308 5.9558836-1.7567604 8.82-.55-.3567739.9304246-.5985644 1.9009444-.72 2.89z" fill="#bb193b"/><path id="Shape" d="m41.97 17.88c.02-.29.03-.58.03-.88.0021973-1.5536098-.2755741-3.0949026-.82-4.55 2.8641164-1.2067604 6.1279919-1.0032308 8.82.55-2.9851264 1.054301-5.7193089 2.7159213-8.03 4.88z" fill="#bb193b"/><path id="Shape" d="m41 22c.5485467-1.310372.8763137-2.7025371.97-4.12 2.3106911-2.1640787 5.0448736-3.825699 8.03-4.88 0 0 1 7-9 9z" fill="#ffe0b2"/><path id="Shape" d="m30.62 8h-3.24c-.3201574-.00023579-.6208461-.15375157-.8088006-.4129309-.1879544-.25917932-.2404483-.59268372-.1411994-.8970691l.83-2.58.79-2.43c.1348836-.41037454.5180268-.6877501.95-.6877501s.8151164.27737556.95.6877501l.79 2.44.83 2.57c.0992489.30438538.046755.63788978-.1411994.8970691-.1879545.25917933-.4886432.41269511-.8088006.4129309z" fill="#ffe0b2"/></g><path id="Shape" d="m20 43c.1060257 1.3736449.4441492 2.7193765 1 3.98" stroke="#000" stroke-linecap="round" stroke-linejoin="round" stroke-width="2"/><path id="Shape" d="m37 32v2.3c-2.5079654 1.1518213-5.2403751 1.7324584-8 1.7-2.7596249.0324584-5.4920346-.5481787-8-1.7v-2.3c0-3.3137085 2.6862915-6 6-6h4c3.3137085 0 6 2.6862915 6 6z" fill="#ffe0b2" fill-rule="nonzero"/><path id="Shape" d="m31 26h-3c3.3137085 0 6 2.6862915 6 6v2.3c-2.045364.9474338-4.2499865 1.503677-6.5 1.64.493.036.992.06 1.5.06 2.7596249.0324584 5.4920346-.5481787 8-1.7v-2.3c0-3.3137085-2.6862915-6-6-6z" fill="#dfc49c" fill-rule="nonzero"/><path id="Shape" d="m46.05 48c.1234169 2.665765-.4015913 5.3216888-1.53 7.74-1.34 2.54-3.27 3.26-4.47 3.26-1.8911203.0644716-3.7215101-.6727687-5.04-2.03-1.2-1.38-1.5-3.41.04-5.97.7712114-1.2699292 1.4367835-2.6010734 1.99-3.98l-.04-.02s-1-7-8-7c-6.78 0-7.93 6.56-8 6.98.55383 1.3932348 1.222812 2.7378886 2 4.02 1.54 2.57 1.23 4.61.03 5.99-1.3243724 1.3400675-3.1468268 2.0683246-5.03 2.01-1.21 0-3.16-.74-4.5-3.32-1.1068668-2.4032436-1.6212508-5.0368897-1.5-7.68 0-.18 0-.37.01-.55.0642562-1.9200483.4356264-3.8174124 1.1-5.62v-.01c1.2446068-3.3266316 3.2356556-6.323468 5.82-8.76.6463567.4821737 1.3398974.897628 2.07 1.24 2.5079654 1.1518213 5.2403751 1.7324584 8 1.7 2.7596249.0324584 5.4920346-.5481787 8-1.7.7382645-.3467823 1.4386614-.7690311 2.09-1.26.9917104.9039063 1.8895994 1.9056556 2.68 2.99 1.3129972 1.7353289 2.3673095 3.6519541 3.13 5.69v.01c.675616 1.8006123 1.0571574 3.6981895 1.13 5.62v.02c.02.21.02.42.02.63z" fill="#f44335" fill-rule="nonzero"/><path id="Shape" d="m21 46.98c.064-.387 1.056-5.964 6.5-6.85-.4956486-.0839291-.9973024-.1274058-1.5-.13-6.78 0-7.93 6.56-8 6.98.55383 1.3932348 1.222812 2.7378886 2 4.02 1.54 2.57 1.23 4.61.03 5.99-.8624447.914968-1.9862495 1.541477-3.218 1.794.3820006.134692.7830358.2076074 1.188.216 1.8831732.0583246 3.7056276-.6699325 5.03-2.01 1.2-1.38 1.51-3.42-.03-5.99-.777188-1.2821114-1.44617-2.6267652-2-4.02z" fill="#c81e1e" fill-rule="nonzero"/><path id="Shape" d="m46.03 47.37v-.02c-.0728426-1.9218105-.454384-3.8193877-1.13-5.62v-.01c-.7626905-2.0380459-1.8170028-3.9546711-3.13-5.69-.7904006-1.0843444-1.6882896-2.0860937-2.68-2.99-.5819925.4357969-1.2037382.8158084-1.857 1.135.5448508.5906531 1.0579085 1.2098606 1.537 1.855 1.3129972 1.7353289 2.3673095 3.6519541 3.13 5.69v.01c.675616 1.8006123 1.0571574 3.6981895 1.13 5.62v.02c.02.21.02.42.02.63.1234169 2.665765-.4015913 5.3216888-1.53 7.74-.653756 1.405101-1.8319278 2.4981945-3.282 3.045.5938507.1403853 1.2017865.2125189 1.812.215 1.2 0 3.13-.72 4.47-3.26 1.1284087-2.4183112 1.6534169-5.074235 1.53-7.74 0-.21 0-.42-.02-.63z" fill="#c81e1e" fill-rule="nonzero"/><path id="Shape" d="m35.05 51c-1.54 2.56-1.24 4.59-.04 5.97-1.9220905.7131922-3.9601169 1.0624713-6.01 1.03-2.0351373.0327904-4.0589052-.309589-5.97-1.01 1.2-1.38 1.51-3.42-.03-5.99-.777188-1.2821114-1.44617-2.6267652-2-4.02.07-.42 1.22-6.98 8-6.98 7 0 8 7 8 7l.04.02c-.5532165 1.3789266-1.2187886 2.7100708-1.99 3.98z" fill="#ffe0b2" fill-rule="nonzero"/><path id="Shape" d="m37.04 47.02-.04-.02s-1-7-8-7c-.5027006.0025278-1.0043599.046005-1.5.13 5.637.919 6.5 6.87 6.5 6.87l.04.02c-.5532165 1.3789266-1.2187886 2.7100708-1.99 3.98-1.54 2.56-1.24 4.59-.04 5.97-1.4502125.5477752-2.9746291.8740988-4.522.968.493.037 1 .062 1.512.062 2.0498831.0324713 4.0879095-.3168078 6.01-1.03-1.2-1.38-1.5-3.41.04-5.97.7712114-1.2699292 1.4367835-2.6010734 1.99-3.98z" fill="#dfc49c" fill-rule="nonzero"/><path id="Shape" d="m16.27 36.04c-1.3306339 1.7615663-2.3953288 3.7090146-3.16 5.78-.49-6.03-7.11-3.82-7.11-3.82-1-4-6-5-6-5 1.38025647-2.7539369 3.88611767-4.774675 6.87-5.54.51737286-.1521605 1.07433204-.0880498 1.5436021.1776814s.81074731.7103738.9463979 1.2323186c.66 2.54 2.42 6.81 6.91 7.17z" fill="#bb193b" fill-rule="nonzero"/><path id="Shape" d="m13.5 55.68c-.3157423 1.3319435-1.2213308 2.4473635-2.46 3.03-2.77 1.16-6.41-1.23-8.14-5.34-.99941773-2.1750627-1.16316316-4.6419232-.46-6.93.36929712-1.1469896 1.19882826-2.0888153 2.29-2.6.01-.01.03-.01.04-.02 1.04276621-.4049609 2.20299298-.3834087 3.23.06 1.68312.7320029 3.0881679 1.982881 4.01 3.57-.01.18-.01.37-.01.55-.1212508 2.6431103.3931332 5.2767564 1.5 7.68z" fill="#f44335" fill-rule="nonzero"/><path id="Shape" d="m12 48c0-.18 0-.37.01-.55-.9218321-1.587119-2.32688-2.8379971-4.01-3.57-1.02213154-.4406224-2.17614251-.4635949-3.215-.064.072.024.143.036.215.064 1.68312.7320029 3.08816793 1.982881 4.01 3.57-.01.18-.01.37-.01.55-.12125084 2.6431103.39313317 5.2767564 1.5 7.68-.3157423 1.3319435-1.22133083 2.4473635-2.46 3.03-.01 0-.021.006-.032.011.97678001.3739921 2.0579593.3700696 3.032-.011 1.2386692-.5826365 2.1442577-1.6980565 2.46-3.03-1.1068668-2.4032436-1.6212508-5.0368897-1.5-7.68z" fill="#c81e1e" fill-rule="nonzero"/><path id="Shape" d="m58 33s-5 1-6 5c0 0-6.54-2.18-7.1 3.72-.7626905-2.0380459-1.8170028-3.9546711-3.13-5.69 4.46-.38 6.21-4.63 6.87-7.16.1356506-.5219448.4771278-.9665874.9463979-1.2323186s1.0262292-.3298419 1.5436021-.1776814c2.9838823.765325 5.4897435 2.7860631 6.87 5.54z" fill="#bb193b" fill-rule="nonzero"/><path id="Shape" d="m55.1 53.37c-1.73 4.11-5.37 6.5-8.14 5.34-1.2182915-.5730681-2.1142622-1.6636555-2.44-2.97 1.1284087-2.4183112 1.6534169-5.074235 1.53-7.74 0-.21 0-.42-.02-.63v-.02c.9343551-1.5379499 2.320859-2.7498312 3.97-3.47 1.027007-.4434087 2.1872338-.4649609 3.23-.06.01.01.03.01.04.02 1.0911717.5111847 1.9207029 1.4530104 2.29 2.6.7031632 2.2880768.5394177 4.7549373-.46 6.93z" fill="#f44335" fill-rule="nonzero"/><path id="Shape" d="m55.56 46.44c-.3692971-1.1469896-1.1988283-2.0888153-2.29-2.6-.01-.01-.03-.01-.04-.02-.9700594-.3747814-2.0449406-.3747814-3.015 0h.015c.01.01.03.01.04.02 1.0911717.5111847 1.9207029 1.4530104 2.29 2.6.7031632 2.2880768.5394177 4.7549373-.46 6.93-.8971057 2.4084948-2.7437675 4.3430067-5.108 5.351 2.766 1.129 6.384-1.256 8.108-5.351.9994177-2.1750627 1.1631632-4.6419232.46-6.93z" fill="#c81e1e" fill-rule="nonzero"/><circle id="Oval" cx="7" cy="50" fill="#ffe0b2" fill-rule="nonzero" r="2"/><circle id="Oval" cx="51" cy="50" fill="#ffe0b2" fill-rule="nonzero" r="2"/></g><g id="Outline" fill="#000" fill-rule="nonzero"><circle id="Oval" cx="11" cy="56" r="1"/><circle id="Oval" cx="49" cy="56" r="1"/><path id="Shape" d="m27 31h-1c-.5522847 0-1 .4477153-1 1s.4477153 1 1 1h1c.5522847 0 1-.4477153 1-1s-.4477153-1-1-1z"/><path id="Shape" d="m34 31h-1c-.5522847 0-1 .4477153-1 1s.4477153 1 1 1h1c.5522847 0 1-.4477153 1-1s-.4477153-1-1-1z"/><path id="Shape" d="m23 24c1.6568542 0 3-1.3431458 3-3s-1.3431458-3-3-3-3 1.3431458-3 3 1.3431458 3 3 3zm0-4c.5522847 0 1 .4477153 1 1s-.4477153 1-1 1-1-.4477153-1-1 .4477153-1 1-1z"/><path id="Shape" d="m37 24c1.6568542 0 3-1.3431458 3-3s-1.3431458-3-3-3-3 1.3431458-3 3 1.3431458 3 3 3zm0-4c.5522847 0 1 .4477153 1 1s-.4477153 1-1 1-1-.4477153-1-1 .4477153-1 1-1z"/><path id="Shape" d="m52.417 27.505c-.7769738-.2305838-1.61426-.1359899-2.320205.2621291-.705945.3981191-1.220107 1.0656771-1.424795 1.8498709-.557 2.151-2 5.723-5.458 6.347-.5077278-.646748-1.0484447-1.2669036-1.62-1.858 1.4803651-1.2909382 2.3528587-3.1425392 2.406-5.106-.0145727-1.3831165-.4699817-2.7255221-1.3-3.832-.2274653-.2825657-.2776586-.6686682-.13-1 .048-.1.08-.2.125-.293 10.268-2.3 9.31-9.933 9.3-10.012-.0427308-.2981765-.2175937-.5612055-.476-.716-2.6563074-1.5705028-5.8626844-1.9133528-8.791-.94-.1626667-.3553333-.34-.7023333-.532-1.041 1.6858288-2.3825924 2.6584128-5.19594088 2.804-8.111.0130827-.63204282-.2699039-1.23389806-.765-1.627-.4780858-.38142787-1.1066357-.5182299-1.7-.37-2.7622217.63555189-5.3038952 1.99909875-7.361 3.949-.8611163-.3432654-1.7546293-.59888986-2.667-.763l-.607-1.876c-.272566-.81612213-1.0365655-1.36644574-1.897-1.36644574s-1.624434.55032361-1.897 1.36644574v.007l-.6 1.856c-.9195635.16396132-1.8199244.42163811-2.687.769-2.0538289-1.94500772-4.5904671-3.30533912-7.347-3.94-.5952354-.15126056-1.2269576-.01507206-1.707.368-.4983543.39710727-.7815658 1.0049939-.765 1.642.1503001 2.91217894 1.1259371 5.72151413 2.813 8.1-.192.338-.37.6836667-.534 1.037-2.9287733-.9742643-6.1360091-.6317653-8.793.939-.2584063.1547945-.43326919.4178235-.476.716-.011.079-.968 7.707 9.291 10.01.045.1.084.2.132.294.1512651.3366826.0985625.7300145-.136 1.015-.8271418 1.1028479-1.2814404 2.4405244-1.297 3.819.0550495 1.9759024.9383605 3.8376056 2.434 5.13-.432.45-.985 1.07-1.59 1.842-3.5-.595-4.956-4.192-5.515-6.355-.2043119-.7848783-.7183013-1.4532899-1.42438256-1.8523219-.70608122-.399032-1.54383845-.4945413-2.32161744-.2646781-3.27806378.848512-6.02173124 3.0869881-7.511 6.128-.11037953.2752247-.09291823.585243.04766838.8463324.14058662.2610894.38979749.4463195.68033162.5056676.044.009 4.4.937 5.228 4.263.06766346.2696341.24451325.4989333.48811239.6328749s.5319601.1604358.79588761.0731251c.028-.01 2.8-.9 4.477.21.8067384.6101296 1.2865161 1.5586133 1.3 2.57-.3638528 1.0339889-.6401586 2.0967293-.826 3.177-.659813-.6758654-1.423872-1.2413973-2.263-1.675v-1.231c0-.5522847-.44771525-1-1-1s-1 .4477153-1 1v.6c-.55672215-.0893028-1.12438039-.0859239-1.68.01l-.39-.984c-.20379308-.5136248-.78537518-.764793-1.29899999-.561-.51362481.2037931-.76479306.7853752-.56100001 1.299l.413 1.039c-.512611.373301-.95110734.8389278-1.293 1.373l-.483-.483c-.39237889-.3789722-1.01608478-.3735524-1.40181858.0121814-.38573379.3857338-.39115363 1.0094397-.01218142 1.4018186l1.019 1.019c-.55836409 2.3533892-.32425156 4.8252801.666 7.032 1.612 3.828 4.675 6.251 7.557 6.251.6499353.0019248 1.2936466-.1266135 1.893-.378.9222435-.3992516 1.7020851-1.068235 2.237-1.919 1.0346064 1.3673118 2.6223655 2.2053263 4.335 2.288 1.9349603.0388028 3.818236-.6260291 5.3-1.871 3.7252685 1.1664038 7.7188028 1.161168 11.441-.015 1.4817307 1.2528419 3.3689615 1.9232727 5.309 1.886 1.6975907-.0819609 3.2729998-.9071578 4.307-2.256.5364169.8340078 1.3073802 1.4908574 2.216 1.888.5995591.2506021 1.2431775.3787817 1.893.377 2.88 0 5.944-2.423 7.555-6.25.9906635-2.20694 1.2251269-4.6791749.667-7.033l1.019-1.019c.3789722-.3923789.3735524-1.0160848-.0121814-1.4018186s-1.0094397-.3911536-1.4018186-.0121814l-.483.482c-.3426304-.5318037-.7810677-.9953334-1.293-1.367l.413-1.039c.131831-.332257.0763909-.7096061-.1454366-.9899036s-.5763415-.4209595-.93-.369-.6527324.2886466-.7845634.6209036l-.391.985c-.5552821-.0959415-1.1226145-.0993204-1.679-.01v-.606c0-.5522847-.4477153-1-1-1s-1 .4477153-1 1v1.232c-.8204689.4239672-1.5700776.9728482-2.222 1.627-.1907337-1.100361-.4744163-2.18257-.848-3.235.033565-.9725305.5037988-1.8780981 1.28-2.465 1.675-1.112 4.447-.219 4.474-.21.2641824.0879656.5530784.0618013.7971584-.072196.2440799-.1339972.4212397-.3636924.4888416-.633804.832-3.326 5.184-4.254 5.226-4.263.2911904-.0581661.5414699-.2427347.6830793-.5037364s.1599003-.5714383.0499207-.8472636c-1.4903956-3.0397091-4.2343328-5.2766462-7.512-6.124zm-8.9-5.922c.1963735-.7329022.3318346-1.4807815.405-2.236 1.7710006-1.6225723 3.8094016-2.9264723 6.025-3.854-.281 1.714-1.521 4.607-6.428 6.09zm4.9-7.6c-1.5869289.7340933-3.0888506 1.6394714-4.479 2.7-.0852646-.8831304-.2547009-1.7560958-.506-2.607 1.6205904-.495357 3.347585-.5265365 4.985-.09zm-5.417-10.973c-.1074294 2.2580683-.800086 4.44941325-2.01 6.359-1.080114-1.37652148-2.4078924-2.5391331-3.915-3.428 1.7155784-1.43156933 3.7460991-2.4360345 5.925-2.931zm-11.376 4.99h-3.248l1.624-5zm-14.624-5c2.1828916.5010383 4.2169107 1.50965416 5.937 2.944-1.5023878.89790445-2.8284172 2.06228912-3.913 3.436-1.2148762-1.91592906-1.912233-4.11411904-2.024-6.38zm-.438 11.08c-.2096104.6987537-.3617832 1.4134643-.455 2.137-.019.159-.027.316-.041.475-1.3912469-1.0626878-2.8945121-1.9700792-4.483-2.706 1.635956-.4336111 3.3605765-.4010515 4.979.094zm-6.511 1.413c2.2100106.9254431 4.2438274 2.2251644 6.012 3.842.0744363.7582234.2108932 1.5090704.408 2.245-4.902-1.488-6.139-4.38-6.42-6.087zm7.949 13.507c.0168593-.9574598.3376379-1.884776.916-2.648.6711244-.8864114.7907596-2.0735015.31-3.076-1.038021-2.1099131-1.4323931-4.4785801-1.134-6.811.6578548-4.7641453 4.0632901-8.69219688 8.686-10.019l-.3.936c-.1976.60818265-.0924592 1.27418649.2828871 1.79191912.3753463.51773264.9756364.82476269 1.6151129.82608088h3.248c.6398292-.00067941 1.2407121-.30744424 1.616524-.82527361.375812-.51782937.4811837-1.18420887.283476-1.79272639l-.3-.926c5.1768372 1.45377525 8.7598825 6.1669334 8.776 11.544.0053787 1.8306282-.4146656 3.6374692-1.227 5.278-.4805536.9971247-.3648327 2.1790214.3 3.064.5831224.7652389.9077679 1.6960996.927 2.658 0 1.727-1.146 3.328-3 4.564v-.564c-.0044086-3.8641657-3.1358343-6.9955914-7-7h-4c-3.8641657.0044086-6.9955914 3.1358343-7 7v.564c-1.854-1.236-3-2.837-3-4.564zm19 5.634c-4.4889653 1.8212888-9.5110347 1.8212888-14 0v-1.634c.0033061-2.7600532 2.2399468-4.9966939 5-5h4c2.7600532.0033061 4.9966939 2.2399468 5 5zm-24.112 3.853c-1.5966547-.8790677-3.4664159-1.1226545-5.235-.682-1.04725287-2.1161347-2.91623577-3.7104267-5.171-4.411 1.37100028-1.9437522 3.37677072-3.3487109 5.672-3.973.25707632-.0749275.53351736-.0428548.76660952.088942.23309216.1317969.40307658.3521457.47139048.611058.639 2.466 2.266 6.456 6.19 7.616-.4751581.7251337-.9111165 1.4752091-1.306 2.247-.342566-.5982352-.8173188-1.1102704-1.388-1.497zm-1.234 20.3c-2.216.926-5.345-1.272-6.833-4.807-.89437495-1.9417649-1.05217916-4.1424938-.444-6.192.28286813-.8861819.91383263-1.6192992 1.748-2.031.02-.008.04-.018.06-.028.79968603-.2840392 1.6773147-.2543799 2.456.083 1.3943311.6178709 2.5691213 1.6431106 3.37 2.941 0 .083-.011.163-.011.246-.0951647 2.6509444.3929995 5.2904446 1.43 7.732-.2803214.9027343-.9237986 1.648023-1.776 2.057zm13.911-1.343c.612-1.289.9-3.285-.708-5.96-.698282-1.1514444-1.3067516-2.3550108-1.82-3.6.237-1.165 1.53-5.884 6.963-5.884 5.535 0 6.782 4.96 6.978 5.965-.5058793 1.2166177-1.1029101 2.3932966-1.786 3.52-1.6 2.663-1.322 4.654-.715 5.943-2.9217261.7569173-5.9874074.7627652-8.912.017zm15.485 1.556c-1.8285209.1069052-3.5854615-.7253894-4.661-2.208-.822-1.452-.172-3.127.518-4.277 3.107-5.179 3.143-8.381 3.143-8.515.0000135-.5495626-.4434509-.9961531-.993-1-.266546-.0082138-.524866.0928834-.7150303.2798374-.1901642.1869539-.2956446.4435154-.2919697.7101626-.015768.2622826-.0491769.5232059-.1.781-1.492444-3.0049701-4.5962113-4.8676209-7.95-4.771-3.3271641-.0969132-6.4109592 1.7366105-7.915 4.706-.0428039-.2353813-.0711901-.4731574-.085-.712-.0016569-.5522847-.4507153-.9986568-1.003-.997-.5522847.0016569-.9986568.4507153-.997 1.003 0 .134.036 3.336 3.143 8.515.69 1.15 1.339 2.825.518 4.277-1.0755385 1.4826106-2.8324791 2.3149052-4.661 2.208-1.055 0-2.523-.683-3.6-2.716-.0163591-.0412018-.0353999-.0812877-.057-.12-.9974479-2.2514531-1.4572418-4.7041439-1.343-7.164 0-6.877 4.353-11.946 6.018-13.634 3.0112982 1.8042881 6.47253 2.7176206 9.982 2.634 3.5194293.0846701 6.9901702-.8348716 10.006-2.651.6529912.6688705 1.2635159 1.3779209 1.828 2.123.0581279.1259077.142316.2380449.247.329 1.1812797 1.5951571 2.1381965 3.3447941 2.844 5.2.0213897.1233596.0669273.2412816.134.347.648586 1.8141365.9837035 3.7254223.991 5.652.1175009 2.4831451-.354001 4.9588725-1.376 7.225-.0233197.0401419-.0437062.0819175-.061.125-1.07 1.984-2.519 2.65-3.563 2.65zm10.311-13.187c.7771028-.3364002 1.6526896-.3664081 2.451-.084l.063.03c.8325986.409432 1.462625 1.1401904 1.745 2.024.6123994 2.0515563.4552391 4.2560663-.442 6.2-1.487 3.534-4.618 5.733-6.824 4.809-.8387856-.3988839-1.474104-1.1283771-1.754-2.014 1.0520991-2.4536808 1.5473068-5.1100432 1.45-7.778 0-.112-.013-.219-.015-.331.8059048-1.2564346 1.9621696-2.2493066 3.326-2.856zm.986-8.008c-1.7685668-.440956-3.6384393-.1973547-5.235.682-.5505707.3746058-1.0107265.8672151-1.347 1.442-.3892968-.7592827-.8192544-1.4970205-1.288-2.21 3.883-1.182 5.5-5.147 6.13-7.6.0685589-.2587585.2385859-.4789275.4716031-.610682s.5093261-.1639563.7663969-.089318c2.2956385.6245626 4.3019589 2.0294111 5.674 3.973-2.2556242.7005908-4.1251378 2.29575-5.172 4.413z"/><path id="Shape" d="m8 48c-1.65685425 0-3 1.3431458-3 3s1.34314575 3 3 3 3-1.3431458 3-3-1.34314575-3-3-3zm0 4c-.55228475 0-1-.4477153-1-1s.44771525-1 1-1 1 .4477153 1 1-.44771525 1-1 1z"/><path id="Shape" d="m52 54c1.6568542 0 3-1.3431458 3-3s-1.3431458-3-3-3-3 1.3431458-3 3 1.3431458 3 3 3zm0-4c.5522847 0 1 .4477153 1 1s-.4477153 1-1 1-1-.4477153-1-1 .4477153-1 1-1z"/><path id="Shape" d="m28 47h4c.5522847 0 1-.4477153 1-1s-.4477153-1-1-1h-4c-.5522847 0-1 .4477153-1 1s.4477153 1 1 1z"/><path id="Shape" d="m31 53h-2c-.5522847 0-1 .4477153-1 1s.4477153 1 1 1h2c.5522847 0 1-.4477153 1-1s-.4477153-1-1-1z"/><path id="Shape" d="m33 49h-6c-.5522847 0-1 .4477153-1 1s.4477153 1 1 1h6c.5522847 0 1-.4477153 1-1s-.4477153-1-1-1z"/></g></g></g></svg>