<svg id="Layer_1" enable-background="new 0 0 512 512" height="512" viewBox="0 0 512 512" width="512" xmlns="http://www.w3.org/2000/svg"><g><g><g><g><circle cx="255.986" cy="41.703" fill="#f7ce34" r="34.203"/><path d="m374.448 181.149h-236.924v-1.346c0-61.163 40.859-114.789 99.828-131.023 6.07-1.671 12.338-2.518 18.635-2.518 6.296 0 12.564.847 18.635 2.518 58.969 16.234 99.828 69.861 99.828 131.023v1.346z" fill="#47b36b"/><path d="m274.62 48.781c-6.071-1.671-12.338-2.518-18.635-2.518-6.296 0-12.564.847-18.635 2.518-.457.126-.91.261-1.365.391 58.232 16.682 88.462 69.944 88.462 130.632l10 1.346h40v-1.346c.001-61.163-40.858-114.79-99.827-131.023z" fill="#3ea862"/><path d="m123.192 194.476h265.588v49.857h-265.588z" fill="#f7ce34"/><g><g><g><g><g><path d="m119.339 504.5v-45.998c0-75.468 61.179-136.646 136.646-136.646 75.468 0 136.646 61.179 136.646 136.646v45.998z" fill="#47b36b"/><path d="m255.986 321.855c-6.795 0-13.471.503-20 1.461 65.986 9.679 106.647 66.512 106.647 135.185v45.999h50v-45.998c-.001-75.468-61.179-136.647-136.647-136.647z" fill="#3ea862"/><path d="m305.671 297.344c-21.222 0-39.742 11.518-49.685 28.636-9.944-17.118-28.464-28.636-49.685-28.636-31.721 0-57.435 25.714-57.435 57.435s25.715 57.435 57.435 57.435c21.222 0 39.742-11.518 49.685-28.636 9.944 17.118 28.464 28.636 49.685 28.636 31.721 0 57.435-25.714 57.435-57.435s-25.714-57.435-57.435-57.435z" fill="#ff595f"/><path d="m396.83 234.253c-9.261-9.261-24.017-9.629-33.745-1.154v-38.623h-214.198v38.623c-9.728-8.475-24.485-8.106-33.745 1.154-6.287 6.287-17.511 17.511-17.511 17.511s14.127 14.127 17.511 17.511c9.261 9.261 24.017 9.629 33.745 1.154v6.004c0 59.032 47.873 96.886 106.928 96.886h.343c59.055 0 106.928-37.855 106.928-96.886v-6.004c9.728 8.475 24.485 8.107 33.745-1.154 6.287-6.287 17.511-17.511 17.511-17.511s-14.128-14.127-17.512-17.511z" fill="#ffd7c2"/></g></g></g></g></g><path d="m388.806 147.067c0-12.805-10.381-23.186-23.186-23.186-10.167 0-18.799 6.547-21.927 15.652-3.128-9.106-11.76-15.652-21.927-15.652s-18.799 6.547-21.927 15.652c-3.128-9.106-11.76-15.652-21.927-15.652s-18.799 6.547-21.927 15.652c-3.128-9.106-11.76-15.652-21.927-15.652s-18.799 6.547-21.927 15.652c-3.128-9.106-11.76-15.652-21.927-15.652s-18.799 6.547-21.927 15.652c-3.128-9.106-11.76-15.652-21.927-15.652-12.805 0-23.186 10.381-23.186 23.186v47.409h265.641v-47.409z" fill="#ff595f"/><g><path d="m365.621 123.881c-10.167 0-18.799 6.547-21.927 15.652-3.128-9.106-11.76-15.652-21.927-15.652-1.029 0-2.038.084-3.032.214 11.331 1.522 20.071 11.223 20.071 22.971v47.409h50v-47.409c0-12.804-10.38-23.185-23.185-23.185z" fill="#ff4249"/></g></g><g fill="#f7ce34"><circle cx="255.986" cy="449.39" r="16.422"/><path d="m239.564 504.5c0-9.07 7.352-16.422 16.422-16.422s16.422 7.352 16.422 16.422z"/></g></g></g><g><path d="m419.645 246.461-17.511-17.511c-1.797-1.797-3.77-3.323-5.854-4.607 0-25.759.027-51.517.027-77.276 0-16.4-12.932-29.836-29.135-30.646-14.89-30.193-39.769-53.964-70.102-67.52 4.374-25.119-15.564-48.901-41.084-48.901-25.516 0-45.454 23.775-41.086 48.892-6.93 3.094-13.609 6.728-19.979 10.895-7.854 5.138.001 17.927 8.212 12.553 11.137-7.286 23.319-12.779 36.208-16.328 10.845-2.984 22.445-2.984 33.289 0 34.146 9.4 62.775 32.437 79.322 63.59-3.065 1.527-5.86 3.552-8.258 5.999-5.65-5.767-13.49-9.219-21.927-9.219s-16.277 3.452-21.927 9.219c-5.65-5.767-13.49-9.219-21.927-9.219s-16.277 3.452-21.927 9.219c-5.65-5.767-13.49-9.219-21.927-9.219s-16.277 3.452-21.927 9.219c-5.65-5.767-13.49-9.219-21.927-9.219s-16.277 3.452-21.927 9.219c-2.397-2.446-5.19-4.47-8.253-5.997 4.957-9.331 11.029-18.023 18.131-25.885 6.291-6.966-4.555-17.337-11.132-10.055-8.898 9.852-16.348 20.869-22.211 32.756-16.208.804-29.147 14.243-29.147 30.646 0 25.76.027 51.517.027 77.276-2.085 1.284-4.057 2.81-5.854 4.607l-17.511 17.511c-2.891 2.89-2.891 7.716 0 10.606l17.511 17.511c8.508 8.509 20.774 11.284 31.725 8.159.772 13.695 4.061 26.451 9.487 37.937-9.053 14.661-11.711 32.086-8.076 48.349-20.102 25.375-31.135 56.993-31.135 89.478v46c0 4.142 3.358 7.5 7.5 7.5s7.5-3.358 7.5-7.5v-45.998c0-26.005 7.893-51.388 22.418-72.714 11.262 20.746 33.65 33.905 57.225 33.904 18.947-.001 37.347-8.646 49.518-23.136 11.832 13.983 29.329 22.618 47.836 23.132 9.382.242 10.226-14.721.417-14.994-16.801-.467-32.504-9.659-41.253-24.038 38.414-1.784 70.113-18.566 88.923-44.713 7.397 18.15 3.009 40.08-10.802 54.005-6.733 6.788 4.093 17.174 10.649 10.563 4.388-4.424 8.044-9.396 10.939-14.731 14.528 21.328 22.423 46.713 22.423 72.721v45.999c0 4.142 3.358 7.5 7.5 7.5s7.5-3.358 7.5-7.5v-45.998c0-32.479-11.029-64.093-31.125-89.465 2.347-10.41 2.146-21.411-.861-32.016-1.636-5.769-4.068-11.245-7.224-16.346 5.426-11.486 8.715-24.242 9.487-37.937 10.951 3.126 23.216.35 31.725-8.159l17.511-17.511c2.928-2.929 2.928-7.678-.001-10.607zm-184.285-204.912c-2.02.556-4.02 1.166-6.007 1.807-.748-12.298 7.284-23.802 19.133-27.277v8.921c0 4.142 3.358 7.5 7.5 7.5s7.5-3.358 7.5-7.5v-8.92c11.85 3.474 19.882 14.98 19.133 27.278-15.429-4.981-31.505-6.145-47.259-1.809zm135.225 179.193v-18.765h10.695v17.635c-3.587-.216-7.206.155-10.695 1.13zm-239.92-73.675c0-8.649 7.037-15.686 15.686-15.686 6.697 0 12.659 4.255 14.834 10.588 2.27 6.61 11.916 6.61 14.187 0 2.175-6.333 8.137-10.588 14.833-10.588 6.697 0 12.659 4.255 14.834 10.588 2.27 6.61 11.916 6.61 14.187 0 2.175-6.333 8.137-10.588 14.834-10.588s12.658 4.255 14.833 10.588c2.27 6.61 11.916 6.61 14.187 0 2.175-6.333 8.137-10.588 14.834-10.588s12.658 4.255 14.833 10.588c2.27 6.61 11.916 6.61 14.187 0 2.175-6.333 8.137-10.588 14.834-10.588s12.658 4.255 14.833 10.588c2.27 6.61 11.916 6.61 14.187 0 2.175-6.333 8.137-10.588 14.834-10.588 8.649 0 15.686 7.037 15.686 15.686v39.91h-250.643zm.027 54.91h10.695v18.765c-3.489-.975-7.108-1.345-10.695-1.13zm91.398 200.189c-19.667 6.556-41.646.101-54.688-16.07-11.323-14.041-13.835-33.632-7.31-50.09 18.817 26.113 50.5 42.872 88.889 44.651-6.096 10.009-15.837 17.823-26.891 21.509zm169.437-138.193c-6.379 6.38-16.708 6.733-23.516.802-4.76-4.148-12.426-.658-12.426 5.655.661 57.601-43.247 95.553-99.771 95.39-56.319 0-100.087-38.014-99.428-95.39 0-6.266-7.582-9.874-12.426-5.655-6.808 5.929-17.137 5.577-23.516-.802l-12.208-12.208 12.208-12.208c6.38-6.379 16.709-6.732 23.516-.802 4.76 4.148 12.426.657 12.426-5.655v-31.123h199.198v31.123c0 6.314 7.666 9.802 12.426 5.655 6.808-5.93 17.137-5.577 23.516.802l12.208 12.208z"/><path d="m172.59 461.034c-4.142 0-7.5 3.358-7.5 7.5v35.966c0 4.142 3.358 7.5 7.5 7.5s7.5-3.358 7.5-7.5v-35.966c0-4.142-3.358-7.5-7.5-7.5z"/><path d="m339.381 461.034c-4.142 0-7.5 3.358-7.5 7.5v35.966c0 4.142 3.358 7.5 7.5 7.5s7.5-3.358 7.5-7.5v-35.966c0-4.142-3.358-7.5-7.5-7.5z"/><path d="m205.652 232.284c-4.142 0-7.5 3.358-7.5 7.5v19.883c0 4.142 3.358 7.5 7.5 7.5s7.5-3.358 7.5-7.5v-19.883c0-4.142-3.358-7.5-7.5-7.5z"/><path d="m306.319 232.284c-4.142 0-7.5 3.358-7.5 7.5v19.883c0 4.142 3.358 7.5 7.5 7.5s7.5-3.358 7.5-7.5v-19.883c0-4.142-3.358-7.5-7.5-7.5z"/><path d="m275.684 316.552c-10.861 10.861-28.535 10.861-39.396 0-2.929-2.929-7.678-2.929-10.606 0-2.929 2.929-2.929 7.678 0 10.606 8.355 8.355 19.33 12.533 30.305 12.533s21.95-4.178 30.305-12.533c2.929-2.929 2.929-7.678 0-10.606-2.93-2.928-7.679-2.928-10.608 0z"/><path d="m255.986 425.468c-13.19 0-23.922 10.731-23.922 23.922s10.731 23.922 23.922 23.922c13.19 0 23.922-10.731 23.922-23.922s-10.732-23.922-23.922-23.922zm0 32.844c-4.919 0-8.922-4.002-8.922-8.922s4.002-8.922 8.922-8.922c4.919 0 8.922 4.002 8.922 8.922s-4.003 8.922-8.922 8.922z"/><path d="m255.986 480.578c-13.19 0-23.922 10.731-23.922 23.922 0 4.142 3.358 7.5 7.5 7.5s7.5-3.358 7.5-7.5c0-4.919 4.002-8.922 8.922-8.922 4.919 0 8.922 4.002 8.922 8.922 0 4.142 3.358 7.5 7.5 7.5s7.5-3.358 7.5-7.5c0-13.19-10.732-23.922-23.922-23.922z"/></g></g></svg>