<svg id="Filled_stroke_cut_Ex" height="512" viewBox="0 0 512 512" width="512" xmlns="http://www.w3.org/2000/svg" data-name="Filled stroke cut Ex"><path d="m56 184h400v240h-400z" fill="#f15a57"/><path d="m104 184h304v304h-304z" fill="#fdc069"/><path d="m24 112h464v32h-464z" fill="#fdc069"/><path d="m472 144h-432l16 40h400z" fill="#f15a57"/><path d="m40 424h64v64h-64z" fill="#994635"/><path d="m408 424h64v64h-64z" fill="#994635" transform="matrix(-1 0 0 -1 880 912)"/><path d="m376 448h-240v-144a80 80 0 0 1 80-80h80a80 80 0 0 1 80 80z" fill="#fffdfb"/><path d="m184 264q-.99 0-1.959.079a24 24 0 0 0 17.959 39.921q.99 0 1.959-.079a24 24 0 0 0 -17.959-39.921z" fill="#f15a57"/><path d="m336 272q.99 0 1.959.079a24 24 0 0 1 -17.959 39.921q-.99 0-1.959-.079a24 24 0 0 1 17.959-39.921z" fill="#f15a57"/><g><ellipse cx="256" cy="52.281" fill="#fdc069" rx="16" ry="27.719"/><path d="m276.251 112h-40.5a20 20 0 0 1 -18.974-26.325l7.223-21.675h64l7.225 21.675a20 20 0 0 1 -18.974 26.325z" fill="#9fdc6e"/></g><g><ellipse cx="416.267" cy="52.281" fill="#fdc069" rx="16" ry="27.719"/><path d="m436.518 112h-40.5a20 20 0 0 1 -18.973-26.325l7.222-21.675h64l7.225 21.675a20 20 0 0 1 -18.974 26.325z" fill="#9fdc6e"/></g><g><ellipse cx="96.267" cy="52.281" fill="#fdc069" rx="16" ry="27.719"/><path d="m116.518 112h-40.5a20 20 0 0 1 -18.976-26.325l7.225-21.675h64l7.225 21.675a20 20 0 0 1 -18.974 26.325z" fill="#9fdc6e"/></g><path d="m187.482 344.541a48.839 48.839 0 0 0 -9.692 3.245 45.762 45.762 0 0 0 -.582 23.12c5.883 25.285 31.607 41.117 57.456 35.361a48.873 48.873 0 0 0 9.691-3.245 45.75 45.75 0 0 0 .583-23.12c-5.884-25.285-31.607-41.117-57.456-35.361z" fill="#d63924"/><path d="m324.518 344.541a48.839 48.839 0 0 1 9.692 3.245 45.762 45.762 0 0 1 .582 23.12c-5.883 25.285-31.607 41.117-57.456 35.361a48.873 48.873 0 0 1 -9.691-3.245 45.75 45.75 0 0 1 -.583-23.12c5.884-25.285 31.607-41.117 57.456-35.361z" fill="#d63924"/><ellipse cx="256" cy="351.438" fill="#f15a57" rx="32" ry="55.438"/><path d="m192 400h128v48h-128z" fill="#994635"/><circle cx="192" cy="424" fill="#f15a57" r="24"/><circle cx="320" cy="424" fill="#f15a57" r="24"/><g><path d="m488 104h-26.168a27.659 27.659 0 0 0 1.25-20.854l-7.226-21.676a8 8 0 0 0 -7.589-5.47h-8.167q.169-1.845.171-3.719a40.144 40.144 0 0 0 -20-34.643 8 8 0 0 0 -8.011 0 40.144 40.144 0 0 0 -19.994 34.643q0 1.872.17 3.719h-8.17a8 8 0 0 0 -7.59 5.47l-7.225 21.675a27.656 27.656 0 0 0 1.249 20.855h-69.135a27.663 27.663 0 0 0 1.25-20.854l-7.225-21.676a8 8 0 0 0 -7.59-5.47h-8.17q.17-1.847.17-3.719a40.144 40.144 0 0 0 -19.994-34.643 8 8 0 0 0 -8.012 0 40.144 40.144 0 0 0 -19.994 34.643q0 1.872.17 3.719h-8.17a8 8 0 0 0 -7.59 5.47l-7.225 21.676a27.663 27.663 0 0 0 1.25 20.854h-68.6a27.659 27.659 0 0 0 1.25-20.854l-7.229-21.676a8 8 0 0 0 -7.589-5.47h-8.167q.169-1.845.171-3.719a40.144 40.144 0 0 0 -19.995-34.643 8 8 0 0 0 -8.011 0 40.144 40.144 0 0 0 -19.998 34.643q0 1.872.17 3.719h-8.17a8 8 0 0 0 -7.59 5.47l-7.225 21.675a27.656 27.656 0 0 0 1.248 20.855h-26.7a8 8 0 0 0 -8 8v32a8 8 0 0 0 8 8h10.584l13.416 33.541v30.459h16v-24h32v224h-32v-184h-16v184h-8a8 8 0 0 0 -8 8v64a8 8 0 0 0 8 8h432a8 8 0 0 0 8-8v-64a8 8 0 0 0 -8-8h-8v-32h-16v32h-32v-224h32v176h16v-182.459l13.416-33.541h10.584a8 8 0 0 0 8-8v-32a8 8 0 0 0 -8-8zm-79.733-51.719a24.1 24.1 0 0 1 8-17.884 24.051 24.051 0 0 1 7.715 21.603h-15.43a24.183 24.183 0 0 1 -.285-3.719zm-21.987 46.735a11.869 11.869 0 0 1 -1.648-10.811l5.4-16.2h52.468l5.4 16.2a12 12 0 0 1 -11.381 15.795h-40.5a11.872 11.872 0 0 1 -9.739-4.984zm-138.28-46.735a24.1 24.1 0 0 1 8-17.881 24.051 24.051 0 0 1 7.715 21.6h-15.43a24.183 24.183 0 0 1 -.285-3.719zm-21.986 46.736a11.872 11.872 0 0 1 -1.65-10.812l5.4-16.2h52.468l5.4 16.2a12 12 0 0 1 -11.38 15.795h-40.5a11.872 11.872 0 0 1 -9.738-4.983zm-137.747-46.736a24.1 24.1 0 0 1 8-17.884 24.051 24.051 0 0 1 7.715 21.603h-15.43a24.183 24.183 0 0 1 -.285-3.719zm-21.987 46.735a11.869 11.869 0 0 1 -1.648-10.811l5.4-16.2h52.468l5.4 16.2a12 12 0 0 1 -11.381 15.795h-40.5a11.872 11.872 0 0 1 -9.739-4.984zm-18.28 332.984h48v48h-48zm320 8h-20.3a31.986 31.986 0 0 0 -15.6-45.623 54.314 54.314 0 0 0 9.794-48.806 8 8 0 0 0 -4.365-5.063 57.17 57.17 0 0 0 -42.693-1.892 72.322 72.322 0 0 0 -34.833-49.541 8 8 0 0 0 -8.012 0 72.322 72.322 0 0 0 -34.833 49.541 57.17 57.17 0 0 0 -42.693 1.892 8 8 0 0 0 -4.365 5.063 54.316 54.316 0 0 0 9.794 48.806 31.986 31.986 0 0 0 -15.594 45.623h-20.3v-136a72.081 72.081 0 0 1 72-72h80a72.081 72.081 0 0 1 72 72zm-192-16a16 16 0 1 1 16 16 16.019 16.019 0 0 1 -16-16zm40.116-68.478a71.916 71.916 0 0 0 12.394 36.478h-28.01a38.666 38.666 0 0 1 -15.5-22.908 38.067 38.067 0 0 1 -.38-15.436 41.575 41.575 0 0 1 4.6-1.307 40.62 40.62 0 0 1 26.896 3.173zm15.884-4.084a56.237 56.237 0 0 1 24-45.962 56 56 0 0 1 6.608 86.524h-13.216a55.959 55.959 0 0 1 -17.392-40.562zm63.884 4.084a40.612 40.612 0 0 1 26.9-3.173 41.575 41.575 0 0 1 4.6 1.307 38.072 38.072 0 0 1 -.38 15.437 38.667 38.667 0 0 1 -15.504 22.907h-28.01a71.916 71.916 0 0 0 12.394-36.478zm-76.179 52.478h72.595a31.95 31.95 0 0 0 0 32h-72.59a31.95 31.95 0 0 0 0-32zm84.295 16a16 16 0 1 1 16 16 16.019 16.019 0 0 1 -16-16zm-160 56v-24h224v24zm320-48v48h-48v-48zm-64 48h-16v-176a88.1 88.1 0 0 0 -88-88h-80a88.1 88.1 0 0 0 -88 88v176h-16v-288h288zm50.584-304h-389.168l-9.6-24h408.368zm29.416-40h-448v-16h448z"/><path d="m128 216h16v16h-16z"/><path d="m368 216h16v16h-16z"/><path d="m184 256c-.857 0-1.732.035-2.6.1a8.005 8.005 0 0 0 -5.344 2.666 32 32 0 0 0 23.944 53.234c.857 0 1.732-.035 2.6-.1a8.005 8.005 0 0 0 5.344-2.666 32 32 0 0 0 -23.944-53.234zm13.935 39.867a16 16 0 0 1 -11.87-23.734 16 16 0 0 1 11.87 23.734z"/><path d="m338.6 264.105c-.867-.069-1.743-.105-2.6-.105a32 32 0 0 0 -23.944 53.229 8 8 0 0 0 5.34 2.666c.867.069 1.743.105 2.6.105a32 32 0 0 0 23.944-53.229 8 8 0 0 0 -5.34-2.666zm-16.539 39.762a16 16 0 0 1 11.87-23.734 16 16 0 0 1 -11.87 23.734z"/><path d="m64 448h16v16h-16z"/><path d="m432 448h16v16h-16z"/></g></svg>