<svg id="Capa_1" enable-background="new 0 0 512 512" height="512" viewBox="0 0 512 512" width="512" xmlns="http://www.w3.org/2000/svg"><g><g><path d="m365.339 504.5h-123.642c-6.862 0-12.424-5.562-12.424-12.424v-37.134h148.49v37.134c0 6.862-5.562 12.424-12.424 12.424z" fill="#544f57"/><path d="m359.482 454.942v37.134c0 6.862-5.562 12.424-12.424 12.424h18.281c6.862 0 12.424-5.562 12.424-12.424v-37.134z" fill="#454045"/></g><path d="m325.729 93.226v-29.195h-47.373v29.194c0 4.167-2.97 7.764-7.072 8.493-37.809 6.725-66.521 39.744-66.521 79.486v268.402c0 14.196 11.508 25.703 25.704 25.703h143.151c14.196 0 25.703-11.508 25.703-25.703v-268.401c0-39.741-28.711-72.76-66.521-79.486-4.102-.73-7.071-4.327-7.071-8.493z" fill="#da4a54"/><g><path d="m332.801 101.719c-4.102-.73-7.072-4.327-7.072-8.493v-29.195h-18.549v37.342c0 4.167 2.97 7.764 7.072 8.493 37.809 6.725 66.521 39.744 66.521 79.486v268.402c0 6.787-2.635 12.956-6.933 17.55 14.093-.12 25.481-11.577 25.481-25.698v-268.401c0-39.742-28.711-72.761-66.52-79.486z" fill="#d82e3d"/></g><path d="m302.042 35.34v-20.665c0-3.963 3.212-7.175 7.175-7.175h107.97c3.806 0 6.892 3.086 6.892 6.892v8.112c0 2.98-1.915 5.622-4.747 6.549l-115.814 37.934z" fill="#544f57"/><path d="m417.187 7.5h-27.116v31.137l29.261-9.584c2.832-.927 4.747-3.57 4.747-6.549v-8.112c0-3.806-3.086-6.892-6.892-6.892z" fill="#454045"/><path d="m284.512 66.511h-35.482c-3.177 0-5.752-2.575-5.752-5.752v-15.285c0-3.177 2.575-5.752 5.752-5.752h35.483v26.789z" fill="#544f57"/><circle cx="302.042" cy="53.117" fill="#f6f1f1" r="26.943"/><path d="m302.042 26.174c-3.07 0-6.016.521-8.765 1.466 10.576 3.638 18.178 13.666 18.178 25.477s-7.603 21.839-18.178 25.477c2.749.946 5.695 1.466 8.765 1.466 14.88 0 26.943-12.063 26.943-26.943 0-14.881-12.063-26.943-26.943-26.943z" fill="#eadfda"/><path d="m150.709 297.377h-43.472c-2.979 0-5.394-2.415-5.394-5.394v-11.923c0-5.285 4.285-9.57 9.57-9.57h35.12c5.285 0 9.57 4.285 9.57 9.57v11.923c-.001 2.979-2.415 5.394-5.394 5.394z" fill="#da4a54"/><path d="m146.533 270.491h-19.934c5.285 0 9.57 4.284 9.57 9.57v11.923c0 2.979-2.415 5.394-5.394 5.394h19.934c2.979 0 5.394-2.415 5.394-5.394v-11.924c-.001-5.285-4.285-9.569-9.57-9.569z" fill="#d82e3d"/><path d="m150.006 297.377h-42.067l-19.895 147.401c-.885 6.559 3.029 12.563 8.191 12.563h65.477c5.162 0 9.076-6.004 8.191-12.563z" fill="#544f57"/><path d="m169.902 444.778-19.896-147.401h-19.934l19.896 147.401c.885 6.559-3.029 12.563-8.191 12.563h19.934c5.162 0 9.076-6.003 8.191-12.563z" fill="#454045"/><path d="m349.564 373.225h-95.044c-4.352 0-7.881-3.528-7.881-7.881v-126.547c0-4.352 3.528-7.881 7.881-7.881h95.044c4.352 0 7.881 3.528 7.881 7.881v126.548c0 4.352-3.528 7.88-7.881 7.88z" fill="#f6f1f1"/><path d="m349.564 230.916h-17.249c4.352 0 7.881 3.528 7.881 7.881v126.548c0 4.353-3.528 7.881-7.881 7.881h17.249c4.352 0 7.881-3.528 7.881-7.881v-126.548c0-4.353-3.528-7.881-7.881-7.881z" fill="#eadfda"/><g><path d="m417.188 0h-44.473c-4.143 0-7.5 3.357-7.5 7.5s3.357 7.5 7.5 7.5h43.864v7.063l-80.424 26.341c-1.964-14.285-12.717-25.799-26.613-28.898v-4.506h32.633c4.143 0 7.5-3.357 7.5-7.5s-3.357-7.5-7.5-7.5h-32.958c-8.092 0-14.675 6.583-14.675 14.675v4.831c-8.032 1.791-15.013 6.391-19.856 12.717h-25.657c-7.308 0-13.252 5.944-13.252 13.252v.143h-21.496c-51.175 0-92.809 41.634-92.809 92.809v124.563h-10.061c-9.412 0-17.069 7.657-17.069 17.07v11.923c0 4.291 2.115 8.088 5.348 10.433l-10.854 80.416c-.554 4.104 2.324 7.882 6.43 8.436 4.095.554 7.882-2.324 8.436-6.43l10.793-79.962h28.955l19.019 140.905c.284 2.104-.539 3.643-1.011 4.06h-64.971c-.472-.417-1.296-1.955-1.012-4.061l4.139-30.66c.554-4.104-2.324-7.882-6.43-8.436-4.096-.555-7.882 2.324-8.436 6.43l-4.139 30.66c-.783 5.805.888 11.716 4.468 15.812 2.963 3.389 6.925 5.255 11.156 5.255h65.477c4.232 0 8.194-1.866 11.156-5.256 3.581-4.097 5.25-10.007 4.467-15.811l-19.08-141.359c3.233-2.345 5.348-6.143 5.348-10.433v-11.923c0-9.413-7.657-17.07-17.07-17.07h-10.06v-124.563c0-42.903 34.905-77.809 77.809-77.809h21.496v.143c0 7.307 5.944 13.251 13.252 13.251h21.826v19.215c0 .543-.38 1.02-.885 1.109-42.129 7.494-72.707 44.028-72.707 86.87v2.869h-.688c-4.143 0-7.5 3.357-7.5 7.5s3.357 7.5 7.5 7.5h.688v205.992h-.688c-4.143 0-7.5 3.357-7.5 7.5s3.357 7.5 7.5 7.5h.688v29.541c0 15.3 10.405 28.209 24.509 32.041v10.428c0 10.986 8.938 19.924 19.925 19.924h123.642c10.986 0 19.924-8.938 19.924-19.924v-11.379c12.58-4.728 21.559-16.878 21.559-31.09v-29.541h.688c4.143 0 7.5-3.357 7.5-7.5s-3.357-7.5-7.5-7.5h-.688v-122.38c0-4.143-3.357-7.5-7.5-7.5s-7.5 3.357-7.5 7.5v122.381h-179.557v-205.993h179.558v53.071c0 4.143 3.357 7.5 7.5 7.5s7.5-3.357 7.5-7.5v-53.071h.688c4.143 0 7.5-3.357 7.5-7.5s-3.357-7.5-7.5-7.5h-.688v-2.869c0-42.842-30.578-79.376-72.708-86.87-.505-.09-.885-.566-.885-1.109v-25.51c.455-.968.868-1.959 1.233-2.973l15.341-5.025 61.771 15.096c.598.146 1.196.217 1.786.217 3.376 0 6.442-2.296 7.279-5.722.983-4.023-1.481-8.083-5.505-9.065l-38.334-9.368 44.867-14.695c5.929-1.941 9.912-7.438 9.912-13.677v-8.112c0-7.936-6.456-14.392-14.391-14.392zm-268.585 280.061v9.816h-39.26v-9.816c0-1.142.929-2.07 2.069-2.07h35.12c1.142-.001 2.071.928 2.071 2.07zm221.66 212.015c0 2.715-2.209 4.924-4.924 4.924h-123.642c-2.716 0-4.925-2.209-4.925-4.924v-9.266h133.49v9.266zm21.558-72.01v29.541c0 10.037-8.166 18.203-18.204 18.203h-143.15c-10.037 0-18.203-8.166-18.203-18.203v-29.541zm-89.779-386.392c10.721 0 19.443 8.723 19.443 19.443s-8.723 19.442-19.443 19.442-19.443-8.722-19.443-19.442 8.722-19.443 19.443-19.443zm-51.265 13.549h17.336c-.332 1.917-.515 3.884-.515 5.895 0 2.01.183 3.977.515 5.894h-17.336zm141.044 133.982v2.869h-179.557v-2.869c0-35.561 25.374-65.884 60.334-72.103 7.682-1.366 13.258-8.043 13.258-15.877v-9.718c4.829 2.582 10.339 4.052 16.187 4.052s11.358-1.469 16.187-4.052v9.718c0 7.834 5.576 14.511 13.258 15.877 34.959 6.219 60.333 36.543 60.333 72.103z"/><path d="m254.52 223.416c-8.481 0-15.381 6.899-15.381 15.381v126.548c0 8.481 6.899 15.381 15.381 15.381h95.045c8.481 0 15.381-6.899 15.381-15.381v-126.548c0-8.481-6.899-15.381-15.381-15.381zm95.425 15.381v126.548c0 .21-.171.381-.381.381h-95.044c-.21 0-.381-.171-.381-.381v-126.548c0-.21.171-.381.381-.381h95.045c.21 0 .38.171.38.381z"/><path d="m326.57 252.252h-49.056c-4.143 0-7.5 3.357-7.5 7.5s3.357 7.5 7.5 7.5h49.056c4.143 0 7.5-3.357 7.5-7.5s-3.357-7.5-7.5-7.5z"/><path d="m326.57 280.465h-49.056c-4.143 0-7.5 3.357-7.5 7.5s3.357 7.5 7.5 7.5h49.056c4.143 0 7.5-3.357 7.5-7.5s-3.357-7.5-7.5-7.5z"/><path d="m326.57 308.677h-49.056c-4.143 0-7.5 3.357-7.5 7.5s3.357 7.5 7.5 7.5h49.056c4.143 0 7.5-3.357 7.5-7.5s-3.357-7.5-7.5-7.5z"/><path d="m326.57 336.889h-49.056c-4.143 0-7.5 3.357-7.5 7.5s3.357 7.5 7.5 7.5h49.056c4.143 0 7.5-3.357 7.5-7.5s-3.357-7.5-7.5-7.5z"/></g></g></svg>