<svg id="filled_outline" height="512" viewBox="0 0 512 512" width="512" xmlns="http://www.w3.org/2000/svg" data-name="filled outline"><path d="m400 40a54.626 54.626 0 0 0 -38.627-16h-5.089a68.283 68.283 0 0 0 -48.284 20 68.27 68.27 0 0 0 -20 48.277v11.723h-64c0-4 0-7.949 0-11.723a68.27 68.27 0 0 0 -20-48.277 68.283 68.283 0 0 0 -48.284-20h-5.089a54.626 54.626 0 0 0 -38.627 16 54.626 54.626 0 0 0 -16 38.627 80.567 80.567 0 0 0 23.6 56.973l16.4 16.4 8 16h224l8-16 16.4-16.4a80.567 80.567 0 0 0 23.6-56.973 54.626 54.626 0 0 0 -16-38.627z" fill="#074349"/><path d="m218.564 148.376 5.436 3.624h64l5.436-3.624a149.48 149.48 0 0 0 66.564-124.376h-3.716a68.283 68.283 0 0 0 -48.284 20 68.27 68.27 0 0 0 -20 48.277v11.723h-64c0-4 0-7.949 0-11.723a68.27 68.27 0 0 0 -20-48.277 68.283 68.283 0 0 0 -48.284-20h-3.716a149.48 149.48 0 0 0 66.564 124.376z" fill="#16696d"/><path d="m56 216h400a0 0 0 0 1 0 0v247.152a24.848 24.848 0 0 1 -24.848 24.848h-350.304a24.848 24.848 0 0 1 -24.848-24.848v-247.152a0 0 0 0 1 0 0z" fill="#df391d"/><path d="m440 216v215.152a24.848 24.848 0 0 1 -24.848 24.848h-350.304a24.762 24.762 0 0 1 -8.848-1.628v8.78a24.848 24.848 0 0 0 24.848 24.848h350.3a24.848 24.848 0 0 0 24.852-24.848v-247.152z" fill="#912e23"/><rect fill="#df391d" height="80" rx="13.823" width="432" x="40" y="152"/><path d="m458.177 152h-2.177v50.177a13.823 13.823 0 0 1 -13.823 13.823h-402.177v2.177a13.823 13.823 0 0 0 13.823 13.823h404.354a13.823 13.823 0 0 0 13.823-13.823v-52.354a13.823 13.823 0 0 0 -13.823-13.823z" fill="#912e23"/><path d="m248 232-192 192v-96l96-96z" fill="#ef705f"/><path d="m216 488 240-240v-16h-104l-256 256z" fill="#ef705f"/><path d="m440 264 16-16v-16h-16z" fill="#c44235"/><path d="m216 488 32-32h-120l-32 32z" fill="#c44235"/><path d="m400 488 56-56v-88l-144 144z" fill="#ef705f"/><path d="m440 448 16-16v-88l-16 16z" fill="#c44235"/><path d="m288 168h-64v-64a22.627 22.627 0 0 1 32 0 22.627 22.627 0 0 1 32 0z" fill="#16696d"/><path d="m272 97.372v14.88a23.748 23.748 0 0 1 -23.748 23.748h-24.252v32h64v-64a22.558 22.558 0 0 0 -16-6.628z" fill="#074349"/><path d="m400 488 32-32h-88l-32 32z" fill="#c44235"/><path d="m208 152h96v80h-96z" fill="#16696d"/><path d="m352 336 32-32 32 32v-126.843a57.157 57.157 0 0 0 -57.157-57.157h-38.843a80 80 0 0 1 32 64z" fill="#fcdd69"/><path d="m376 312v-96a80 80 0 0 0 -32-64h-24a80 80 0 0 1 32 64v120z" fill="#16696d"/><path d="m358.843 152h-24a57.157 57.157 0 0 1 57.157 57.157v102.843l24 24v-126.843a57.157 57.157 0 0 0 -57.157-57.157z" fill="#16696d"/><path d="m160 336-32-32-32 32v-126.843a57.157 57.157 0 0 1 57.157-57.157h38.843a80 80 0 0 0 -32 64z" fill="#fcdd69"/><path d="m168 152a80 80 0 0 0 -32 64v96l24 24v-120a80 80 0 0 1 32-64z" fill="#16696d"/><path d="m120 209.157a57.157 57.157 0 0 1 57.157-57.157h-24a57.157 57.157 0 0 0 -57.157 57.157v126.843l24-24z" fill="#16696d"/><g fill="#fcd3cd"><path d="m144.544 393.135-13.1-1.706a6.3 6.3 0 0 0 -5.5 2.035l-8.831 9.823a6.3 6.3 0 0 1 -10.879-3.056l-2.425-12.985a6.3 6.3 0 0 0 -3.635-4.6l-12.074-5.365a6.3 6.3 0 0 1 -.456-11.29l11.6-6.319a6.3 6.3 0 0 0 3.252-4.879l1.371-13.138a6.3 6.3 0 0 1 10.6-3.922l9.595 9.08a6.3 6.3 0 0 0 5.645 1.585l12.919-2.756a6.3 6.3 0 0 1 7.005 8.867l-5.671 11.93a6.3 6.3 0 0 0 .236 5.859l6.613 11.435a6.3 6.3 0 0 1 -6.265 9.402z"/><path d="m208.872 459.754-13.1-1.706a6.3 6.3 0 0 0 -5.5 2.035l-8.832 9.823a6.3 6.3 0 0 1 -10.879-3.055l-2.424-12.986a6.3 6.3 0 0 0 -3.635-4.6l-12.07-5.365a6.3 6.3 0 0 1 -.455-11.29l11.6-6.319a6.3 6.3 0 0 0 3.252-4.879l1.372-13.138a6.3 6.3 0 0 1 10.6-3.922l9.594 9.08a6.3 6.3 0 0 0 5.645 1.586l12.919-2.756a6.3 6.3 0 0 1 7.005 8.866l-5.671 11.931a6.3 6.3 0 0 0 .236 5.859l6.614 11.435a6.3 6.3 0 0 1 -6.271 9.401z"/><path d="m232.872 315.754-13.1-1.706a6.3 6.3 0 0 0 -5.5 2.035l-8.832 9.823a6.3 6.3 0 0 1 -10.879-3.055l-2.424-12.986a6.3 6.3 0 0 0 -3.635-4.6l-12.07-5.365a6.3 6.3 0 0 1 -.455-11.29l11.6-6.319a6.3 6.3 0 0 0 3.252-4.879l1.372-13.138a6.3 6.3 0 0 1 10.6-3.922l9.594 9.08a6.3 6.3 0 0 0 5.645 1.586l12.919-2.756a6.3 6.3 0 0 1 7.005 8.866l-5.671 11.931a6.3 6.3 0 0 0 .236 5.859l6.614 11.435a6.3 6.3 0 0 1 -6.271 9.401z"/><path d="m420.9 445.539-8.056-10.469a6.3 6.3 0 0 0 -5.327-2.45l-13.191.7a6.3 6.3 0 0 1 -5.532-9.853l7.468-10.9a6.3 6.3 0 0 0 .683-5.824l-4.745-12.324a6.3 6.3 0 0 1 7.661-8.305l12.671 3.734a6.3 6.3 0 0 0 5.75-1.15l10.259-8.32a6.3 6.3 0 0 1 10.267 4.72l.364 13.2a6.3 6.3 0 0 0 2.87 5.113l11.084 7.187a6.3 6.3 0 0 1 -1.316 11.222l-12.446 4.427a6.3 6.3 0 0 0 -3.976 4.31l-3.41 12.762a6.3 6.3 0 0 1 -11.078 2.22z"/></g><path d="m216 232h80v256h-80z" fill="#16696d"/><path d="m216 456h80v32h-80z" fill="#074349"/><path d="m208 216h96v16h-96z" fill="#074349"/><path d="m360.872 379.754-13.1-1.706a6.3 6.3 0 0 0 -5.5 2.035l-8.832 9.823a6.3 6.3 0 0 1 -10.879-3.055l-2.424-12.986a6.3 6.3 0 0 0 -3.635-4.6l-12.07-5.365a6.3 6.3 0 0 1 -.455-11.29l11.6-6.319a6.3 6.3 0 0 0 3.252-4.879l1.372-13.138a6.3 6.3 0 0 1 10.6-3.922l9.594 9.08a6.3 6.3 0 0 0 5.645 1.586l12.919-2.756a6.3 6.3 0 0 1 7 8.866l-5.671 11.931a6.3 6.3 0 0 0 .236 5.859l6.614 11.435a6.3 6.3 0 0 1 -6.266 9.401z" fill="#fcd3cd"/><path d="m360.29 473.059 5.671-11.931a6.3 6.3 0 0 0 -7-8.866l-12.919 2.756a6.3 6.3 0 0 1 -5.645-1.586l-9.594-9.08a6.3 6.3 0 0 0 -10.6 3.922l-1.372 13.138a6.3 6.3 0 0 1 -3.252 4.879l-11.6 6.319a6.3 6.3 0 0 0 .455 11.29l9.226 4.1h52.121l-5.253-9.082a6.3 6.3 0 0 1 -.238-5.859z" fill="#fcd3cd"/><path d="m248 224h16v240h-16z" fill="#fcdd69"/><path d="m248 152h16v72h-16z" fill="#fcdd69"/><path d="m264 152v-53.151a22.523 22.523 0 0 0 -8 5.151 22.523 22.523 0 0 0 -8-5.151v53.151z" fill="#fcdd69"/><path d="m248 456h16v32h-16z" fill="#e0b329"/><path d="m248 216h16v16h-16z" fill="#e0b329"/><path d="m264 152v-21.979a23.651 23.651 0 0 1 -15.748 5.979h-.252v16z" fill="#e0b329"/><path d="m48 239.205v223.947a32.884 32.884 0 0 0 32.848 32.848h350.3a32.884 32.884 0 0 0 32.852-32.848v-223.947a21.858 21.858 0 0 0 16-21.028v-52.354a21.848 21.848 0 0 0 -21.823-21.823h-62.864l2.746-2.745a87.992 87.992 0 0 0 25.941-62.628 62.627 62.627 0 0 0 -62.627-62.627h-5.089a76.242 76.242 0 0 0 -76.239 74.467 30.737 30.737 0 0 0 -24.045 3.413 30.733 30.733 0 0 0 -24.045-3.413 76.242 76.242 0 0 0 -76.239-74.467h-5.089a62.627 62.627 0 0 0 -62.627 62.627 87.992 87.992 0 0 0 25.941 62.628l2.746 2.745h-62.864a21.848 21.848 0 0 0 -21.823 21.823v52.354a21.858 21.858 0 0 0 16 21.028zm67.313 240.795 30.714-30.714a14.439 14.439 0 0 0 3.157 1.925l11.255 5 2.26 12.106a14.211 14.211 0 0 0 10.19 11.142 14.458 14.458 0 0 0 3.81.539zm86.287-37.078 4.889 8.454-9.685-1.261a14.289 14.289 0 0 0 -12.48 4.619l-6.524 7.266-1.8-9.6a14.3 14.3 0 0 0 -8.25-10.442l-8.924-3.966 8.576-4.672a14.3 14.3 0 0 0 7.383-11.073l1.013-9.713 7.093 6.712a14.288 14.288 0 0 0 12.813 3.6l9.551-2.037-4.193 8.821a14.3 14.3 0 0 0 .538 13.292zm6.4 37.078h-31.136a14.2 14.2 0 0 0 10.527-4.745l8.234-9.159 12.213 1.592c.054.007.108.008.162.015zm0-75.872a14.466 14.466 0 0 0 -2.713.31l-12.045 2.569-2.536-2.4 17.294-17.294zm0-39.441-30.3 30.3a14.316 14.316 0 0 0 -17.453 12.454l-.583 5.582-66.977 66.977h-11.839a16.867 16.867 0 0 1 -16.848-16.848v-35.839l32.993-32.992 1.378 7.379a14.212 14.212 0 0 0 10.19 11.142 14.422 14.422 0 0 0 3.91.542 14.206 14.206 0 0 0 10.592-4.748l8.234-9.159 12.213 1.591a14.3 14.3 0 0 0 14.227-21.339l-6.166-10.662 5.287-11.124a14.214 14.214 0 0 0 -1.695-15 14.4 14.4 0 0 0 -3.567-3.221l.4-.4 2.343 2.344a8 8 0 0 0 13.661-5.666v-32.7a14.3 14.3 0 0 0 5.184 3.909l11.255 5 2.26 12.106a14.211 14.211 0 0 0 10.19 11.142 14.427 14.427 0 0 0 3.91.542 14.143 14.143 0 0 0 7.2-1.975zm-120-57.374v28.687a7.938 7.938 0 0 0 7.587 7.972l-.95 9.1-10.815 5.891a14.293 14.293 0 0 0 .521 25.378l-20.343 20.346v-73.374zm-24 1.374v-68.687h24v44.687zm54.565 43.937a14.3 14.3 0 0 0 12.813 3.6l9.551-2.038-4.192 8.82a14.294 14.294 0 0 0 .536 13.3l4.889 8.454-9.683-1.261a14.292 14.292 0 0 0 -12.479 4.616l-6.529 7.262-1.793-9.6a14.3 14.3 0 0 0 -8.25-10.445l-8.928-3.963 8.575-4.671a14.294 14.294 0 0 0 7.384-11.074l1.014-9.714zm-3.966-23.91 13.4-13.4 12.687 12.686-12.086 12.089-8.629-8.167a14.327 14.327 0 0 0 -5.371-3.208zm93.401-17.614-6.2 6.9-1.8-9.6a14.3 14.3 0 0 0 -8.25-10.442l-8.924-3.966 8.576-4.672a14.3 14.3 0 0 0 7.383-11.073l1.013-9.713 7.093 6.713a14.06 14.06 0 0 0 1.107.932zm0-56.816a14.293 14.293 0 0 0 -23.756 9.163l-1.278 12.25-10.816 5.891a14.358 14.358 0 0 0 -4.15 3.4v-44.988h40zm-40-30.284v-8a72.366 72.366 0 0 1 26.755-56h5.245v64zm185.064 245.625a14.285 14.285 0 0 0 -.727 10.375h-36.982l-4.527-2.012 8.576-4.672a14.294 14.294 0 0 0 7.382-11.073l1.014-9.713 7.093 6.712a14.284 14.284 0 0 0 12.813 3.6l9.551-2.037zm17.33 10.375-2.5-4.314 5.288-11.124a14.338 14.338 0 0 0 -7.181-19.255l14.258-14.258a14.492 14.492 0 0 0 1.256 2.982 14.206 14.206 0 0 0 13.228 7.279l12.3-.653 7.511 9.76a14.234 14.234 0 0 0 6.852 4.859l-24.719 24.724zm34.015-76.125-3.506-9.114 9.367 2.76a14.3 14.3 0 0 0 13.051-2.609l7.585-6.152.269 9.761a14.294 14.294 0 0 0 6.515 11.607l8.194 5.313-9.2 3.272a14.3 14.3 0 0 0 -9.025 9.783l-2.521 9.435-5.954-7.739a14.3 14.3 0 0 0 -11.33-5.581q-.381 0-.763.021l-9.753.518 5.521-8.057a14.3 14.3 0 0 0 1.55-13.218zm38.961 29.442-.6.6.113-.425zm4.63 29.835a16.867 16.867 0 0 1 -16.848 16.848h-11.839l28.687-28.687zm0-65.408-.856-.555-.339-12.312a14.2 14.2 0 0 0 -7.954-12.414l9.149-9.15zm0-57.057-39.6 39.6-6.274-1.849a14.3 14.3 0 0 0 -17.39 18.852l1.851 4.811-43.173 43.172-7.115-6.733a14.3 14.3 0 0 0 -24.052 8.9l-1.279 12.25-10.815 5.891a14.21 14.21 0 0 0 -7.448 13.135c.017.432.06.858.114 1.281h-68.819v-239.997h64v72h16v-20.687l40-40v74.519l-7.7-7.29a14.3 14.3 0 0 0 -24.052 8.9l-1.278 12.25-6.97 3.795v-15.487h-16v128h16v-44.687l15.08-15.079a14.294 14.294 0 0 0 20.311-.979l8.234-9.159 12.213 1.592a14.3 14.3 0 0 0 14.227-21.34l-6.165-10.662 5.288-11.124a14.212 14.212 0 0 0 -1.695-15c-.257-.325-.529-.632-.807-.93l13.314-13.318 26.343 26.343a8 8 0 0 0 13.657-5.657v-44.687l24-24zm-94.4 22.235 4.889 8.454-9.685-1.261a14.287 14.287 0 0 0 -12.48 4.619l-6.524 7.266-1.8-9.6a14.3 14.3 0 0 0 -8.25-10.442l-8.924-3.966 8.576-4.672a14.3 14.3 0 0 0 7.383-11.073l1.013-9.713 7.093 6.712a14.287 14.287 0 0 0 12.813 3.6l.114-.024a7.921 7.921 0 0 0 8.546-.138l-3.3 6.946a14.3 14.3 0 0 0 .536 13.292zm-40.527 16.691-9.073 9.074v-16.224l8.439 3.75zm30.927-155.613h-32v-64h5.245a72.366 72.366 0 0 1 26.755 56zm-11.313 16-28.687 28.687v-28.687zm115.313 4.687-24 24v-28.687h24zm10.177-84.687a5.829 5.829 0 0 1 5.823 5.823v52.354a5.829 5.829 0 0 1 -5.823 5.823h-34.177v-14.843a65.011 65.011 0 0 0 -22.462-49.157zm-50.177 49.157v107.529l-18.343-18.343a8 8 0 0 0 -11.314 0l-18.343 18.343v-100.686a88.449 88.449 0 0 0 -20.153-56h19a49.213 49.213 0 0 1 49.153 49.157zm-40.24-176.716a46.625 46.625 0 0 1 40.24 46.186 72.091 72.091 0 0 1 -21.255 51.314l-14.058 14.059h-60.195a157.051 157.051 0 0 0 55.268-111.559zm-71.76 59.836a60.254 60.254 0 0 1 55.756-60.092 141.123 141.123 0 0 1 -55.756 104.552zm-56 13.1a14.529 14.529 0 0 1 10.343 4.284 8 8 0 0 0 11.314 0 14.626 14.626 0 0 1 18.344-1.9v36.239h-48.001v-36.244a14.523 14.523 0 0 1 8-2.383zm-24 54.623h80v64h-80zm-17.657-110.343a59.877 59.877 0 0 1 17.657 42.62v44.46a141.123 141.123 0 0 1 -55.757-104.552 59.816 59.816 0 0 1 38.1 17.472zm-94.343 28.97a46.625 46.625 0 0 1 40.24-46.186 157.051 157.051 0 0 0 55.268 111.559h-60.2l-14.058-14.059a72.091 72.091 0 0 1 -21.25-51.314zm49.157 81.373h19a88.449 88.449 0 0 0 -20.157 56v100.686l-18.343-18.343a8 8 0 0 0 -11.314 0l-18.343 18.343v-107.529a49.213 49.213 0 0 1 49.157-49.157zm-105.157 5.823a5.829 5.829 0 0 1 5.823-5.823h56.639a65.011 65.011 0 0 0 -22.462 49.157v14.843h-34.177a5.829 5.829 0 0 1 -5.823-5.823z"/></svg>