<svg height="512" viewBox="0 0 512 512" width="512" xmlns="http://www.w3.org/2000/svg"><g id="Flat"><path d="m431.213 168h-92.064a8.014 8.014 0 0 1 -6.876-12.087 88.019 88.019 0 0 0 -74.293-131.893h-.17c-.6-.01-1.21-.02-1.81-.02a88.017 88.017 0 0 0 -76.273 131.913 8.014 8.014 0 0 1 -6.876 12.087h-92.064c-22.43 0-41.21 18.36-40.78 40.78a40 40 0 0 0 39.993 39.22h88v48l-22.09 79.53-9.28 33.41-7.1 25.56a41.618 41.618 0 0 0 -1.53 11.2v.46a41.844 41.844 0 0 0 81.54 13.23l10.42-33.41 10.21-32.79 15.45-49.55a10.87 10.87 0 0 1 20.76 0l19.34 62.06 10.38 33.3 6.36 20.39a41.844 41.844 0 0 0 81.54-13.23v-.46a41.618 41.618 0 0 0 -1.53-11.2l-6.77-24.38-9.25-33.3-22.45-80.82v-48h88a40 40 0 0 0 39.99-39.22c.433-22.42-18.347-40.78-40.777-40.78z" fill="#98543a"/><g fill="#96b268"><path d="m131.8 236-.01.01a18.567 18.567 0 0 0 -4.2 11.98v.01h-34.623a18.641 18.641 0 0 1 4.19-11.99l.01-.01a19.243 19.243 0 0 0 0-24 19.243 19.243 0 0 1 0-24 18.641 18.641 0 0 0 4.2-12 19.44 19.44 0 0 0 -1.69-8h34.63c2.9 6.42 2.07 14.58-2.51 20h-.01a19.243 19.243 0 0 0 0 24h.01a19.243 19.243 0 0 1 .003 24z"/><path d="m420.773 235.99v.01a18.641 18.641 0 0 0 -4.2 12h-34.63a18.641 18.641 0 0 1 4.2-12l.01-.01a19.242 19.242 0 0 0 0-23.99l-.01-.01a19.229 19.229 0 0 1 0-23.99v-.01a18.594 18.594 0 0 0 4.2-11.99 19.406 19.406 0 0 0 -1.69-8h34.63c2.9 6.42 2.06 14.58-2.51 19.99v.01a19.229 19.229 0 0 0 0 23.99v.01a19.229 19.229 0 0 1 0 23.99z"/><path d="m375.7 410.12c-7-1.11-14.7 1.92-18.69 7.83h-.01a19.232 19.232 0 0 1 -23.09 6.52l-.01-.01a17.653 17.653 0 0 0 -7.3-1.54 19.27 19.27 0 0 0 -15.8 8.06 19.117 19.117 0 0 1 -14.7 8.02l-10.38-33.3a19.2 19.2 0 0 0 15.68-8.05h.01a19.228 19.228 0 0 1 23.09-6.52l.01.01a19.228 19.228 0 0 0 23.09-6.52h.01c4.02-5.95 11.8-8.98 18.84-7.8z"/><path d="m230.17 393.19-10.21 32.79a19.942 19.942 0 0 0 -10.56-3.06 17.653 17.653 0 0 0 -7.3 1.54l-.01.01a19.232 19.232 0 0 1 -23.09-6.52h-.01a19.228 19.228 0 0 0 -23.09-6.52v.01a19.3 19.3 0 0 1 -19.27-2.5l9.28-33.41a19.884 19.884 0 0 0 12.08 4.12 17.653 17.653 0 0 0 7.3-1.54h.01a19.219 19.219 0 0 1 23.09 6.51h.01a19.228 19.228 0 0 0 23.09 6.52l.01-.01a19.286 19.286 0 0 1 18.67 2.06z"/></g><path d="m286.888 215.6-30.888-11.029-30.888 11.029a6.815 6.815 0 0 1 -2.293.4 6.819 6.819 0 0 1 -6.819-6.819v-34.362a6.819 6.819 0 0 1 6.819-6.819 6.815 6.815 0 0 1 2.293.4l30.888 11.029 30.888-11.029a6.815 6.815 0 0 1 2.293-.4 6.819 6.819 0 0 1 6.819 6.819v34.362a6.819 6.819 0 0 1 -6.819 6.819 6.815 6.815 0 0 1 -2.293-.4z" fill="#de5540"/><circle cx="224" cy="96" fill="#77412f" r="16"/><circle cx="288" cy="96" fill="#77412f" r="16"/><path d="m256 128a21.812 21.812 0 0 1 -17.6-8.8l-12.8 9.6a38 38 0 0 0 60.8 0l-12.8-9.6a21.812 21.812 0 0 1 -17.6 8.8z" fill="#77412f"/><circle cx="256" cy="248" fill="#ffb431" r="16"/><circle cx="256" cy="296" fill="#ffb431" r="16"/></g></svg>