<?xml version="1.0" encoding="iso-8859-1"?>
<!-- Generator: Adobe Illustrator 19.1.0, SVG Export Plug-In . SVG Version: 6.00 Build 0)  -->
<svg version="1.1" id="Capa_1" xmlns="http://www.w3.org/2000/svg" xmlns:xlink="http://www.w3.org/1999/xlink" x="0px" y="0px"
	 viewBox="0 0 469.988 469.988" style="enable-background:new 0 0 469.988 469.988;" xml:space="preserve">
<g>
	<path style="fill:#FF8985;" d="M260.531,209.456l-9.438-2.934L17.552,440.064c-3.411,3.411-3.411,8.961,0,12.372
		c3.411,3.412,8.961,3.411,12.373,0l233.54-233.54L260.531,209.456z"/>
	<path style="fill:#FFD085;" d="M336.397,192.196l-17.581,24.861l-3.243,20.479c-0.585,3.694-3.774,6.328-7.398,6.328
		c-0.173,0-0.35-0.029-0.524-0.042l-6.582,41.544l48.127-68.054L336.397,192.196z"/>
	<path style="fill:#FFD085;" d="M264.422,194.958l19.932-19.932l-29.079-9.039l-20.477,3.244c-0.397,0.063-0.792,0.094-1.183,0.094
		c-3.591,0-6.75-2.587-7.378-6.226l-42.596,6.749L264.422,194.958z"/>
	<path style="fill:#FFD085;" d="M258.401,22.599l1.084,84.828l25.116,12.797l-0.389-30.447L274.8,71.304
		c-1.88-3.691-0.413-8.207,3.278-10.088C278.079,61.216,258.404,22.601,258.401,22.599z"/>
	<path style="fill:#FFD085;" d="M336.797,103.526l28.837-9.778l14.662-14.662c2.929-2.927,7.678-2.929,10.606,0l30.645-30.645
		l-80.34,27.243L336.797,103.526z"/>
	<path style="fill:#FFD085;" d="M396.65,143.596l-27.842,4.41l18.212,24.405l18.475,9.414c3.599,1.834,5.075,6.172,3.403,9.809
		l38.079,19.402L396.65,143.596z"/>
	<path style="fill:#FFB033;" d="M408.897,191.633c-0.043,0.093-0.078,0.187-0.125,0.279c-1.325,2.6-3.958,4.097-6.688,4.097
		c-1.146,0-2.309-0.264-3.399-0.819l-18.475-9.414l-30.447-0.389l12.797,25.117l84.828,1.084l-0.412-0.552L408.897,191.633z"/>
	<path style="fill:#FFB033;" d="M306.991,243.77c-4.091-0.647-6.882-4.489-6.234-8.58L304,214.711l-9.039-29.078l-19.932,19.932
		l25.182,81.011l0.856-1.21l6.582-41.544C307.43,243.807,307.212,243.805,306.991,243.77z"/>
	<path style="fill:#FFB033;" d="M226.217,162.998c-0.648-4.092,2.143-7.934,6.234-8.581l20.479-3.244l24.862-17.583l-25.117-12.798
		l-69.265,48.984l0.231,0.072l42.596-6.749C226.232,163.064,226.223,163.032,226.217,162.998z"/>
	<path style="fill:#FFB033;" d="M278.621,60.973c3.579-1.484,7.754,0.01,9.544,3.521l9.413,18.475l24.403,18.21l4.41-27.842
		l-66.912-49.933L278.621,60.973z"/>
	<path style="fill:#FFB033;" d="M390.902,89.693l-14.662,14.662l-9.779,28.836l27.842-4.41l26.903-79.334l-29.989,29.989
		C393.819,82.381,393.719,86.875,390.902,89.693z"/>
	<path style="fill:#081C1F;" d="M468.498,214.794l-60.178-80.64l32.313-95.29c0.917-2.703,0.219-5.692-1.799-7.712
		c-2.019-2.019-5.008-2.715-7.712-1.799l-95.289,32.312L255.193,1.489c-2.288-1.707-5.347-1.967-7.89-0.672
		c-2.544,1.296-4.131,3.924-4.095,6.778l1.286,100.611l-82.152,58.098c-2.331,1.647-3.524,4.477-3.077,7.296
		c0.447,2.82,2.455,5.142,5.182,5.989l70.462,21.903L6.945,429.457c-9.26,9.26-9.26,24.327,0,33.587
		c4.63,4.629,10.711,6.944,16.792,6.944c6.082-0.001,12.163-2.315,16.793-6.944l227.964-227.964l21.903,70.463
		c0.848,2.726,3.169,4.734,5.989,5.181c0.393,0.062,0.785,0.093,1.175,0.093c2.409,0,4.703-1.163,6.122-3.17l58.097-82.151
		l100.611,1.285c2.819,0.057,5.482-1.551,6.778-4.094C470.466,220.141,470.206,217.082,468.498,214.794z M17.552,452.436
		c-3.411-3.411-3.411-8.961,0-12.372l233.541-233.541l9.438,2.934l2.934,9.439l-233.54,233.54
		C26.513,455.847,20.963,455.848,17.552,452.436z M421.548,48.44l-0.342,1.007l-26.903,79.334l-27.842,4.41l9.779-28.836
		l14.662-14.662c2.817-2.817,2.917-7.312,0.316-10.257c-0.104-0.117-0.203-0.237-0.316-0.349c-2.929-2.93-7.677-2.928-10.606-0.001
		l-14.662,14.662l-28.837,9.778l4.41-27.842C341.207,75.683,421.547,48.44,421.548,48.44z M447.388,211.586l-84.828-1.084
		l-12.797-25.117l30.447,0.389l18.475,9.414c1.09,0.556,2.253,0.819,3.399,0.819c2.73,0,5.364-1.497,6.688-4.097
		c0.047-0.092,0.082-0.186,0.125-0.279c1.672-3.637,0.196-7.975-3.403-9.809l-18.475-9.414l-18.212-24.405l27.842-4.41
		l50.326,67.439L447.388,211.586z M300.211,286.577l-25.182-81.011l19.932-19.932L304,214.711l-3.243,20.478
		c-0.648,4.091,2.144,7.933,6.234,8.58c0.221,0.035,0.439,0.037,0.658,0.052c0.175,0.012,0.351,0.042,0.524,0.042
		c3.625,0,6.813-2.634,7.398-6.328l3.243-20.479l17.581-24.861l12.797,25.116l-48.127,68.054L300.211,286.577z M296.59,138.667
		c0.062-0.044,0.116-0.096,0.177-0.142c0.125-0.094,0.247-0.192,0.367-0.295c0.132-0.113,0.257-0.23,0.379-0.351
		c0.107-0.105,0.214-0.211,0.315-0.323c0.131-0.146,0.252-0.299,0.371-0.454c0.078-0.102,0.16-0.2,0.234-0.307
		c0.183-0.266,0.351-0.54,0.498-0.826c0.142-0.275,0.252-0.535,0.351-0.797c0.025-0.067,0.044-0.136,0.067-0.203
		c0.07-0.203,0.133-0.408,0.184-0.614c0.019-0.078,0.036-0.156,0.052-0.235c0.045-0.207,0.08-0.414,0.107-0.622
		c0.01-0.075,0.02-0.15,0.027-0.226c0.023-0.242,0.035-0.483,0.035-0.724c0-0.034,0.005-0.066,0.005-0.1l-0.001-0.075
		c0-0.033-0.375-29.342-0.375-29.342l23.488,17.527c0.037,0.028,0.09,0.067,0.09,0.067c0.024,0.018,0.051,0.031,0.075,0.049
		c0.198,0.144,0.404,0.279,0.617,0.404c0.064,0.038,0.13,0.073,0.195,0.109c0.184,0.101,0.373,0.194,0.567,0.279
		c0.074,0.033,0.148,0.066,0.224,0.097c0.193,0.078,0.392,0.146,0.593,0.208c0.073,0.023,0.144,0.049,0.217,0.069
		c0.257,0.071,0.52,0.13,0.789,0.174c0.361,0.059,0.727,0.086,1.094,0.091c0.041,0.001,0.083,0.01,0.124,0.01
		c0.193,0,0.383-0.011,0.573-0.026c0.017-0.001,0.034-0.001,0.051-0.002c0.284-0.024,0.564-0.066,0.841-0.122
		c0.047-0.01,0.094-0.022,0.142-0.032c0.236-0.052,0.467-0.115,0.695-0.189c0.033-0.011,0.066-0.016,0.099-0.027l27.862-9.447
		l-9.411,27.753c-0.006,0.016-0.011,0.033-0.017,0.049l-0.02,0.06c-0.009,0.027-0.013,0.055-0.022,0.082
		c-0.077,0.235-0.142,0.474-0.195,0.717c-0.016,0.072-0.029,0.144-0.042,0.216c-0.039,0.208-0.07,0.417-0.091,0.629
		c-0.008,0.079-0.017,0.158-0.023,0.238c-0.015,0.212-0.018,0.425-0.015,0.64c0.001,0.072-0.002,0.144,0.001,0.215
		c0.013,0.279,0.037,0.56,0.082,0.842c0.044,0.277,0.106,0.543,0.177,0.805c0.018,0.067,0.04,0.134,0.061,0.201
		c0.064,0.211,0.136,0.417,0.217,0.618c0.023,0.057,0.045,0.115,0.069,0.172c0.225,0.522,0.505,1.01,0.834,1.458
		c0.014,0.019,0.025,0.04,0.039,0.06l17.595,23.579l-29.299-0.374c-0.022-0.001-0.043,0-0.065-0.001l-0.053-0.001
		c-0.039-0.001-0.078,0.005-0.117,0.005c-0.205,0-0.411,0.006-0.617,0.024c-0.172,0.013-0.341,0.036-0.51,0.062
		c-0.072,0.011-0.143,0.023-0.214,0.036c-0.208,0.038-0.412,0.082-0.615,0.137c-0.767,0.215-1.458,0.523-2.09,0.934
		c-0.137,0.089-0.263,0.185-0.391,0.28c-0.109,0.08-0.218,0.161-0.321,0.246c-0.089,0.074-0.174,0.151-0.26,0.229
		c-0.138,0.126-0.271,0.255-0.398,0.39c-0.059,0.062-0.118,0.124-0.175,0.188c-0.161,0.182-0.312,0.37-0.453,0.565
		c-0.018,0.025-0.041,0.047-0.059,0.073l-0.039,0.055c-0.025,0.036-16.948,23.965-16.948,23.965l-8.701-27.992
		c-0.009-0.029-0.032-0.102-0.032-0.102c-0.01-0.033-0.026-0.063-0.036-0.096c-0.074-0.228-0.159-0.453-0.256-0.675
		c-0.031-0.071-0.064-0.14-0.097-0.209c-0.089-0.188-0.186-0.372-0.291-0.553c-0.042-0.072-0.082-0.143-0.126-0.213
		c-0.111-0.177-0.231-0.349-0.358-0.518c-0.045-0.06-0.086-0.123-0.133-0.181c-0.172-0.216-0.355-0.425-0.555-0.625
		c-0.213-0.212-0.423-0.395-0.638-0.567c-0.06-0.048-0.124-0.09-0.185-0.136c-0.167-0.125-0.337-0.245-0.512-0.354
		c-0.072-0.045-0.146-0.087-0.219-0.129c-0.178-0.103-0.359-0.199-0.543-0.286c-0.073-0.035-0.145-0.069-0.219-0.102
		c-0.215-0.094-0.434-0.176-0.656-0.249c-0.037-0.012-0.072-0.03-0.11-0.042l-0.084-0.026c-0.011-0.004-28.01-8.707-28.01-8.707
		L296.59,138.667z M321.981,101.179l-24.403-18.21l-9.413-18.475c-1.79-3.511-5.964-5.005-9.544-3.521
		c-0.182,0.076-0.364,0.152-0.543,0.243c-3.692,1.881-5.159,6.397-3.279,10.088l9.413,18.474l0.389,30.447l-25.116-12.797
		l-1.084-84.828c0.003,0.002,1.078,0.804,1.078,0.804l66.912,49.933L321.981,101.179z M183.411,169.776l69.265-48.984l25.117,12.798
		l-24.862,17.583l-20.479,3.244c-4.091,0.647-6.882,4.489-6.234,8.581c0.005,0.034,0.015,0.067,0.021,0.101
		c0.627,3.639,3.786,6.226,7.378,6.226c0.39,0,0.785-0.03,1.183-0.094l20.477-3.244l29.079,9.039l-19.932,19.932l-80.781-25.111
		L183.411,169.776z"/>
</g>
<g>
</g>
<g>
</g>
<g>
</g>
<g>
</g>
<g>
</g>
<g>
</g>
<g>
</g>
<g>
</g>
<g>
</g>
<g>
</g>
<g>
</g>
<g>
</g>
<g>
</g>
<g>
</g>
<g>
</g>
</svg>
