<svg id="Capa_1" enable-background="new 0 0 512 512" height="512" viewBox="0 0 512 512" width="512" xmlns="http://www.w3.org/2000/svg"><g><g><path d="m475.2 363.887c.002-.206.016-.408.016-.614 0-.293-.018-.581-.022-.872l-.892-203.279c-.094-21.425-17.489-38.744-38.914-38.744h-226.411c-21.492 0-38.915 17.422-38.915 38.915v214.677c-34.132 1.382-61.381 29.475-61.381 63.945 0 35.353 28.659 64.012 64.012 64.012s64.012-28.66 64.012-64.012c0-.294-.018-.584-.022-.877h.022v-216.697h171.868v78.985c-34.131 1.382-61.381 29.475-61.381 63.946 0 35.353 28.659 64.012 64.012 64.012 33.955 0 61.72-26.442 63.863-59.856h.149z" fill="#9781dd"/><path d="m176.299 374.01c-1.194-.066-2.395-.107-3.606-.107-2.936 0-5.82.216-8.65.598 22.822 3.619 40.271 23.378 40.271 47.218 0 26.408-21.408 47.816-47.816 47.816-23.84 0-43.599-17.448-47.218-40.27-.383 2.831-.598 5.714-.598 8.65 0 35.353 28.659 64.012 64.012 64.012s64.012-28.659 64.012-64.012c0-9.906-2.252-19.286-6.27-27.658.394.475.787.952 1.173 1.432h3.518v-191.348h3.432v-3.401h-62.258v157.07z" fill="#8962de"/><path d="m475.194 362.401-.892-203.28c-.094-21.425-17.489-38.743-38.914-38.743h-226.411c-6.445 0-12.519 1.576-17.872 4.35h189.334c18.924 0 34.288 15.976 34.37 35.74l.581 138.21c5.981.647 11.858 2.041 17.496 4.357-6.772-2.438-14.071-3.774-21.683-3.774-3.171 0-6.286.24-9.333.685 22.032 3.771 38.805 22.95 38.805 46.057 0 25.815-20.927 46.742-46.742 46.742-23.108 0-42.286-16.773-46.057-38.805-.445 3.048-.685 6.162-.685 9.333 0 35.353 28.659 64.012 64.012 64.012s64.012-28.659 64.012-64.012c.001-.293-.017-.581-.021-.872z" fill="#8962de"/><path d="m138.167 2.465 8.274 23.265c.354.996 1.056 1.785 1.941 2.184l20.67 9.313c2.92 1.316 2.92 5.968 0 7.284l-20.67 9.313c-.885.399-1.586 1.188-1.941 2.184l-8.274 23.265c-1.169 3.287-5.303 3.287-6.472 0l-8.274-23.265c-.354-.996-1.056-1.786-1.941-2.184l-20.67-9.313c-2.92-1.316-2.92-5.968 0-7.284l20.67-9.313c.885-.399 1.586-1.188 1.941-2.184l8.274-23.265c1.17-3.287 5.304-3.287 6.472 0z" fill="#c2b2eb"/><path d="m56.046 156.143 6.138 17.258c.263.739.783 1.324 1.439 1.62l15.333 6.908c2.166.976 2.166 4.427 0 5.403l-15.333 6.908c-.656.296-1.177.881-1.439 1.62l-6.138 17.258c-.867 2.438-3.933 2.438-4.801 0l-6.138-17.258c-.263-.739-.783-1.325-1.439-1.62l-15.333-6.908c-2.166-.976-2.166-4.427 0-5.403l15.333-6.908c.656-.296 1.177-.881 1.439-1.62l6.138-17.258c.868-2.438 3.935-2.438 4.801 0z" fill="#c2b2eb"/><g fill="#9781dd"><ellipse cx="265.931" cy="43.951" rx="18.067" ry="18.067" transform="matrix(.232 -.973 .973 .232 161.6 292.479)"/><circle cx="35.988" cy="118.555" r="7.793"/></g></g><g><path d="m485.273 363.878c.002-.203.015-.403.015-.606 0-.288-.018-.571-.022-.859l-.892-203.336c-.118-26.893-22.094-48.772-48.987-48.772h-226.41c-27.011 0-48.987 21.976-48.987 48.987v205.651c-34.816 6.044-61.382 36.454-61.382 72.972 0 40.85 33.234 74.085 74.084 74.085s74.085-33.234 74.085-74.085c0-.219-.015-.435-.017-.653.002-.076.017-.148.017-.224v-206.625h151.723v59.887c-34.816 6.044-61.382 36.455-61.382 72.972 0 40.85 33.234 74.084 74.085 74.084 38.632 0 70.434-29.727 73.776-67.506.199-.801.312-1.627.308-2.467zm-312.58 127.977c-29.742 0-53.939-24.197-53.939-53.94 0-29.742 24.197-53.939 53.939-53.939s53.94 24.197 53.94 53.939c0 29.743-24.198 53.94-53.94 53.94zm64.012-281.587c-5.563 0-10.073 4.51-10.073 10.073v166.869c-11.923-12.676-28.237-21.175-46.497-23.005v-204.913c0-15.904 12.938-28.842 28.842-28.842h226.411c15.834 0 28.772 12.882 28.842 28.716l.671 153.147c-11.902-12.535-28.118-20.933-46.256-22.751v-69.22c0-5.563-4.509-10.073-10.072-10.073h-171.868zm174.499 206.943c-29.743 0-53.94-24.197-53.94-53.939s24.197-53.94 53.94-53.94c29.742 0 53.939 24.197 53.939 53.94 0 29.742-24.197 53.939-53.939 53.939z" fill="#3c122c"/><g fill="#fff"><path d="m285.232 176.625c-8.521 0-17.103-.089-26.049-.268-5.562-.111-9.981-4.71-9.87-10.271.111-5.562 4.742-9.992 10.271-9.87 17.616.351 33.797.351 50.922 0 5.572-.144 10.163 4.302 10.277 9.864s-4.302 10.163-9.864 10.277c-8.702.179-17.163.268-25.687.268z"/><path d="m227.686 176.36h-11.627c-5.563 0-10.073-4.509-10.073-10.072s4.51-10.073 10.073-10.073h11.627c5.563 0 10.073 4.51 10.073 10.073s-4.51 10.072-10.073 10.072z"/></g></g></g></svg>