<svg id="Capa_1" enable-background="new 0 0 512 512" height="512" viewBox="0 0 512 512" width="512" xmlns="http://www.w3.org/2000/svg"><g><g><path d="m385.629 110.567c16.726 12.649-2.369 59.435 9.017 75.749 11.801 16.908 62.136 15.296 67.99 34.617 5.913 19.515-36.911 46.201-37.286 66.588-.371 20.186 41.487 48.473 34.737 67.955-6.513 18.798-56.693 15.201-69.342 31.927s4.478 64.029-11.836 75.416c-16.908 11.801-55.525-20.771-74.847-14.917-19.515 5.913-33.53 54.385-53.917 54.01-20.186-.371-32.342-49.242-51.825-55.993-18.798-6.513-58.616 24.601-75.342 11.952s2.369-59.435-9.017-75.749c-11.801-16.908-62.136-15.296-67.99-34.618-5.913-19.515 36.911-46.201 37.285-66.588.371-20.186-41.487-48.473-34.737-67.956 6.513-18.798 56.693-15.201 69.342-31.927s-4.478-64.029 11.836-75.416c16.908-11.801 55.525 20.771 74.847 14.917 19.515-5.913 33.53-54.385 53.917-54.01 20.186.371 32.342 49.242 51.825 55.993 18.8 6.516 58.617-24.599 75.343-11.95z" fill="#f6e06e"/><path d="m462.636 220.934c-5.854-19.322-56.189-17.71-67.99-34.618-11.386-16.314 7.708-63.1-9.017-75.748-12.51-9.461-37.938 5.56-57.827 11.008 10.734 11.737-2.987 46.737 5.762 59.273 9.446 13.533 49.734 12.243 54.419 27.708 4.732 15.619-29.544 36.979-29.843 53.297-.297 16.157 33.206 38.798 27.803 54.392-5.213 15.046-45.377 12.167-55.501 25.554s3.584 51.249-9.473 60.363c-13.533 9.446-44.443-16.625-59.908-11.94-15.62 4.732-26.837 43.53-43.156 43.23-16.156-.297-25.887-39.413-41.481-44.816-14.445-5.005-44.387 17.731-58.603 10.598.175 20.621-7.353 49.178 5.158 58.64 16.726 12.649 56.543-18.466 75.342-11.953 19.483 6.751 31.639 55.622 51.825 55.993 20.388.375 34.403-48.098 53.917-54.01 19.322-5.854 57.939 26.718 74.847 14.917 16.314-11.386-.813-58.69 11.836-75.415 12.649-16.726 62.829-13.129 69.342-31.927 6.75-19.482-35.108-47.77-34.737-67.955.374-20.391 43.198-47.076 37.285-66.591z" fill="#dda86a"/><path d="m159.71 150.368c-9.435.092-17.01 7.815-16.92 17.251l.322 33.215-29.644-42.926c-4.249-6.153-12.006-8.825-19.144-6.602-7.139 2.226-12.001 8.835-12.001 16.311v87.29c0 9.435 7.649 17.086 17.086 17.086 9.436 0 17.086-7.65 17.086-17.086v-32.481l27.886 40.38c4.705 6.792 12.966 9.764 20.545 7.393 7.687-2.403 12.852-9.732 12.851-18.404l-.818-84.507c-.091-9.436-7.879-16.957-17.249-16.92z" fill="#a1e8c3"/><path d="m219.312 271.593h36.513c9.436 0 17.086-7.65 17.086-17.086s-7.649-17.086-17.086-17.086h-19.427v-9.157h16.735c9.436 0 17.086-7.65 17.086-17.086 0-9.435-7.649-17.086-17.086-17.086h-16.735v-9.155h19.427c9.436 0 17.086-7.65 17.086-17.086s-7.649-17.086-17.086-17.086h-36.513c-9.436 0-17.086 7.65-17.086 17.086v86.655c0 9.437 7.65 17.087 17.086 17.087z" fill="#a1e8c3"/><path d="m412.529 150.859c-9.251-1.835-18.249 4.168-20.091 13.422l-5.383 27.05-8.905-28.906c-2.777-9.017-12.336-14.069-21.359-11.298-5.95 1.833-10.157 6.625-11.546 12.26l-8.654 27.958-5.381-27.205c-1.832-9.255-10.815-15.282-20.077-13.445-9.257 1.83-15.277 10.819-13.446 20.076l17.039 86.141c.162.816.383 1.62.662 2.404 2.699 7.599 9.905 12.679 17.959 12.679h.131c8.106-.055 15.306-5.249 17.915-12.924.051-.148.099-.299.145-.447l10.27-33.18 10.223 33.183c.071.23.147.461.229.689 2.699 7.599 9.905 12.679 17.959 12.679h.127c8.105-.053 15.305-5.246 17.917-12.918.241-.711.436-1.435.582-2.171l17.107-85.956c1.842-9.254-4.167-18.249-13.423-20.091z" fill="#a1e8c3"/><g fill="#d789b9"><path d="m324.019 308.725c-.059-.157-.121-.314-.184-.469-2.953-7.178-9.873-11.813-17.633-11.813-.008 0-.017 0-.024 0-7.769.01-14.689 4.664-17.628 11.857-.052.127-.102.254-.15.38l-32.839 86.223c-3.359 8.818 1.068 18.691 9.886 22.048 8.82 3.359 18.689-1.066 22.048-9.884l3.987-10.47h29.175l3.932 10.42c2.582 6.843 9.083 11.059 15.988 11.059 2.005 0 4.044-.355 6.03-1.106 8.828-3.33 13.285-13.188 9.953-22.016zm-19.523 53.7 1.639-4.305 1.625 4.305z"/><path d="m463.568 336.261c0-21.954-18.438-39.814-41.101-39.814h-23.239c-.005 0-.01.001-.015.001s-.01-.001-.014-.001c-.548 0-1.088.032-1.623.082-.013.002-.027.001-.041.003-8.655.837-15.422 8.127-15.422 17.001v87.454c0 9.435 7.649 17.086 17.086 17.086 9.436 0 17.086-7.65 17.086-17.086v-8.45l17.372 19.738c3.378 3.838 8.093 5.798 12.833 5.798 4.009 0 8.036-1.403 11.282-4.26 7.083-6.235 7.771-17.031 1.538-24.113l-16.568-18.825c12.423-6.857 20.826-19.798 20.826-34.614zm-41.101-5.643c3.627 0 6.929 2.69 6.929 5.643s-3.303 5.643-6.929 5.643c-1.56 0-3.712.005-6.082.015-.008-2.207-.014-4.203-.014-5.658 0-1.281-.003-3.31-.008-5.643z"/><path d="m127.089 299.437c-7.909-5.149-18.492-2.91-23.64 4.997l-13.409 20.598-13.607-20.84c-5.159-7.902-15.748-10.125-23.647-4.964-7.901 5.159-10.124 15.746-4.965 23.648l25.142 38.504-.097 39.566c-.023 9.435 7.608 17.104 17.044 17.127h.043c9.416 0 17.061-7.622 17.085-17.044l.097-39.624 24.951-38.328c5.148-7.908 2.912-18.491-4.997-23.64z"/><path d="m212.903 331.017c9.436 0 17.086-7.65 17.086-17.086s-7.649-17.086-17.086-17.086h-36.513c-9.436 0-17.086 7.65-17.086 17.086v86.656c0 9.436 7.649 17.086 17.086 17.086h36.513c9.436 0 17.086-7.65 17.086-17.086 0-9.435-7.649-17.086-17.086-17.086h-19.427v-9.157h16.735c9.436 0 17.086-7.65 17.086-17.086s-7.649-17.086-17.086-17.086h-16.735v-9.157h19.427z"/></g><path d="m40.43 59.635 8.284 23.294c.355.997 1.057 1.788 1.943 2.187l20.696 9.324c2.924 1.317 2.924 5.976 0 7.293l-20.696 9.324c-.886.399-1.588 1.19-1.943 2.187l-8.284 23.294c-1.17 3.291-5.309 3.291-6.48 0l-8.284-23.294c-.355-.997-1.057-1.788-1.943-2.187l-20.696-9.324c-2.924-1.317-2.924-5.976 0-7.293l20.696-9.324c.886-.399 1.588-1.19 1.943-2.187l8.284-23.294c1.171-3.291 5.31-3.291 6.48 0z" fill="#faf1a9"/><path d="m478.049 83.625 8.284 23.294c.355.997 1.057 1.788 1.943 2.187l20.696 9.324c2.924 1.317 2.924 5.976 0 7.293l-20.696 9.324c-.886.399-1.588 1.19-1.943 2.187l-8.284 23.294c-1.17 3.291-5.309 3.291-6.48 0l-8.284-23.294c-.355-.997-1.057-1.788-1.943-2.187l-20.696-9.324c-2.924-1.317-2.924-5.976 0-7.293l20.696-9.324c.886-.399 1.588-1.19 1.943-2.187l8.284-23.294c1.171-3.291 5.31-3.291 6.48 0z" fill="#faf1a9"/><path d="m360.89 1.831 6.145 17.279c.263.74.784 1.326 1.441 1.622l15.352 6.916c2.169.977 2.169 4.433 0 5.41l-15.352 6.917c-.657.296-1.178.882-1.441 1.622l-6.145 17.279c-.868 2.441-3.938 2.441-4.807 0l-6.145-17.279c-.263-.74-.784-1.326-1.441-1.622l-15.352-6.917c-2.169-.977-2.169-4.433 0-5.41l15.352-6.916c.657-.296 1.178-.882 1.441-1.622l6.145-17.279c.869-2.441 3.939-2.441 4.807 0z" fill="#faf1a9"/><ellipse cx="89.449" cy="23.19" fill="#f6e06e" rx="7.803" ry="7.803" transform="matrix(.973 -.229 .229 .973 -2.934 21.099)"/><path d="m197.28 41.491c0 7.955-6.449 14.404-14.404 14.404s-14.404-6.449-14.404-14.404 6.449-14.404 14.404-14.404 14.404 6.449 14.404 14.404z" fill="#f6e06e"/></g><g fill="#3c122c"><path d="m278.962 254.508c0-10.446-6.959-19.298-16.485-22.163 8.116-3.597 13.792-11.731 13.792-21.166 0-9.433-5.676-17.567-13.791-21.165 9.525-2.865 16.484-11.716 16.484-22.161 0-12.758-10.379-23.137-23.137-23.137h-36.513c-12.758 0-23.137 10.379-23.137 23.137v86.655c0 12.758 10.379 23.136 23.137 23.136h36.513c12.758 0 23.137-10.378 23.137-23.136zm-70.685 0v-86.655c0-6.085 4.95-11.035 11.035-11.035h36.513c6.085 0 11.035 4.951 11.035 11.035s-4.95 11.034-11.035 11.034h-25.478v21.257h22.786c6.085 0 11.034 4.95 11.034 11.034 0 6.085-4.95 11.035-11.034 11.035h-22.786v21.258h25.478c6.085 0 11.035 4.951 11.035 11.035s-4.95 11.034-11.035 11.034h-36.513c-6.084.002-11.035-4.948-11.035-11.032z"/><path d="m295.717 368.476h20.796l-10.353-27.424z"/><path d="m329.681 306.589-.006-.016c-.077-.202-.156-.404-.244-.62-3.89-9.454-13.008-15.562-23.261-15.562-10.235.015-19.35 6.145-23.224 15.627-.068.167-.134.333-.2.507l-32.839 86.223c-2.2 5.775-2.018 12.062.51 17.701 2.529 5.64 7.102 9.957 12.877 12.155 11.923 4.542 25.316-1.465 29.857-13.385l2.504-6.573h20.82l2.455 6.505c3.379 8.956 12.079 14.974 21.649 14.974 2.792 0 5.54-.503 8.166-1.496 5.782-2.181 10.368-6.483 12.914-12.115s2.746-11.918.564-17.699zm20.948 98.941c-1.214 2.686-3.401 4.737-6.161 5.778-1.257.476-2.566.716-3.891.716-4.564 0-8.714-2.871-10.327-7.144l-5.41-14.335h-37.529l-5.472 14.367c-2.166 5.686-8.551 8.549-14.241 6.383-2.754-1.048-4.934-3.106-6.14-5.796s-1.293-5.689-.244-8.442l32.836-86.214.1-.255c2.007-4.909 6.73-8.088 12.051-8.095 5.297 0 10.021 3.165 12.03 8.049l32.666 86.545c1.042 2.759.947 5.757-.268 8.443z"/><path d="m469.619 336.261c0-20.464-13.852-37.836-32.913-43.723-.822-1.831-1.296-3.475-1.271-4.831.107-5.84 9.172-16.345 16.455-24.784 12.374-14.34 25.17-29.167 20.398-44.913-4.727-15.604-23.482-20.793-41.619-25.812-.861-.238-1.743-.483-2.631-.731l3.848-19.336c2.49-12.511-5.663-24.716-18.176-27.208l-.004-.001c-3.901-.773-7.772-.513-11.327.59 1.317-17.124 1.37-33.885-10.668-42.988-13.495-10.208-32.112-3.172-50.116 3.63-10.173 3.844-22.835 8.629-28.007 6.836-5.676-1.966-12.937-13.923-18.771-23.53-9.768-16.085-19.869-32.717-36.17-33.016-16.478-.308-27.234 16.048-37.661 31.859-6.137 9.307-13.775 20.889-19.366 22.583-5.448 1.651-18.109-3.69-28.28-7.981-17.581-7.415-35.76-15.085-49.415-5.554-13.171 9.193-12.311 28.437-11.479 47.048.061 1.375.123 2.794.18 4.229-5.734-4.008-13.094-5.281-20.103-3.099-9.72 3.031-16.251 11.908-16.251 22.088v19.341c-16.513 3.988-32.493 8.882-37.282 22.705-5.451 15.732 6.878 31.136 18.801 46.033 6.899 8.62 15.485 19.348 15.38 25.038-.05 2.72-2.05 6.454-4.903 10.519-.461-.127-.918-.264-1.39-.363-6.048-1.268-12.229-.108-17.402 3.272-10.155 6.631-13.375 19.94-7.675 30.416-5.263 8.377-8.176 16.969-5.484 25.854 3.763 12.42 16.413 18.242 30.565 22.631l-.068 27.87c-.015 6.18 2.378 11.996 6.737 16.376 4.359 4.381 10.164 6.802 16.401 6.816 6.593 0 12.551-2.784 16.772-7.232-1.637 19.119-3.281 38.852 10.17 49.024 13.495 10.207 32.111 3.172 50.115-3.63 10.174-3.844 22.837-8.631 28.008-6.836 5.675 1.966 12.936 13.922 18.771 23.529 9.768 16.085 19.869 32.718 36.17 33.016.151.003.3.004.45.004 16.199 0 26.88-16.196 37.212-31.863 6.137-9.307 13.775-20.889 19.365-22.583 5.449-1.645 18.109 3.69 28.281 7.981 17.581 7.416 35.76 15.083 49.414 5.555 13.172-9.194 12.311-28.438 11.479-47.049-.002-.041-.004-.084-.005-.125.997.132 2.011.206 3.043.206 10.494 0 19.379-7.023 22.201-16.617l7.715 8.766c4.393 4.989 10.725 7.85 17.374 7.85 5.625 0 11.052-2.049 15.28-5.769 9.574-8.429 10.508-23.077 2.081-32.653l-9.86-11.203c7.316-3.51 13.069-8.339 15.626-15.718 2.008-5.796 1.595-11.547-.315-17.245.211-1.737.32-3.498.32-5.272zm-58.267-179.467c5.966 1.19 9.853 7.009 8.665 12.976l-17.107 85.961c-.092.465-.219.938-.374 1.395-1.783 5.238-6.698 8.781-12.19 8.818h-.127c-5.493 0-10.419-3.478-12.262-8.667-.051-.142-.098-.287-.143-.432l-15.993-51.911-16.066 51.909-.091.281c-1.781 5.238-6.695 8.783-12.186 8.82h-.131c-5.493 0-10.418-3.478-12.258-8.655-.179-.504-.323-1.027-.427-1.551l-17.038-86.142c-.572-2.892.016-5.832 1.656-8.281s4.136-4.113 7.03-4.685c2.891-.576 5.831.014 8.279 1.654 2.448 1.641 4.112 4.137 4.685 7.03l10.022 50.674 15.729-50.811.094-.341c.941-3.815 3.726-6.779 7.448-7.925 5.818-1.787 12.01 1.484 13.8 7.295l15.95 51.777 10.055-50.522c1.187-5.964 7.006-9.857 12.98-8.667zm-322.977 10.823c0-4.855 3.115-9.089 7.749-10.534 1.097-.342 2.212-.506 3.312-.506 3.552 0 6.947 1.72 9.053 4.77l40.865 59.175-.514-52.961c-.059-6.079 4.835-11.073 10.911-11.142h.028c6.082 0 11.071 4.893 11.13 10.927l.817 84.451c.001 5.944-3.457 11.019-8.606 12.628-5.041 1.579-10.574-.458-13.76-5.056l-38.916-56.353v51.891c0 6.084-4.95 11.035-11.034 11.035s-11.035-4.951-11.035-11.035zm-30.326 48.648c1.173-3.386 9.677-6.251 18.224-8.503v38.754c-.902-1.137-1.815-2.278-2.733-3.425-6.888-8.605-17.297-21.61-15.491-26.826zm42.939 184.749c-.015 6.07-4.965 11.008-11.062 11.008-2.947-.007-5.715-1.161-7.795-3.251-2.079-2.089-3.22-4.863-3.213-7.81l.101-41.374-26.131-40.02c-3.326-5.095-1.889-11.946 3.207-15.273 1.816-1.187 3.892-1.8 6.011-1.8.76 0 1.527.08 2.288.239 2.885.606 5.36 2.299 6.972 4.767l18.681 28.611 18.471-28.376c1.608-2.47 4.082-4.167 6.966-4.777 2.885-.607 5.832-.059 8.302 1.549h.001c5.099 3.32 6.547 10.169 3.227 15.268l-25.926 39.827zm272.15 53.536c-4.53 3.156-19.876-3.316-30.031-7.599-15.195-6.411-29.547-12.463-41.969-8.7-12.567 3.807-21.61 17.521-30.355 30.782-5.991 9.085-15.034 22.798-20.396 22.798h-.057c-5.197-.096-13.685-14.072-19.301-23.32-8.292-13.655-16.867-27.774-29.407-32.119-2.978-1.031-6.097-1.477-9.337-1.477-9.895 0-20.909 4.162-32.404 8.504-10.435 3.943-26.206 9.896-30.82 6.411-4.614-3.49-3.176-20.287-2.224-31.401 1.392-16.25 2.706-31.599-4.606-42.076-2.323-3.328-5.434-6.044-9.062-8.342l.012-4.803 23.975-36.829c6.961-10.692 3.925-25.053-6.766-32.013-5.179-3.371-11.362-4.524-17.409-3.247-6.046 1.278-11.232 4.835-14.604 10.014l-8.345 12.819-6.303-9.653c5.449-7.519 9.464-15.228 9.61-23.195.024-1.321-.06-2.634-.232-3.939 2.005.568 4.117.879 6.302.879 12.757 0 23.136-10.379 23.136-23.137v-13.07l16.861 24.416c6.221 8.981 17.203 12.89 27.324 9.723 10.227-3.197 17.098-12.914 17.096-24.237l-.817-84.509c-.123-12.654-10.535-22.912-23.23-22.912-.031 0-.063 0-.094 0h-.035c-12.757.124-23.035 10.603-22.912 23.361l.131 13.469-5.249-7.601c1.887-9.105 1.438-19.682.975-30.048-.477-10.658-1.197-26.766 2.873-29.607 4.525-3.161 19.875 3.314 30.032 7.598 15.195 6.409 29.546 12.46 41.967 8.7 12.567-3.807 21.61-17.521 30.356-30.782 5.991-9.085 15.034-22.798 20.395-22.798h.057c5.197.095 13.684 14.072 19.301 23.319 8.292 13.655 16.867 27.775 29.408 32.12 12.074 4.18 26.483-1.264 41.74-7.027 10.435-3.943 26.207-9.901 30.82-6.411v.001c4.615 3.489 3.176 20.285 2.224 31.399-.145 1.693-.288 3.374-.421 5.043-5.45-8.572-16.161-12.836-26.341-9.71-7.648 2.357-13.607 8.635-15.593 16.411l-1.531 4.947-.739-3.737c-1.2-6.063-4.687-11.295-9.82-14.734-5.135-3.442-11.304-4.674-17.366-3.472-6.063 1.199-11.296 4.687-14.734 9.821-3.439 5.135-4.673 11.302-3.473 17.364l17.039 86.146c.219 1.103.52 2.197.895 3.251 3.549 9.991 13.058 16.704 23.661 16.704h.172c10.68-.073 20.166-6.916 23.601-17.022.07-.206.138-.414.199-.611l4.476-14.462 4.453 14.455c.098.317.202.633.31.935 3.548 9.992 13.057 16.705 23.661 16.705h.167c10.677-.07 20.163-6.909 23.609-17.027.327-.968.592-1.957.785-2.932l9.311-46.785c.4.111.8.225 1.199.335 10.428 2.886 26.187 7.247 27.695 12.221 1.553 5.124-9.23 17.619-16.365 25.888-10.378 12.026-21.11 24.462-21.352 37.591-.019 1.025.047 2.044.149 3.059h-16.217c-.03 0-.059 0-.089 0l-.208.002c-.565.008-1.146.039-1.764.094l-.185.016c-11.91 1.151-20.891 11.05-20.891 23.024v87.42c-.772 7.586-.414 15.854-.051 23.991.478 10.66 1.198 26.767-2.872 29.608zm80.635-45.281c-2.017 1.775-4.604 2.752-7.284 2.752-3.174 0-6.196-1.365-8.291-3.744l-27.965-31.776v24.485c0 6.084-4.95 11.035-11.034 11.035s-11.035-4.951-11.035-11.035v-87.454c0-5.678 4.23-10.376 9.857-10.969l.122-.01c.341-.033.646-.05.926-.054l23.399-.001c19.326 0 35.05 15.146 35.05 33.763 0 12.059-6.782 23.291-17.7 29.314l-6.598 3.64 21.547 24.481c4.018 4.567 3.572 11.554-.994 15.573z"/><path d="m422.467 324.567h-12.168l.013 6.064c.005 2.328.008 4.352.008 5.63 0 1.461.005 3.465.014 5.681l.023 6.053 6.053-.025c2.36-.01 4.503-.015 6.057-.015 7.036 0 12.98-5.356 12.98-11.694.001-6.339-5.943-11.694-12.98-11.694z"/><path d="m236.039 313.931c0-12.758-10.379-23.136-23.137-23.136h-36.513c-12.757 0-23.136 10.378-23.136 23.136v86.657c0 12.758 10.379 23.136 23.136 23.136h36.513c12.758 0 23.137-10.378 23.137-23.136 0-10.446-6.959-19.298-16.485-22.163 8.117-3.597 13.793-11.731 13.793-21.165 0-9.435-5.677-17.569-13.794-21.166 9.526-2.865 16.486-11.716 16.486-22.163zm-23.136 11.035h-25.478v21.259h22.786c6.085 0 11.035 4.95 11.035 11.034s-4.95 11.035-11.035 11.035h-22.786v21.258h25.478c6.084 0 11.035 4.951 11.035 11.035s-4.95 11.034-11.035 11.034h-36.513c-6.084 0-11.034-4.95-11.034-11.034v-86.657c0-6.085 4.95-11.034 11.034-11.034h36.513c6.084 0 11.035 4.95 11.035 11.034-.001 6.086-4.951 11.036-11.035 11.036z"/></g></g></svg>