<svg id="Capa_1" enable-background="new 0 0 512 512" height="512" viewBox="0 0 512 512" width="512" xmlns="http://www.w3.org/2000/svg"><g><g><path d="m501.955 109.358c0-39.368-32.028-71.396-71.396-71.396h-13.445c-12.204 0-22.098 9.893-22.098 22.097s9.893 22.097 22.098 22.097h13.445c14.999 0 27.201 12.202 27.201 27.201v143.784c-19.657-9.185-46.496-13.427-83.07-13.427-53.344 0-184.038 0-237.382 0-36.574 0-63.412 4.242-83.069 13.426v-143.782c0-14.999 12.202-27.201 27.201-27.201h13.445c12.204 0 22.098-9.893 22.098-22.097s-9.893-22.097-22.098-22.097h-13.445c-39.368 0-71.396 32.028-71.396 71.396v226.014c0 .116.007.231.009.347-.035 5.401.066 10.821.169 16.208.084 4.407.17 8.951.184 13.473.213 69.959 57.293 128.307 127.252 128.118 41.631-.113 78.607-20.377 101.679-51.532 8.337-11.258 24.991-11.258 33.328.001 23.067 31.149 60.034 51.411 101.657 51.531 69.968.201 127.061-58.147 127.274-128.115.014-4.522.1-9.067.184-13.475.103-5.387.204-10.807.168-16.209.002-.116.009-.231.009-.347v-226.015zm-439.241 190.247c10.505-10.707 35.601-16.135 74.594-16.135s64.09 5.428 74.594 16.135c1.693 1.725 3.07 3.702 4.195 5.936h-157.577c1.126-2.233 2.502-4.211 4.194-5.936zm74.595 150.157c-18.756 0-36.056-6.272-49.979-16.791h99.959c-13.924 10.52-31.225 16.791-49.98 16.791zm73.03-43.473h-146.06c-3.505-6.438-6.185-13.384-7.901-20.701h161.862c-1.715 7.317-4.396 14.264-7.901 20.701zm10.31-55.194c-.011.604-.022 1.221-.033 1.831h-166.613c-.012-.61-.022-1.228-.034-1.832-.133-6.972-.213-13.237-.089-18.87h166.858c.124 5.634.044 11.898-.089 18.871zm79.447-51.49c10.505-10.707 35.601-16.135 74.594-16.135s64.09 5.428 74.594 16.135c1.452 1.48 2.668 3.149 3.697 5.001h-156.582c1.029-1.852 2.245-3.521 3.697-5.001zm74.594 150.157c-19.276 0-37.02-6.617-51.135-17.669h102.27c-14.114 11.053-31.859 17.669-51.135 17.669zm72.382-42.296h-144.762c-4.204-7.419-7.309-15.539-9.072-24.145h162.906c-1.763 8.606-4.868 16.725-9.072 24.145zm10.959-56.371c-.014.754-.028 1.523-.042 2.285h-166.596c-.014-.763-.027-1.532-.042-2.286-.13-6.811-.209-12.946-.098-18.478h166.875c.112 5.532.032 11.667-.097 18.479z" fill="#d789b9"/><path d="m226.189 406.19c-6.862-9.266-20.568-9.266-27.43-.001-18.988 25.642-49.421 42.32-83.685 42.412-49.775.134-91.622-35.738-102.165-82.661h-2.494c.506 69.717 57.465 127.764 127.243 127.576 41.631-.113 78.607-20.377 101.679-51.531 4.215-5.692 10.556-8.502 16.874-8.438-11.7-7.088-21.909-16.4-30.022-27.357z" fill="#c668b9"/><path d="m480.517 268.962c-19.844-20.226-52.483-29.246-105.827-29.246h-64.53c43.903 0 70.766 7.424 87.099 24.071 5.821 5.932 9.753 12.501 12.399 19.475l24.97 8.569 5.712 14.281h-25.94c.68 8.488.524 17.191.36 25.793h41.574v17.829h-41.961c-.821 12.567-3.87 24.59-8.746 35.658l50.625-.94-8.023 22.011h-54.933c-7.012 9.349-15.522 17.507-25.153 24.096h42.411v14.689h-74.473c-8.388 2.206-17.174 3.382-26.226 3.356-13.253-.038-25.928-2.567-37.593-7.126.134.17.272.335.402.51 23.067 31.149 60.034 51.411 101.656 51.531 69.968.201 127.061-58.147 127.274-128.115.014-4.523.1-9.067.184-13.475.562-29.563 1.144-60.131-21.261-82.967z" fill="#c668b9"/><path d="m346.93 85.708 8.251 23.2c.353.993 1.053 1.78 1.935 2.178l20.612 9.287c2.912 1.312 2.912 5.952 0 7.264l-20.612 9.287c-.883.398-1.582 1.185-1.935 2.178l-8.251 23.2c-1.166 3.278-5.288 3.278-6.453 0l-8.251-23.2c-.353-.993-1.053-1.781-1.935-2.178l-20.612-9.287c-2.912-1.312-2.912-5.952 0-7.264l20.612-9.287c.883-.398 1.582-1.185 1.935-2.178l8.251-23.2c1.165-3.277 5.287-3.277 6.453 0z" fill="#e8c2d8"/><path d="m186.257 10.262 6.12 17.209c.262.737.781 1.321 1.436 1.616l15.29 6.888c2.16.973 2.16 4.415 0 5.388l-15.29 6.889c-.655.295-1.173.879-1.436 1.616l-6.12 17.209c-.865 2.431-3.922 2.431-4.787 0l-6.12-17.209c-.262-.737-.781-1.321-1.435-1.616l-15.29-6.889c-2.16-.973-2.16-4.415 0-5.388l15.29-6.888c.655-.295 1.173-.879 1.435-1.616l6.12-17.209c.864-2.432 3.922-2.432 4.787 0z" fill="#e8c2d8"/><g fill="#d789b9"><ellipse cx="138.434" cy="164.128" rx="18.016" ry="18.016" transform="matrix(.383 -.924 .924 .383 -66.177 229.216)"/><circle cx="324.181" cy="53.641" r="7.772"/></g></g><g fill="#3c122c"><path d="m512 109.358c0-44.906-36.534-81.44-81.44-81.44h-13.445c-17.723 0-32.142 14.419-32.142 32.142s14.419 32.142 32.142 32.142h13.445c9.461 0 17.157 7.696 17.157 17.157v129.171c-19.107-6.026-43.02-8.858-73.026-8.858h-237.382c-30.006 0-53.918 2.832-73.025 8.857v-129.171c0-9.46 7.696-17.157 17.157-17.157h13.445c17.723 0 32.142-14.419 32.142-32.142s-14.419-32.142-32.142-32.142h-13.446c-44.906.001-81.44 36.535-81.44 81.441v226.014c0 .2.01.397.014.596-.035 5.462.065 10.867.166 16.148l.004.234c.081 4.286.166 8.718.178 13.079.112 36.583 14.45 71.172 40.373 97.395 25.978 26.28 60.263 40.738 96.58 40.737h.37c43.01-.117 84.028-20.901 109.723-55.598 2.06-2.782 5.192-4.377 8.593-4.377 3.4 0 6.532 1.595 8.592 4.377 25.689 34.69 66.699 55.475 109.7 55.598h.392c36.314 0 70.598-14.454 96.574-40.727 25.928-26.223 40.268-60.815 40.379-97.402.013-4.363.097-8.795.178-13.081l.004-.235c.1-5.26.199-10.643.166-16.082.004-.221.014-.44.014-.662zm-491.911 0c0-33.829 27.522-61.352 61.352-61.352h13.445c6.646 0 12.053 5.407 12.053 12.053s-5.407 12.053-12.053 12.053h-13.446c-20.537 0-37.245 16.708-37.245 37.245v137.628c-7.601 4.174-14.186 9.135-19.883 14.941-1.499 1.528-2.901 3.088-4.224 4.671v-157.239zm471.647 242.38-.005.233c-.082 4.365-.168 8.878-.181 13.4-.197 65.194-52.588 118.102-116.864 118.102-.11 0-.226 0-.336-.001-36.685-.105-71.681-17.849-93.613-47.465-5.887-7.951-14.903-12.51-24.735-12.511 0 0 0 0-.001 0-9.831 0-18.848 4.56-24.735 12.51-21.937 29.622-56.941 47.366-93.635 47.465-.106.001-.21.001-.316.001-64.269 0-116.665-52.916-116.863-118.105-.014-4.521-.099-9.034-.181-13.398l-.005-.235c-.547-28.754-1.064-55.913 18.387-75.739 17.804-18.145 48.231-26.236 98.658-26.236h237.379c50.428 0 80.855 8.091 98.658 26.236 19.451 19.827 18.934 46.986 18.388 75.743zm-4.049-89.811c-5.697-5.806-12.281-10.767-19.882-14.941v-137.628c0-20.537-16.708-37.245-37.245-37.245h-13.445c-6.646 0-12.053-5.407-12.053-12.053s5.407-12.053 12.053-12.053h13.445c33.83 0 61.352 27.522 61.352 61.352v157.241c-1.324-1.584-2.726-3.144-4.225-4.673z"/><path d="m218.24 379.562h-161.861c-1.84 0-3.579.841-4.723 2.283-1.143 1.442-1.565 3.328-1.145 5.119 1.815 7.74 4.666 15.212 8.475 22.207 1.056 1.939 3.086 3.145 5.293 3.145h146.06c2.207 0 4.237-1.206 5.293-3.144 3.809-6.995 6.66-14.467 8.476-22.208.42-1.792-.002-3.677-1.145-5.119-1.144-1.443-2.883-2.283-4.723-2.283zm-11.573 20.701h-138.715c-1.366-2.81-2.559-5.698-3.572-8.648h145.859c-1.013 2.95-2.206 5.838-3.572 8.648z"/><path d="m220.738 326.197h-166.858c-3.276 0-5.953 2.617-6.025 5.893-.124 5.572-.054 11.673.088 19.111l.033 1.84c.064 3.283 2.743 5.91 6.026 5.91h166.613c3.287 0 5.968-2.634 6.026-5.92l.033-1.823c.141-7.454.211-13.558.089-19.118-.072-3.274-2.747-5.893-6.025-5.893zm-6.043 20.702h-154.772c-.049-3.108-.078-5.967-.077-8.648h154.929c-.001 2.679-.031 5.539-.08 8.648z"/><path d="m58.52 311.568h157.578c2.092 0 4.034-1.085 5.131-2.866 1.098-1.781 1.193-4.004.251-5.873-1.423-2.824-3.199-5.329-5.275-7.444-11.843-12.072-37.65-17.941-78.896-17.941-41.243 0-67.051 5.868-78.897 17.941-2.077 2.118-3.852 4.622-5.274 7.444-.942 1.868-.847 4.091.251 5.873 1.097 1.781 3.039 2.866 5.131 2.866zm78.789-22.071c36.459 0 55.027 4.795 64.433 10.018h-128.867c9.407-5.223 27.973-10.018 64.434-10.018z"/><path d="m187.288 426.945h-99.958c-2.59 0-4.891 1.655-5.714 4.111-.824 2.456.014 5.163 2.081 6.724 15.595 11.781 34.134 18.009 53.612 18.009s38.017-6.227 53.613-18.009c2.067-1.562 2.904-4.269 2.081-6.724-.824-2.456-3.124-4.111-5.715-4.111zm-49.979 16.791c-9.208 0-18.174-1.611-26.615-4.738h53.229c-8.44 3.127-17.407 4.738-26.614 4.738z"/><path d="m456.144 377.294h-162.906c-1.811 0-3.525.814-4.669 2.217-1.145 1.403-1.598 3.245-1.235 5.019 1.858 9.07 5.132 17.786 9.731 25.906 1.07 1.889 3.073 3.056 5.244 3.056h144.763c2.171 0 4.174-1.167 5.244-3.056 4.599-8.119 7.875-16.835 9.732-25.907.363-1.774-.09-3.616-1.235-5.019-1.144-1.403-2.858-2.216-4.669-2.216zm-12.673 24.145h-137.561c-1.984-3.9-3.625-7.941-4.911-12.092h147.385c-1.286 4.151-2.928 8.193-4.913 12.092z"/><path d="m458.129 326.589h-166.875c-3.281 0-5.959 2.624-6.026 5.905-.111 5.476-.041 11.442.097 18.718l.042 2.277c.059 3.286 2.74 5.918 6.026 5.918h166.596c3.286 0 5.967-2.633 6.026-5.918l.041-2.279c.139-7.262.209-13.224.098-18.716-.067-3.281-2.744-5.905-6.025-5.905zm-6.059 20.765h-154.758c-.051-3.134-.082-6.013-.085-8.712h154.93c-.004 2.701-.036 5.579-.087 8.712z"/><path d="m296.399 310.633h156.582c2.135 0 4.111-1.13 5.194-2.97s1.111-4.116.075-5.983c-1.311-2.358-2.879-4.476-4.663-6.295-11.844-12.072-37.652-17.94-78.897-17.94-41.244 0-67.052 5.869-78.896 17.94-1.784 1.819-3.353 3.937-4.663 6.295-1.037 1.867-1.008 4.143.074 5.983 1.084 1.84 3.059 2.97 5.194 2.97zm78.291-21.136c34.271 0 52.734 4.236 62.639 9.083h-125.277c9.905-4.846 28.367-9.083 62.638-9.083z"/><path d="m425.826 426.067h-102.271c-2.571 0-4.859 1.631-5.697 4.061-.839 2.431-.042 5.125 1.981 6.71 15.834 12.398 34.801 18.95 54.85 18.95 20.05 0 39.018-6.553 54.851-18.95 2.024-1.585 2.82-4.28 1.981-6.71-.836-2.43-3.124-4.061-5.695-4.061zm-51.136 17.669c-10.067 0-19.818-1.912-28.907-5.616h57.815c-9.09 3.704-18.841 5.616-28.908 5.616z"/></g></g></svg>