<svg id="Layer_1" enable-background="new 0 0 512.293 512.293" height="512" viewBox="0 0 512.293 512.293" width="512" xmlns="http://www.w3.org/2000/svg"><g><circle cx="248.496" cy="130.473" fill="#ff0100" r="15"/><circle cx="403.391" cy="316.638" fill="#ff0100" r="15"/><circle cx="398.163" cy="137.031" fill="#aad4ff" r="15"/><path d="m276.3 62.796 26.099 14.274c.023.013.042.031.054.054l14.274 26.099c1.338 2.447 3.587 4.351 6.305 4.982 4.268.99 8.512-1.009 10.525-4.689l14.434-26.391c.012-.023.031-.042.054-.054l26.099-14.274c2.447-1.338 4.351-3.587 4.982-6.305.99-4.268-1.009-8.512-4.689-10.525l-26.391-14.433c-.023-.013-.042-.031-.054-.054l-14.275-26.1c-1.338-2.447-3.587-4.351-6.305-4.982-4.268-.99-8.512 1.009-10.525 4.689l-14.434 26.391c-.012.023-.031.042-.054.054l-26.391 14.433c-3.68 2.013-5.679 6.257-4.689 10.525.63 2.719 2.534 4.968 4.981 6.306z" fill="#ffcd00"/><path d="m185.318 19.553c-7.808-2.777-16.384 1.302-19.158 9.108l-15.766 44.343c-2.775 7.805 1.303 16.383 9.108 19.158 1.661.591 3.357.871 5.024.871 6.169 0 11.949-3.834 14.134-9.979l15.766-44.343c2.776-7.805-1.302-16.383-9.108-19.158z" fill="#999ef3"/><path d="m500.956 149.943c-8.032-2.023-16.186 2.846-18.211 10.878l-10.383 41.189c-8.224-4.987-16.134-10.521-23.621-16.528-5.954-4.777-14.015-5.895-21.038-2.915-7.012 2.975-11.804 9.535-12.505 17.122-1.081 11.696-1.931 23.529-2.538 35.33-8.001-4.09-15.949-8.471-23.723-12.756-5.737-3.162-11.668-6.432-17.578-9.563-6.426-3.405-13.996-3.213-20.249.516-6.258 3.731-10.03 10.305-10.09 17.585-.112 13.526-.125 27.254-.037 40.803.053 8.251 6.758 14.903 14.998 14.903h.099c8.284-.053 14.957-6.813 14.903-15.096-.053-8.234-.069-16.534-.047-24.814 1.18.649 2.354 1.297 3.521 1.94 12.312 6.786 25.043 13.804 38.266 19.869 6.312 2.895 13.606 2.448 19.513-1.197 5.888-3.634 9.547-9.93 9.789-16.844.362-10.37.923-20.817 1.674-31.223 8.044 5.592 16.423 10.717 25.045 15.317 4.997 2.665 10.615 3.132 15.817 1.315 5.796-2.023 10.539-6.714 13.354-13.207.323-.745.585-1.514.783-2.301l13.137-52.112c2.024-8.033-2.846-16.186-10.879-18.211z" fill="#b40000"/><circle cx="471.276" cy="40.87" fill="#fff9bf" r="40.724"/><path d="m318.352 156.634-43.864 17.052c-7.721 3.002-11.547 11.694-8.546 19.416 2.308 5.936 7.978 9.569 13.984 9.569 1.807 0 3.646-.329 5.432-1.023l43.864-17.052c7.721-3.002 11.547-11.694 8.546-19.416-3.002-7.721-11.695-11.547-19.416-8.546z" fill="#ff712f"/><path d="m471.276 81.595c22.455 0 40.724-18.269 40.724-40.725 0-11.031-4.415-21.045-11.562-28.385l-57.548 57.547c7.341 7.147 17.355 11.563 28.386 11.563z" fill="#ffe470"/><g><path d="m126.26 209.395-109.155 245.432 37.986 38.561 245.852-109.31z" fill="#fff5f5"/><path d="m55.091 493.388 245.852-109.31-85.545-85.545-177.451 177.451z" fill="#ebebf0"/><path d="m161.586 446.038-137.129 64.422c-14.406 6.768-29.442-8.07-22.867-22.564l41.275-90.99z" fill="#ff0100"/><path d="m126.26 209.395-47.806 107.489 186.751 83.084 35.738-15.89z" fill="#ff0100"/><path d="m265.205 399.968 35.738-15.89-85.545-85.545-54.867 54.867z" fill="#b40000"/><path d="m24.457 510.461 137.129-64.422-66.268-27.425-89.316 89.316c4.741 4.109 11.666 5.72 18.455 2.531z" fill="#b40000"/><path d="m140.007 151.75 221.398 221.398c11.573 11.573 11.573 30.337 0 41.91l-.211.211c-11.457 11.457-30.031 11.457-41.488 0l-221.609-221.609c-11.573-11.573-11.573-30.337 0-41.91 11.573-11.573 30.336-11.573 41.91 0z" fill="#009c86"/><path d="m319.706 415.269c11.457 11.457 30.031 11.457 41.488 0l.211-.211c11.573-11.573 11.573-30.337 0-41.91l-110.311-110.311-41.91 41.91z" fill="#006669"/></g></g></svg>