<?xml version="1.0" encoding="UTF-8"?>
<svg xmlns="http://www.w3.org/2000/svg" id="Filled" viewBox="0 0 512 512" width="512" height="512"><path d="M448,352s-32-80-88-112l-20.83-8.33A236.594,236.594,0,0,1,336,192S448,224,448,352Z" style="fill:#596063"/><path d="M448,352s-90.61-12.94-108.83-120.33L360,240C416,272,448,352,448,352Z" style="fill:#e9eef2"/><path d="M64,352s32-80,88-112l20.83-8.33A236.594,236.594,0,0,0,176,192S64,224,64,352Z" style="fill:#596063"/><path d="M64,352s90.61-12.94,108.83-120.33L152,240C96,272,64,352,64,352Z" style="fill:#e9eef2"/><path d="M256,24a88,88,0,0,1,88,88v-8c0,32-8,64-8,88s40,48,40,144S320,472,256,472,136,432,136,336s40-120,40-144-8-56-8-88v8A88,88,0,0,1,256,24Z" style="fill:#606669"/><path d="M240,472a15.979,15.979,0,0,1-16,16H160a16,16,0,0,1-16-16,31.991,31.991,0,0,1,32-32h32A32,32,0,0,1,240,472Z" style="fill:#f7b030"/><path d="M256,440c56,0,88-24,88-104s-40-104-40-136c0-24,8-32,8-96,0-24-18.745-32-32-32a24,24,0,0,0-24,24h0a24,24,0,0,0-24-24c-13.255,0-32,8-32,32,0,64,8,72,8,96,0,32-40,56-40,136S200,440,256,440Z" style="fill:#e9eef2"/><path d="M368,472a15.979,15.979,0,0,1-16,16H288a16,16,0,0,1-16-16,31.991,31.991,0,0,1,32-32h32A32,32,0,0,1,368,472Z" style="fill:#f7b030"/><path d="M263.992,160H248.008a16,16,0,0,1-15.522-12.119h0A16,16,0,0,1,248.008,128h15.984a16,16,0,0,1,15.522,19.881h0A16,16,0,0,1,263.992,160Z" style="fill:#f7b030"/><path d="M397.206,217.926a180.538,180.538,0,0,0-53.057-31.6c.492-10.214,2.152-21.862,3.771-33.192C349.926,139.089,352,124.568,352,112a96,96,0,0,0-192,0c0,12.568,2.074,27.089,4.08,41.131,1.619,11.33,3.279,22.978,3.771,33.192a180.525,180.525,0,0,0-53.057,31.6C87.973,240.916,56,282.838,56,352a8,8,0,0,0,8,8,7.856,7.856,0,0,0,1.132-.081c1.509-.215,32.7-4.952,62.925-30.141Q128,332.84,128,336c0,41.815,10.081,75.482,29.98,100.306A40.037,40.037,0,0,0,136,472a24.027,24.027,0,0,0,24,24h64a24.039,24.039,0,0,0,22.624-16h18.752A24.039,24.039,0,0,0,288,496h64a24.027,24.027,0,0,0,24-24,40.037,40.037,0,0,0-21.98-35.694C373.919,411.482,384,377.815,384,336q0-3.162-.057-6.222c30.224,25.189,61.416,29.926,62.925,30.141A7.856,7.856,0,0,0,448,360a8,8,0,0,0,8-8C456,282.838,424.027,240.916,397.206,217.926ZM124.715,230.5a167.878,167.878,0,0,1,38.972-25.068c-1.431,2.831-3.145,5.922-5.05,9.353-2.874,5.172-6.093,10.978-9.336,17.678-23.482,14.1-46.069,37.693-67.176,70.182-2.135,3.286-4.141,6.5-6.023,9.6A146.977,146.977,0,0,1,124.715,230.5Zm4.62,76.079A128.883,128.883,0,0,1,79.029,339.6c10.546-19.969,31.4-54.883,59.245-79.22A227.989,227.989,0,0,0,129.335,306.576ZM224,480h-8v-8a8,8,0,0,0-16,0v8H184v-8a8,8,0,0,0-16,0v8h-8a8.009,8.009,0,0,1-8-8,24.027,24.027,0,0,1,24-24h32a24.027,24.027,0,0,1,24,24A8.009,8.009,0,0,1,224,480ZM213.3,174.3c-2.363-13.935-5.3-31.277-5.3-70.3,0-23.327,21.544-24,24-24a16.019,16.019,0,0,1,16,16,8,8,0,0,0,16,0,16.019,16.019,0,0,1,16-16c2.456,0,24,.673,24,24,0,39.02-2.939,56.362-5.3,70.3-1.448,8.539-2.7,15.914-2.7,25.7,0,14.407,6.631,26.773,14.31,41.093C321.755,262.438,336,289,336,336c0,36.541-6.815,61.573-20.836,76.528C302.71,425.813,283.91,432,256,432s-46.71-6.187-59.164-19.472C182.815,397.573,176,372.541,176,336c0-47,14.245-73.562,25.69-94.907C209.369,226.773,216,214.407,216,200,216,190.211,214.75,182.836,213.3,174.3ZM264.814,464H247.186a39.882,39.882,0,0,0-7.81-16.766c5.229.51,10.76.766,16.624.766s11.395-.256,16.624-.766A39.882,39.882,0,0,0,264.814,464ZM360,472a8.009,8.009,0,0,1-8,8h-8v-8a8,8,0,0,0-16,0v8H312v-8a8,8,0,0,0-16,0v8h-8a8.009,8.009,0,0,1-8-8,24.027,24.027,0,0,1,24-24h32A24.027,24.027,0,0,1,360,472Zm-23.41-39.985c-.2,0-.392-.015-.59-.015H317.2a68.445,68.445,0,0,0,9.638-8.528C343.769,405.41,352,376.8,352,336c0-51.016-15.946-80.754-27.59-102.468C317.477,220.6,312,210.388,312,200c0-8.442,1.091-14.879,2.473-23.029C316.806,163.211,320,144.366,320,104c0-27.483-20.734-40-40-40a31.933,31.933,0,0,0-24,10.856A31.933,31.933,0,0,0,232,64c-19.266,0-40,12.517-40,40,0,40.366,3.194,59.211,5.527,72.971C198.909,185.121,200,191.558,200,200c0,10.388-5.477,20.6-12.41,33.532C175.946,255.246,160,284.984,160,336c0,40.8,8.231,69.41,25.164,87.472A68.445,68.445,0,0,0,194.8,432H176c-.2,0-.393.012-.59.015C154.567,409.736,144,377.457,144,336c0-61.927,17.225-92.932,28.623-113.448C178.979,211.11,184,202.073,184,192c0-12.568-2.074-27.089-4.08-41.131C177.992,137.38,176,123.432,176,112a80,80,0,0,1,160,0c0,11.432-1.992,25.38-3.92,38.869C330.074,164.911,328,179.432,328,192c0,10.073,5.021,19.11,11.377,30.552C350.775,243.068,368,274.073,368,336,368,377.457,357.433,409.736,336.59,432.015Zm46.075-125.439a228,228,0,0,0-8.939-46.2C401.6,284.734,422.463,319.69,433,339.65A128.451,128.451,0,0,1,382.665,306.576Zm47.21-3.934c-21.107-32.489-43.694-56.083-67.176-70.182-3.243-6.7-6.462-12.506-9.336-17.678-1.9-3.431-3.619-6.522-5.05-9.353A167.878,167.878,0,0,1,387.285,230.5,146.961,146.961,0,0,1,435.9,312.239C434.017,309.137,432.01,305.928,429.875,302.642Z"/><path d="M263.992,120H248.008a24,24,0,0,0,0,48h15.984a24,24,0,1,0,0-48Zm7.762,25.939A7.99,7.99,0,0,1,263.992,152H248.008a8,8,0,1,1,0-16h15.984a8,8,0,0,1,7.762,9.939Z"/><circle cx="280" cy="112" r="8"/><circle cx="232" cy="112" r="8"/></svg>
