<svg id="Capa_1" enable-background="new 0 0 512 512" height="512" viewBox="0 0 512 512" width="512" xmlns="http://www.w3.org/2000/svg"><g><path d="m256 7.5v248.5h80.275v-24.788c0-24.286 19.688-43.974 43.974-43.974 24.286 0 43.974 19.688 43.974 43.974v24.788h70.29c5.515 0 9.986-4.471 9.986-9.986v-185.973c0-29.018-23.524-52.542-52.542-52.542h-195.957z" fill="#b3e59f"/><g><path d="m451.958 7.5h-23.077c29.018 0 52.542 23.524 52.542 52.542v185.972c0 5.515-4.471 9.986-9.986 9.986h23.077c5.515 0 9.986-4.471 9.986-9.986v-185.972c0-29.019-23.524-52.542-52.542-52.542z" fill="#95d6a4"/></g><path d="m323.259 131.75c0-23.249-18.847-42.096-42.096-42.096h-18.861c-3.481 0-6.302-2.822-6.302-6.302v-75.852h-195.958c-29.018 0-52.542 23.523-52.542 52.541v195.959h248.5v-75.852c0-3.481 2.822-6.302 6.302-6.302h18.861c23.249 0 42.096-18.847 42.096-42.096z" fill="#dd636e"/><path d="m281.163 89.654h-18.861c-3.481 0-6.302-2.822-6.302-6.302v-75.852h-26.927v75.852c0 3.481 2.822 6.302 6.302 6.302h18.861c23.249 0 42.096 18.847 42.096 42.096 0 23.249-18.847 42.096-42.096 42.096h-18.861c-3.481 0-6.302 2.822-6.302 6.302v75.852h26.927v-75.852c0-3.481 2.822-6.302 6.302-6.302h18.861c23.249 0 42.096-18.847 42.096-42.096 0-23.249-18.847-42.096-42.096-42.096z" fill="#da4a54"/><path d="m325.247 380.25c0-24.286-19.688-43.975-43.975-43.975h-18.97c-3.481 0-6.302-2.822-6.302-6.302v-73.973h-73.973c-3.481 0-6.302-2.822-6.302-6.302v-19.654c0-24.286-19.688-43.974-43.974-43.974-24.286 0-43.974 19.688-43.974 43.974v19.654c0 3.481-2.822 6.302-6.302 6.302h-73.975v195.958c0 29.018 23.524 52.542 52.542 52.542h27.734v-27.151c0-24.286 19.688-43.975 43.974-43.975 24.286 0 43.975 19.688 43.975 43.975v27.151h70.29c5.515 0 9.986-4.471 9.986-9.986v-63.988c0-3.481 2.822-6.302 6.302-6.302h18.97c24.286 0 43.974-19.688 43.974-43.974z" fill="#ecbe6b"/><g><path d="m281.273 336.275h-18.97c-3.481 0-6.302-2.821-6.302-6.302v-73.973h-26.939v73.973c0 3.481 2.822 6.302 6.302 6.302h18.97c24.286 0 43.975 19.688 43.975 43.975s-19.688 43.975-43.975 43.975h-18.97c-3.481 0-6.302 2.822-6.302 6.302v63.988c0 5.515-4.471 9.986-9.986 9.986h26.939c5.515 0 9.986-4.471 9.986-9.986v-63.988c0-3.48 2.822-6.302 6.302-6.302h18.97c24.286 0 43.975-19.688 43.975-43.975-.001-24.287-19.689-43.975-43.975-43.975z" fill="#eab14d"/></g><g><path d="m451.958 0h-344.509c-4.142 0-7.5 3.357-7.5 7.5s3.358 7.5 7.5 7.5h141.051v68.352c0 7.61 6.192 13.802 13.803 13.802h18.86c19.076 0 34.596 15.521 34.596 34.597s-15.52 34.596-34.596 34.596h-18.86c-7.611 0-13.803 6.191-13.803 13.802v68.351h-65.275v-18.456c0-28.383-23.092-51.475-51.475-51.475s-51.474 23.092-51.474 51.475v18.456h-65.276v-188.458c0-24.836 20.206-45.042 45.042-45.042h17.42c4.142 0 7.5-3.357 7.5-7.5s-3.358-7.5-7.5-7.5h-17.42c-33.107 0-60.042 26.935-60.042 60.042v391.916c0 33.107 26.935 60.042 60.042 60.042h27.734c4.142 0 7.5-3.357 7.5-7.5v-27.151c0-20.112 16.362-36.475 36.475-36.475s36.475 16.362 36.475 36.475v27.151c0 4.143 3.358 7.5 7.5 7.5h70.29c9.642 0 17.485-7.844 17.485-17.485v-19.189c0-4.143-3.357-7.5-7.5-7.5-4.142 0-7.5 3.357-7.5 7.5v19.189c0 1.37-1.115 2.485-2.485 2.485h-62.79v-19.651c0-28.383-23.092-51.475-51.475-51.475s-51.474 23.092-51.474 51.475v19.651h-20.235c-24.836 0-45.042-20.206-45.042-45.042v-188.458h66.473c7.61 0 13.802-6.191 13.802-13.803v-19.653c0-20.112 16.362-36.475 36.475-36.475s36.475 16.362 36.475 36.475v19.653c0 7.611 6.192 13.803 13.802 13.803h66.473v66.473c0 7.61 6.192 13.802 13.803 13.802h18.97c20.112 0 36.475 16.362 36.475 36.475s-16.362 36.475-36.475 36.475h-18.97c-7.611 0-13.803 6.192-13.803 13.803v14.812c0 4.143 3.358 7.5 7.5 7.5 4.143 0 7.5-3.357 7.5-7.5v-13.614h17.772c28.383 0 51.475-23.092 51.475-51.475s-23.092-51.475-51.475-51.475h-17.772v-65.276h72.775c4.143 0 7.5-3.357 7.5-7.5v-24.788c0-20.112 16.362-36.475 36.475-36.475 1.636 0 3.331.12 5.04.356 4.099.568 7.889-2.299 8.457-6.402.567-4.104-2.299-7.89-6.402-8.457-2.387-.33-4.774-.497-7.095-.497-28.383 0-51.475 23.092-51.475 51.475v17.288h-65.275v-67.154h17.663c27.347 0 49.596-22.249 49.596-49.596 0-27.348-22.249-49.597-49.596-49.597h-17.663v-67.153h188.458c24.836 0 45.042 20.206 45.042 45.042v185.972c0 1.371-1.115 2.486-2.485 2.486h-62.79v-17.288c0-12.802-4.731-25.073-13.323-34.555-2.781-3.069-7.524-3.303-10.594-.521s-3.303 7.524-.521 10.594c6.087 6.717 9.438 15.411 9.438 24.482v24.788c0 4.143 3.357 7.5 7.5 7.5h70.29c9.642 0 17.485-7.845 17.485-17.486v-185.972c0-33.107-26.935-60.042-60.042-60.042z"/><path d="m76.73 393.214c-4.142 0-7.5 3.357-7.5 7.5s3.358 7.5 7.5 7.5h38.493c4.142 0 7.5-3.357 7.5-7.5s-3.358-7.5-7.5-7.5z"/><path d="m69.23 54.369c0 4.143 3.358 7.5 7.5 7.5h38.493c4.142 0 7.5-3.357 7.5-7.5s-3.358-7.5-7.5-7.5h-38.493c-4.142 0-7.5 3.358-7.5 7.5z"/><path d="m442.77 54.369c0-4.143-3.357-7.5-7.5-7.5h-38.493c-4.143 0-7.5 3.357-7.5 7.5s3.357 7.5 7.5 7.5h38.493c4.143 0 7.5-3.357 7.5-7.5z"/></g></g></svg>