<?xml version="1.0" encoding="iso-8859-1"?>
<!-- Generator: Adobe Illustrator 19.0.0, SVG Export Plug-In . SVG Version: 6.00 Build 0)  -->
<svg version="1.1" id="Capa_1" xmlns="http://www.w3.org/2000/svg" xmlns:xlink="http://www.w3.org/1999/xlink" x="0px" y="0px"
	 viewBox="0 0 512 512" style="enable-background:new 0 0 512 512;" xml:space="preserve">
<path style="fill:#7D2E16;" d="M256,170.213l138.976,307.745h27.34c20.536-31.289,32.492-68.714,32.492-108.936
	C454.809,259.222,365.799,170.213,256,170.213z"/>
<path style="fill:#924630;" d="M256,170.213c-109.799,0-198.809,89.01-198.809,198.808c0,40.223,11.957,77.648,32.492,108.936
	h305.293c17.161-31.289,27.151-68.714,27.151-108.936C422.128,259.222,347.749,170.213,256,170.213z"/>
<path style="fill:#4B7A2F;" d="M427.574,401.702l16.34,76.255h32.681v-27.234C476.596,423.65,454.648,401.702,427.574,401.702z"/>
<path style="fill:#619243;" d="M427.574,401.702c-18.462,0-34.533,10.211-42.894,25.287c-8.361-15.077-24.431-25.287-42.894-25.287
	s-34.533,10.211-42.894,25.287c-8.361-15.077-24.431-25.287-42.894-25.287s-34.533,10.211-42.894,25.287
	c-8.361-15.077-24.431-25.287-42.894-25.287s-34.533,10.211-42.894,25.287c-8.361-15.077-24.431-25.287-42.894-25.287
	c-27.074,0-49.021,21.947-49.021,49.021v27.234h408.511v-27.234C443.915,423.65,436.599,401.702,427.574,401.702z"/>
<path style="fill:#CCC9C0;" d="M460.255,461.617l-27.234,38.128h32.681c8.987,0,18.36-7.07,20.83-15.712l6.404-22.416H460.255z"/>
<path style="fill:#E8E5DA;" d="M453.851,484.033l6.404-22.416H19.064l6.404,22.416c2.47,8.642,11.842,15.712,20.83,15.712h386.723
	C442.008,499.745,451.381,492.675,453.851,484.033z"/>
<path style="fill:#924630;" d="M393.087,323.122l36.27-96.584l1.462-15.746L276.74,348.281c27.652,27.652,72.486,27.652,100.138,0
	C384.257,340.903,389.646,332.295,393.087,323.122z"/>
<path style="fill:#A86B5A;" d="M353.769,325.172c7.378-7.378,13.511-15.243,18.275-23.094l50.189-82.665l0.021-0.054l8.566-8.566
	l1.697-18.288l-34.034,3.159l-96.584,36.27c-9.172,3.44-17.781,8.83-25.159,16.209c-27.652,27.652-27.652,72.486,0,100.138
	C291.63,363.171,326.117,352.826,353.769,325.172z"/>
<path style="fill:#CCC9C0;" d="M497.879,181.611c0-8.547-4.934-15.924-12.098-19.493l-47.714,26.912l-15.813,30.33l-0.021,0.054
	l7.094,7.094l23.109-23.109h23.657C488.123,203.398,497.879,193.644,497.879,181.611z"/>
<path style="fill:#E8E5DA;" d="M422.253,219.359l23.072-23.072l18.198-5.459c9.255-2.777,19.01-12.531,21.787-21.787
	c0.804-2.681,0.916-5.012,0.471-6.923c-2.922-1.455-6.204-2.294-9.689-2.294c-1.476,0-5.817,0-10.894,0c0-5.076,0-9.418,0-10.894
	c0-12.033-9.754-21.787-21.787-21.787s-21.787,9.755-21.787,21.787v23.657l-23.109,23.109l23.719,23.719L422.253,219.359z"/>
<path d="M503.83,453.447h-11.071c-0.021,0-7.993,0-7.993,0v-2.723c0-19.472-9.79-36.694-24.698-47.027
	c1.928-11.424,2.911-23.061,2.911-34.675c0-41.389-12.121-81.165-35.094-115.322l8.513-22.672
	c3.137-3.162,12.194-12.232,19.42-19.459h20.272c16.518,0,29.957-13.439,29.957-29.957s-13.439-29.957-29.957-29.957h-2.723v-2.723
	c0-16.518-13.439-29.957-29.957-29.957c-8.002,0-15.526,3.116-21.184,8.775s-8.775,13.182-8.774,21.183v20.272l-19.513,19.512
	c-2.437,0.87-6.462,2.379-13.434,4.993c-2.799,1.049-5.886,2.207-9.17,3.439c-34.16-22.978-73.942-35.102-115.335-35.102
	c-114.129,0-206.979,92.85-206.979,206.979c0,1.621,0.025,3.238,0.062,4.85c0.101,4.448,3.739,7.985,8.165,7.985
	c0.062,0,0.125-0.001,0.188-0.002c4.511-0.102,8.085-3.841,7.983-8.353c-0.035-1.489-0.058-2.982-0.058-4.479
	c0-105.118,85.52-190.638,190.638-190.638c34.11,0,67.025,8.941,96.109,25.977c-1.599,0.6-3.205,1.203-4.811,1.805l-48.269,18.119
	c-10.603,3.977-20.045,10.06-28.069,18.082c-14.917,14.917-23.132,34.751-23.132,55.847s8.215,40.93,23.132,55.847
	c14.917,14.918,34.751,23.132,55.847,23.132s40.929-8.215,55.847-23.132c8.019-8.02,14.103-17.462,18.081-28.065l19.931-53.074
	c17.03,29.079,25.97,61.992,25.97,96.099c0,9.075-0.655,18.164-1.934,27.135c-5.411-1.703-11.165-2.624-17.13-2.624
	c-16.59,0-32.157,7.206-42.894,19.371c-10.737-12.165-26.304-19.371-42.894-19.371c-16.59,0-32.157,7.206-42.894,19.371
	c-10.737-12.165-26.304-19.371-42.894-19.371s-32.157,7.206-42.894,19.371c-10.737-12.165-26.304-19.371-42.894-19.371
	s-32.157,7.206-42.894,19.371c-10.737-12.165-26.304-19.371-42.894-19.371c-31.535,0-57.191,25.657-57.191,57.191v2.723H8.17
	c-4.513,0-8.17,3.657-8.17,8.17c0,4.513,3.657,8.17,8.17,8.17h4.73l4.713,16.491c3.466,12.132,16.066,21.637,28.685,21.637h419.404
	c12.619,0,25.219-9.505,28.686-21.637l4.712-16.491h4.73c4.513,0,8.17-3.657,8.17-8.17C512,457.104,508.343,453.447,503.83,453.447z
	 M385.437,320.252c-3.154,8.407-7.977,15.893-14.337,22.252c-11.829,11.83-27.56,18.347-44.291,18.347s-32.462-6.515-44.291-18.347
	c-11.83-11.829-18.347-27.56-18.347-44.291s6.515-32.462,18.347-44.291c6.361-6.362,13.847-11.186,22.255-14.338
	c27.547-10.343,76.249-28.625,91.676-34.399l3.991,3.991c1.596,1.595,3.688,2.392,5.778,2.392s4.182-0.797,5.778-2.392
	c3.191-3.192,3.191-8.364,0-11.555l-1.926-1.926l17.332-17.331c1.533-1.533,2.393-3.61,2.393-5.778v-23.658
	c0-3.636,1.416-7.056,3.988-9.628c2.571-2.571,5.992-3.988,9.629-3.988c7.509,0,13.617,6.108,13.617,13.617v10.896
	c0.001,4.511,3.657,8.167,8.168,8.168h10.896c7.509,0,13.617,6.108,13.617,13.617s-6.108,13.617-13.617,13.617h-23.657
	c-2.167,0-4.244,0.861-5.778,2.392c0,0-5.771,5.773-11.543,11.552c-2.887,2.891-5.776,5.786-7.94,7.96
	c-4.115,4.132-5.482,5.505-5.861,7.587l-10.202,27.164C411.1,251.917,385.437,320.252,385.437,320.252z M43.574,450.723
	c0-22.526,18.325-40.851,40.851-40.851c14.84,0,28.538,8.078,35.748,21.08c1.439,2.597,4.176,4.207,7.145,4.207
	s5.705-1.611,7.145-4.207c7.21-13.003,20.908-21.08,35.748-21.08c14.84,0,28.538,8.078,35.749,21.08
	c1.439,2.597,4.176,4.207,7.145,4.207c2.97,0,5.705-1.611,7.145-4.207c7.21-13.003,20.908-21.08,35.749-21.08
	s28.538,8.078,35.749,21.08c1.439,2.597,4.176,4.207,7.145,4.207s5.705-1.611,7.145-4.207c7.21-13.003,20.908-21.08,35.749-21.08
	s28.538,8.078,35.749,21.08c1.439,2.597,4.176,4.207,7.145,4.207s5.705-1.611,7.145-4.207c7.21-13.003,20.908-21.08,35.749-21.08
	c22.526,0,40.851,18.325,40.851,40.851v2.723H43.574V450.723z M478.676,481.789c-1.464,5.121-7.648,9.786-12.974,9.786H46.298
	c-5.327,0-11.51-4.665-12.973-9.786l-3.428-12.001h452.209L478.676,481.789z"/>
<g>
	<path style="fill:#BE9083;" d="M223.319,137.532c0,4.513,3.657,8.17,8.17,8.17s8.17-3.657,8.17-8.17
		c0-8.435,1.995-12.259,4.52-17.098c2.988-5.726,6.374-12.215,6.374-24.658s-3.386-18.933-6.374-24.659
		c-2.525-4.841-4.52-8.665-4.52-17.102s1.995-12.261,4.52-17.102c2.988-5.726,6.374-12.216,6.374-24.659
		c0-4.513-3.657-8.17-8.17-8.17c-4.513,0-8.17,3.657-8.17,8.17c0,8.436-1.995,12.26-4.52,17.101
		c-2.988,5.726-6.374,12.216-6.374,24.66s3.386,18.934,6.374,24.66c2.525,4.841,4.52,8.665,4.52,17.101
		c0,8.435-1.995,12.259-4.52,17.098C226.705,118.6,223.319,125.089,223.319,137.532z"/>
	<path style="fill:#BE9083;" d="M288.681,137.532c0,4.513,3.657,8.17,8.17,8.17c4.513,0,8.17-3.657,8.17-8.17
		c0-8.435,1.995-12.259,4.52-17.098c2.988-5.726,6.374-12.215,6.374-24.658s-3.386-18.933-6.374-24.659
		c-2.525-4.841-4.52-8.665-4.52-17.102s1.995-12.261,4.52-17.102c2.988-5.726,6.374-12.216,6.374-24.659
		c0-4.513-3.657-8.17-8.17-8.17c-4.513,0-8.17,3.657-8.17,8.17c0,8.436-1.995,12.26-4.52,17.101
		c-2.988,5.726-6.374,12.216-6.374,24.66s3.386,18.934,6.374,24.66c2.525,4.841,4.52,8.665,4.52,17.101
		c0,8.435-1.995,12.259-4.52,17.098C292.067,118.6,288.681,125.089,288.681,137.532z"/>
</g>
<g>
</g>
<g>
</g>
<g>
</g>
<g>
</g>
<g>
</g>
<g>
</g>
<g>
</g>
<g>
</g>
<g>
</g>
<g>
</g>
<g>
</g>
<g>
</g>
<g>
</g>
<g>
</g>
<g>
</g>
</svg>
