<?xml version="1.0" encoding="UTF-8"?>
<svg xmlns="http://www.w3.org/2000/svg" id="Filled" viewBox="0 0 512 512" width="512" height="512"><path d="M336,360H312V304H48a24.006,24.006,0,0,0-24,24v40a24.006,24.006,0,0,0,24,24H336a16,16,0,0,0,0-32ZM99.32,355.32A15.987,15.987,0,0,1,88,360H72a16,16,0,1,1,0-32H88a16.009,16.009,0,0,1,11.32,27.32Zm176,0A15.987,15.987,0,0,1,264,360H152a16,16,0,1,1,0-32H264a16.009,16.009,0,0,1,11.32,27.32Z" style="fill:#c3c6c7"/><path d="M232,288h0a16,16,0,0,1,16,16v8a16,16,0,0,0,16,16h40a16,16,0,0,0,16-16V256H232v32" style="fill:#75452e"/><path d="M192,120V88h96v56c0,32,32,48,32,104v16s0,16-48,16c-56,0-96,48-136,48H59.483A27.482,27.482,0,0,1,32,300.517h0A27.45,27.45,0,0,1,50.92,274.4c29.637-9.652,86-31.786,109.08-66.4C192,160,192,144,192,120Z" style="fill:#e3d3c2"/><path d="M320,248v16s0,16-48,16c-56,0-96,48-136,48H59.48A27.476,27.476,0,0,1,32,300.52a28.131,28.131,0,0,1,.37-4.52H128s24,0,48-16,64-32,96-32c29.85,0,45.78-6.96,47.78-7.9C319.92,242.64,320,245.27,320,248Z" style="fill:#95573a"/><path d="M248,152a16,16,0,0,1-16,16c-8.837,0-40-7.163-40-16s31.163-16,40-16A16,16,0,0,1,248,152Z" style="fill:#c7312e"/><path d="M136,152a16,16,0,0,0,16,16c8.837,0,40-7.163,40-16s-31.163-16-40-16A16,16,0,0,0,136,152Z" style="fill:#eb423f"/><path d="M472,392H448V336H392v24h8a16,16,0,1,1,0,32H288a16,16,0,1,1,0-32V336H184a24.006,24.006,0,0,0-24,24v40a24.006,24.006,0,0,0,24,24H472a16,16,0,0,0,0-32Zm-236.68-4.68A15.987,15.987,0,0,1,224,392H208a16,16,0,1,1,0-32h16a16.009,16.009,0,0,1,11.32,27.32Z" style="fill:#dadcde"/><path d="M328,152V120h96v56c0,32,32,48,32,104v16s0,16-48,16c-56,0-96,48-136,48H195.483A27.482,27.482,0,0,1,168,332.517h0A27.45,27.45,0,0,1,186.92,306.4c29.637-9.652,86-31.786,109.08-66.4C328,192,328,176,328,152Z" style="fill:#f0dfce"/><path d="M384,184a16,16,0,0,1-16,16c-8.837,0-40-7.163-40-16s31.163-16,40-16A16,16,0,0,1,384,184Z" style="fill:#c7312e"/><path d="M272,184a16,16,0,0,0,16,16c8.837,0,40-7.163,40-16s-31.163-16-40-16A16,16,0,0,0,272,184Z" style="fill:#eb423f"/><path d="M368,320h0a16,16,0,0,1,16,16v8a16,16,0,0,0,16,16h40a16,16,0,0,0,16-16V288H368v32" style="fill:#75452e"/><path d="M456,280v16s0,16-48,16c-56,0-96,48-136,48H195.48A27.476,27.476,0,0,1,168,332.52a28.131,28.131,0,0,1,.37-4.52H264s24,0,48-16,64-32,96-32c29.85,0,45.78-6.96,47.78-7.9C455.92,274.64,456,277.27,456,280Z" style="fill:#95573a"/><path d="M472,384H456V361.869A23.941,23.941,0,0,0,464,344V280c0-33.942-11.256-54.46-20.3-70.948C437.163,197.137,432,187.726,432,176V120a8,8,0,0,0-8-8H328a8,8,0,0,0-8,8v32c0,5.384,0,10.277-.376,15.179-1.986-.8-3.97-1.493-5.834-2.1a124.943,124.943,0,0,0-13.964-3.607A43.875,43.875,0,0,1,296,144V88a8,8,0,0,0-8-8H192a8,8,0,0,0-8,8v32c0,5.4,0,10.3-.38,15.217C172.529,130.713,158.026,128,152,128a24,24,0,0,0,0,48c4.077,0,11.906-1.2,19.974-3.352a326.2,326.2,0,0,1-18.63,30.914C131,237.078,72.541,258.949,48.443,266.8a35.485,35.485,0,0,0-22.306,45.852A32.039,32.039,0,0,0,16,336v32a32.036,32.036,0,0,0,32,32H152a32.036,32.036,0,0,0,32,32H472a24,24,0,0,0,0-48Zm-64-8a8.009,8.009,0,0,1-8,8H358.624A23.992,23.992,0,0,0,336,352H321.365c3.635-1.933,7.294-3.943,10.991-5.975,11.781-6.476,23.766-13.06,36.4-17.987A8.01,8.01,0,0,1,376,336v8a24.027,24.027,0,0,0,24,24A8.009,8.009,0,0,1,408,376Zm-176,0a8.009,8.009,0,0,1-8,8H208a8,8,0,0,1,0-16h16A8.009,8.009,0,0,1,232,376Zm-36.518-24a19.5,19.5,0,0,1-19.153-16H264c1.079,0,26.718-.2,52.438-17.344C339.289,303.422,378.078,288,408,288c18.048,0,31.4-2.461,40-4.789V295.09a8.036,8.036,0,0,1-2.438,2.254C441.833,299.83,432,304,408,304c-32.4,0-59.47,14.877-83.351,28-18.71,10.284-36.381,20-52.649,20ZM96,344a8.009,8.009,0,0,1-8,8H72a8,8,0,0,1,0-16H88A8.009,8.009,0,0,1,96,344ZM59.482,320a19.5,19.5,0,0,1-19.153-16H128c1.079,0,26.718-.2,52.438-17.344,22.351-14.9,59.944-29.971,89.579-30.625-27.16,22.019-66.8,36.65-85.574,42.765a35.317,35.317,0,0,0-17.5,12.6C157.253,315.981,146.476,320,136,320ZM288,368h48a8,8,0,0,1,0,16H288a8,8,0,0,1,0-16Zm112-16a8.009,8.009,0,0,1-8-8v-8a23.862,23.862,0,0,0-4.354-13.76A95.689,95.689,0,0,1,408,320c17.157,0,30.555-2.006,40-5.96V344a8.009,8.009,0,0,1-8,8ZM336,128h80v48c0,15.826,6.641,27.932,13.671,40.748,7.236,13.189,15.283,27.862,17.643,49.99C440.635,268.864,427.485,272,408,272c-34.644,0-76.349,17.284-100.438,33.344A88.4,88.4,0,0,1,264,320H180.533a19.339,19.339,0,0,1,8.864-5.99c31.9-10.39,89.041-33.244,113.259-69.572,13.436-20.154,21.452-35.072,26.242-47.317a62.178,62.178,0,0,0,13.312,5.8c8.9,2.9,19.983,5.079,25.79,5.079a24,24,0,0,0,0-48c-5.807,0-16.894,2.184-25.79,5.079-2.088.68-4.328,1.467-6.552,2.392C336,162.37,336,157.346,336,152Zm2.052,56c6.656-3.684,22.9-8,29.948-8a8,8,0,0,1,0,16C360.955,192,344.708,187.684,338.052,184Zm-21.3-.617q-.205.713-.43,1.438C308.939,188.3,294.527,192,288,192a8,8,0,0,1,0-16C294.656,176,309.512,179.852,316.748,183.383ZM152,160a8,8,0,0,1,0-16c5.261,0,20.564,3.321,28.733,7.432-.127.441-.261.888-.4,1.336C172.011,156.833,157.2,160,152,160ZM53.4,282.01c31.9-10.39,89.041-33.244,113.259-69.572,13.436-20.154,21.452-35.072,26.242-47.317a62.178,62.178,0,0,0,13.312,5.8c8.9,2.9,19.983,5.079,25.79,5.079a24,24,0,0,0,0-48c-5.807,0-16.894,2.184-25.79,5.079-2.088.68-4.328,1.467-6.552,2.392C200,130.37,200,125.346,200,120V96h80v48a56.071,56.071,0,0,0,2.526,16.637A24,24,0,0,0,288,208c4.591,0,12.483-1.368,19.983-3.371a325.869,325.869,0,0,1-18.639,30.933c-.861,1.292-1.793,2.56-2.757,3.816C281.9,239.787,277,240,272,240c-34.644,0-76.349,17.284-100.438,33.344A88.4,88.4,0,0,1,128,288H44.533A19.339,19.339,0,0,1,53.4,282.01ZM202.052,152c6.656-3.684,22.9-8,29.948-8a8,8,0,0,1,0,16C224.955,160,208.708,155.684,202.052,152ZM48,384a16.019,16.019,0,0,1-16-16V336a16.016,16.016,0,0,1,3.229-9.618,35.461,35.461,0,0,0,14.658,8.289A24,24,0,0,0,72,368H88a23.992,23.992,0,0,0,22.624-32h18.752A23.992,23.992,0,0,0,152,368v16Zm108.293-32H152a8,8,0,0,1,0-16h8.173a35.224,35.224,0,0,0,1.964,8.648A31.962,31.962,0,0,0,156.293,352ZM472,416H184a16.019,16.019,0,0,1-16-16V368a16.016,16.016,0,0,1,3.229-9.618,35.461,35.461,0,0,0,14.658,8.289A24,24,0,0,0,208,400h16a23.992,23.992,0,0,0,22.624-32h18.752A23.992,23.992,0,0,0,288,400H400a23.992,23.992,0,0,0,22.624-32H440v24a8,8,0,0,0,8,8h24a8,8,0,0,1,0,16Z"/></svg>
