<svg id="Filled" height="512" viewBox="0 0 512 512" width="512" xmlns="http://www.w3.org/2000/svg"><path d="m40 336h384a32 32 0 0 0 32-32 32 32 0 0 0 -32-32 16 16 0 0 1 -16-16 16 16 0 0 1 16-16 64 64 0 0 1 64 64 64 64 0 0 1 -64 64h-384a16 16 0 0 1 -16-16 16 16 0 0 1 16-16z" fill="#ad6643"/><rect fill="#d13330" height="32" rx="16" width="320" x="24" y="256"/><g fill="#95573a"><path d="m88 336 16-48h-32l-16 48z"/><path d="m224 336-16-48h32l16 48z"/><path d="m304 336-16-48h32l16 48z"/></g><path d="m168 176h-128a16 16 0 0 1 -16-16 16 16 0 0 1 16-16h120z" fill="#d13330"/><path d="m424 232a24 24 0 0 0 0 48 24 24 0 0 1 0 48h-82.234l-10.733-32.2a24 24 0 0 0 -3.033-47.8h-122.584l-29.786-74.466-7.869-31.474a8 8 0 0 0 -7.761-6.06h-120a24 24 0 0 0 -5.972 47.247c-5.504 7.294-10.028 17.821-10.028 32.753s4.524 25.459 10.028 32.753a24 24 0 0 0 5.972 47.247h20.9l-10.666 32h-10.234a24 24 0 0 0 0 48h384a72 72 0 0 0 0-144zm-221.766 64 10.666 32h-113.8l10.667-32zm27.532 32-10.666-32h15.135l10.665 32zm32 0-10.666-32h31.135l10.665 32zm48 0-10.666-32h15.135l10.665 32zm-147.182-144 25.6 64h-68.184v-64zm-105.042 64c-3.827-1.746-17.542-9.57-17.542-32 0-22.271 13.612-30.175 17.566-32h46.434v64zm-17.542-96h113.754l4 16h-117.754a8 8 0 0 1 0-16zm-8 120a8.009 8.009 0 0 1 8-8h288a8 8 0 0 1 0 16h-288a8.009 8.009 0 0 1 -8-8zm45.766 24h15.134l-10.666 32h-15.134zm346.234 64h-384a8 8 0 0 1 0-16h384a40 40 0 0 0 0-80 8 8 0 0 1 0-16 56 56 0 0 1 0 112z"/></svg>