<?xml version="1.0" encoding="iso-8859-1"?>
<!-- Generator: Adobe Illustrator 19.0.0, SVG Export Plug-In . SVG Version: 6.00 Build 0)  -->
<svg version="1.1" id="Capa_1" xmlns="http://www.w3.org/2000/svg" xmlns:xlink="http://www.w3.org/1999/xlink" x="0px" y="0px"
	 viewBox="0 0 512 512" style="enable-background:new 0 0 512 512;" xml:space="preserve">
<g>
	<rect x="24.51" y="337.743" style="fill:#DF3333;" width="43.574" height="54.468"/>
	<rect x="443.911" y="337.743" style="fill:#DF3333;" width="43.574" height="54.468"/>
</g>
<path style="fill:#992A2A;" d="M378.552,410.884c0,8.17,0,65.361,0,65.361h-32.681l-43.574-65.361H378.552z"/>
<path style="fill:#DF3333;" d="M345.872,410.884c0,8.17,0,65.361,0,65.361H133.448c0,0,0-57.191,0-65.361H345.872z"/>
<path style="fill:#88AD72;" d="M427.573,85.157L410.296,67.88c-8.464-8.475-25.001-17.408-36.733-19.848l-20.894-4.717L256,91.159
	l-96.495-47.507l-21.068,4.379c-11.732,2.44-28.269,11.373-36.733,19.848L84.427,85.157L62.64,139.625l21.787,53.367l32.681-32.681
	v266.913c0,8.987,7.353,16.34,16.34,16.34h245.104c8.987,0,16.34-7.353,16.34-16.34V160.311l32.681,32.681l21.787-53.367
	L427.573,85.157z"/>
<path style="fill:#619243;" d="M84.427,343.192c0,8.987-7.353,16.34-16.34,16.34H24.513c-8.987,0-16.34-7.353-16.34-16.34V183.199
	c0-11.983,6.928-28.715,15.403-37.19l60.851-60.851V343.192z"/>
<path style="fill:#4B7A2F;" d="M488.424,146.008l-27.909-27.909l-5.708,241.433h32.681c8.987,0,16.34-7.353,16.34-16.34V183.199
	C503.828,171.216,496.899,154.483,488.424,146.008z"/>
<path style="fill:#619243;" d="M460.515,118.099l-32.942-32.942v258.035c0,8.987,7.353,16.34,16.34,16.34h10.894
	c8.987,0,16.34-7.353,16.34-16.34V149.429C471.147,139.8,466.67,127.113,460.515,118.099z"/>
<g>
	<path style="fill:#DF3333;" d="M319.237,35.755l33.432,7.56c-18.181,34.87-54.696,58.738-96.669,58.738
		c-41.842,0-78.248-23.715-96.495-58.4l33.846-7.048C207.121,56.409,230.041,69.372,256,69.372
		C282.319,69.372,305.533,56.039,319.237,35.755z"/>
	<polygon style="fill:#DF3333;" points="266.691,189.257 245.309,189.257 190.667,295.76 256,328.441 321.333,295.76 	"/>
</g>
<g>
	<circle style="fill:#FFFFFF;" cx="255.998" cy="170.277" r="21.787"/>
	<path style="fill:#FFFFFF;" d="M321.333,295.76H190.667c-14.983,0-27.128,12.146-27.128,27.129
		c0,14.983,12.146,27.129,27.128,27.129h130.665c14.983,0,27.128-12.146,27.128-27.129
		C348.461,307.907,336.315,295.76,321.333,295.76z"/>
</g>
<path d="M326.52,287.975l-49.465-96.414c5.493-5.434,8.902-12.968,8.902-21.286c0-16.519-13.439-29.957-29.957-29.957
	c-16.519,0-29.957,13.438-29.957,29.957c0,8.317,3.41,15.852,8.902,21.286l-49.465,96.414
	c-17.012,2.518-30.111,17.213-30.111,34.915c0,19.463,15.835,35.298,35.298,35.298h130.665c19.463,0,35.298-15.835,35.298-35.298
	C356.631,305.188,343.533,290.492,326.52,287.975z M256,156.658c7.509,0,13.617,6.108,13.617,13.617s-6.108,13.617-13.617,13.617
	c-7.509,0-13.617-6.108-13.617-13.617S248.491,156.658,256,156.658z M256,200.232c2.318,0,4.573-0.273,6.741-0.775l45.217,88.133
	H204.041l45.217-88.133C251.427,199.958,253.682,200.232,256,200.232z M321.333,341.848H190.667
	c-10.453,0-18.958-8.505-18.958-18.958c0-10.448,8.495-18.948,18.939-18.958c0.035-0.001,130.666-0.001,130.666-0.001
	c10.481,0.011,18.975,8.511,18.975,18.959C340.291,333.343,331.786,341.848,321.333,341.848z"/>
<path d="M494.201,140.228l-78.123-78.124c-9.59-9.588-27.483-19.265-40.777-22.054l-54.269-12.265
	c-3.283-0.743-6.688,0.606-8.571,3.396C299.762,49.98,278.654,61.204,256,61.204c-22.287,0-43.202-10.941-55.944-29.269
	c-1.87-2.69-5.168-4.002-8.374-3.335l-54.913,11.435c-13.299,2.769-31.242,12.463-40.847,22.069l-78.124,78.123
	C7.818,150.208,0,169.083,0,183.199v159.994c0,10.652,6.831,19.733,16.34,23.105v25.916c0,4.512,3.658,8.17,8.17,8.17h43.574
	c4.512,0,8.17-3.658,8.17-8.17v-25.916c9.509-3.373,16.34-12.453,16.34-23.105V196.381l16.34-16.34v247.185
	c0,10.652,6.831,19.733,16.34,23.105v25.916c0,4.512,3.658,8.17,8.17,8.17h245.109c4.513,0,8.17-3.658,8.17-8.17v-25.916
	c9.509-3.373,16.34-12.453,16.34-23.105V180.041l16.34,16.34v146.811c0,10.651,6.831,19.733,16.34,23.105v25.916
	c0,4.512,3.657,8.17,8.17,8.17h43.574c4.513,0,8.17-3.658,8.17-8.17v-25.916c9.509-3.373,16.34-12.453,16.34-23.105V183.199
	C512,169.083,504.182,150.209,494.201,140.228z M256,77.543c26.197,0,50.724-12.101,66.679-32.635l17.266,3.903
	C321.346,76.856,290.07,93.884,256,93.884c-33.839,0-64.965-16.836-83.608-44.575l17.521-3.648
	C205.881,65.721,230.197,77.543,256,77.543z M32.681,384.043v-16.34h27.234v16.34H32.681z M452.086,384.043v-16.34h27.234v16.34
	H452.086z M495.66,343.192c0,4.504-3.665,8.17-8.17,8.17h-43.574c-4.506,0-8.17-3.666-8.17-8.17V146.778
	c0-4.512-3.657-8.17-8.17-8.17c-4.513,0-8.17,3.658-8.17,8.17v26.493l-18.733-18.732c-2.338-2.338-5.852-3.036-8.904-1.771
	c-3.053,1.265-5.044,4.244-5.044,7.548v266.91c0,4.506-3.665,8.17-8.17,8.17l-179.745-0.001c-4.512,0-8.17,3.658-8.17,8.17
	c0,4.512,3.658,8.17,8.17,8.17l171.575,0.001v16.34H141.616v-16.34l24.513-0.001c4.513,0,8.17-3.658,8.17-8.17
	c0-4.513-3.658-8.17-8.17-8.17l-32.683,0.001c-4.506,0-8.17-3.665-8.17-8.17V160.317c0-3.305-1.99-6.283-5.044-7.548
	c-3.051-1.264-6.568-0.565-8.903,1.771l-18.734,18.732v-26.494c0-4.512-3.658-8.17-8.17-8.17c-4.512,0-8.17,3.658-8.17,8.17v196.414
	c0,4.504-3.666,8.17-8.17,8.17H24.51c-4.506,0-8.17-3.666-8.17-8.17V183.199c0-9.804,6.081-24.484,13.012-31.416l78.124-78.124
	c7.288-7.288,22.533-15.524,32.624-17.627l15.224-3.17c21.113,35.531,59.129,57.362,100.676,57.362
	c41.675,0,79.735-21.919,100.817-57.6l14.947,3.378c0.045,0.01,0.09,0.021,0.135,0.029c10.092,2.101,25.336,10.338,32.624,17.627
	l78.124,78.124c6.932,6.932,13.012,21.612,13.012,31.415L495.66,343.192L495.66,343.192z"/>
<g>
</g>
<g>
</g>
<g>
</g>
<g>
</g>
<g>
</g>
<g>
</g>
<g>
</g>
<g>
</g>
<g>
</g>
<g>
</g>
<g>
</g>
<g>
</g>
<g>
</g>
<g>
</g>
<g>
</g>
</svg>
