<svg id="Filled" height="512" viewBox="0 0 512 512" width="512" xmlns="http://www.w3.org/2000/svg"><path d="m488 296h-464a64 64 0 0 0 64 64h16a32 32 0 0 0 0 64h128v32a16 16 0 0 0 32 0v-32h32v48a16 16 0 0 0 32 0v-48h80a32 32 0 0 0 0-64h16a64 64 0 0 0 64-64z" fill="#e9eef2"/><path d="m24 296 112-176 24 56v120z" fill="#d0d2d4"/><path d="m160 176v21.33l-32-21.33-32.19 7.15 40.19-63.15z" fill="#e9eef2"/><path d="m488 296-112-176-24 56v120z" fill="#d0d2d4"/><path d="m352 176v21.33l32-21.33 32.19 7.15-40.19-63.15z" fill="#e9eef2"/><path d="m256 24 168 272h-168-168z" fill="#e1e3e6"/><path d="m336 153.52v46.48a16 16 0 0 1 -32 0v-32a16 16 0 0 0 -32 0v80a16 16 0 0 1 -32 0v-56a16 16 0 0 0 -32 0v8a16 16 0 0 1 -32 0v-46.48l80-129.52z" fill="#e9eef2"/><path d="m496 296h-.013a7.978 7.978 0 0 0 -1.238-4.3l-112-176a8 8 0 0 0 -14.1 1.144l-18.8 43.868-87.042-140.912a8 8 0 0 0 -13.614 0l-87.039 140.917-18.8-43.868a8 8 0 0 0 -14.1-1.144l-112 176a7.978 7.978 0 0 0 -1.238 4.3h-.016a72.121 72.121 0 0 0 57.225 70.476 39.98 39.98 0 0 0 30.775 65.519h120v24a24 24 0 0 0 48 0v-24h16v40a24 24 0 0 0 48 0v-40h72a39.98 39.98 0 0 0 30.775-65.524 72.121 72.121 0 0 0 57.225-70.476zm-67.538-8-57.762-93.519 14.793-9.862 26.336 6.584 61.6 96.8zm-260.462-106.3v18.3a24 24 0 0 0 48 0v-8a8 8 0 0 1 16 0v56a24 24 0 0 0 48 0v-80a8 8 0 0 1 16 0v32a24 24 0 0 0 48 0v-18.3l65.656 106.3h-307.312zm209.385-44.623 21.963 34.514-13.408-3.352a7.992 7.992 0 0 0 -6.378 1.1l-17.274 11.521-2.165-3.5zm-121.385-97.853 72 116.571v44.205a8 8 0 0 1 -16 0v-32a24 24 0 0 0 -48 0v80a8 8 0 0 1 -16 0v-56a24 24 0 0 0 -48 0v8a8 8 0 0 1 -16 0v-44.205zm-121.385 97.853 17.262 40.279-2.165 3.5-17.275-11.516a7.993 7.993 0 0 0 -6.377-1.1l-13.408 3.352zm-34.444 54.123 26.336-6.584 14.793 9.862-57.762 93.522h-44.965zm323.829 160.8h-16a8 8 0 0 0 0 16 24 24 0 0 1 0 48h-80a8 8 0 0 0 -8 8v48a8 8 0 0 1 -16 0v-48a8 8 0 0 0 -8-8h-32a8 8 0 0 0 -8 8v32a8 8 0 0 1 -16 0v-32a8 8 0 0 0 -8-8h-128a24 24 0 0 1 0-48 8 8 0 0 0 0-16h-16a56.078 56.078 0 0 1 -55.419-48h446.838a56.078 56.078 0 0 1 -55.419 48z"/><path d="m368 360a8 8 0 0 0 -8-8h-48a8 8 0 0 0 0 16h48a8 8 0 0 0 8-8z"/><path d="m280 320h-48a8 8 0 0 0 0 16h48a8 8 0 0 0 0-16z"/><path d="m408 320h-48a8 8 0 0 0 0 16h48a8 8 0 0 0 0-16z"/><path d="m160 328a8 8 0 0 0 -8-8h-48a8 8 0 0 0 0 16h48a8 8 0 0 0 8-8z"/><path d="m280 384h-48a8 8 0 0 0 0 16h48a8 8 0 0 0 0-16z"/><path d="m392 384h-48a8 8 0 0 0 0 16h48a8 8 0 0 0 0-16z"/><path d="m168 384h-48a8 8 0 0 0 0 16h48a8 8 0 0 0 0-16z"/><path d="m200 352h-48a8 8 0 0 0 0 16h48a8 8 0 0 0 0-16z"/></svg>